<?xml version="1.0" encoding="utf-8"?>
<!-- Generator: Adobe Illustrator 27.4.0, SVG Export Plug-In . SVG Version: 6.00 Build 0)  -->
<svg version="1.1" id="Capa_1" xmlns="http://www.w3.org/2000/svg" xmlns:xlink="http://www.w3.org/1999/xlink" x="0px" y="0px"
	 viewBox="0 0 258 157" style="enable-background:new 0 0 258 157;" xml:space="preserve">
<style type="text/css">
	.st0{fill:#FFFFFF;}
	.st1{fill:#248F8D;}
	.st2{fill:#999999;}
</style>
<g id="Grupo_4443" transform="translate(-1271 -1571)">
	<rect id="Rectángulo_997" x="1271" y="1571" class="st0" width="258" height="157"/>
	<g id="Grupo_4432">
		<path id="Trazado_8196" class="st1" d="M1411.7,1639c-2.6,0-5.1-0.1-7.6,0c-8.1,0.4-14.3-5.8-15.5-13.4c-1-6.4,0.7-11.9,5.6-16.3
			c0.8-0.7,1.7-1.3,2.6-1.8c1.8-0.8,3.8-1.4,4.7-3.5c0.3-0.5,0.8-0.9,1.4-1c1.6-0.4,1.8-1.4,1.6-2.7c-0.1-1-0.1-2,0-3
			c0-1.4,0-2.5-1.4-3.5c-1.7-1.1-1.5-3.6,0-5.1c1.4-1.4,3.7-1.3,5.1,0.1l0.1,0.1c1.3,1.4,1.2,3.5-0.1,4.8c-0.1,0.1-0.2,0.2-0.3,0.3
			c-1,0.6-1.5,1.7-1.2,2.8c0,0.7,0,1.4,0,2.1c-0.1,2-0.3,3.9,2.3,4.5c0.6,0.2,1,0.6,1.2,1.2c0.5,1.3,1.4,1.4,2.6,1.4
			c4.3-0.1,8.6,0,12.9,0c0.8,0.1,1.7-0.3,2.1-1c0.6-0.9,1.5-1.6,2.5-2.1c0.8-0.2,1.3-1.1,1.2-1.9c-0.1-1,0-2,0-3
			c0-1.6,0.2-3.1-1.6-4.3c-1.6-1.1-1.2-3.8,0.3-5.1c1.5-1.3,3.8-1.1,5.1,0.4l0,0c1.3,1.5,1.1,3.7-0.3,4.9c-0.1,0.1-0.1,0.1-0.2,0.2
			c-0.9,0.5-1.3,1.5-1.2,2.5c0.1,0.8,0.1,1.6,0,2.4c-0.1,1.9-0.3,3.8,2.3,4.4c0.5,0.2,0.8,0.5,1,0.9c0.6,1.9,2.3,2.2,3.8,2.9
			c4.8,2.2,8.2,6.8,8.8,12.1c1.1,6.9-0.9,12.8-6.7,17.2c-2.2,1.7-5,2.5-7.7,2.5c-3.2,0-6.3,0-9.4,0c2.5,1,5.3,1.6,7.6,3
			c2,1.3,4.3,1.9,6.7,1.8c2.8-0.2,5.3,1.5,6.2,4.1c0.1,0.3,0.4,0.6,0.7,0.8c4.8,2,7.1,6,8.7,10.6c1.5,4.8,2.2,9.8,2.2,14.8
			c-0.1,0.9,0.3,1.9,1.1,2.4c1.3,0.8,1.7,2.5,0.9,3.8c-0.1,0.1-0.2,0.3-0.3,0.4c-0.5,0.5-0.7,1.3-0.4,2c0.6,2.2-0.2,4.5-2.1,5.8
			c-0.4,0.2-1,0-1.5,0c0-0.5,0-1,0.1-1.5c0.4-0.7,1.1-1.3,1.4-2.1c0.5-1,0.1-2.2-0.9-2.8c-0.4-0.2-0.8-0.3-1.2-0.2
			c-0.5,0-1.1,0-1.6,0c-2-0.1-3,1.4-2.2,3.3c0.3,0.6,0.8,1,1,1.6c0.1,0.5,0,1-0.1,1.6c-0.5-0.1-1.2,0-1.5-0.2
			c-1.5-1.6-2.4-3.5-1.6-5.8c0.1-0.6,0-1.1-0.3-1.6c-1.1-1.3-0.9-3.2,0.4-4.3c0.2-0.2,0.4-0.3,0.7-0.4c0.4-0.2,0.9-0.8,0.9-1.2
			c-0.1-4.5-0.4-9-1.9-13.3c-0.6-1.4-1.2-2.7-2-4c-0.6,2.6-1.5,4.4-3.8,5c-0.3,0.1-0.4,0.9-0.4,1.4c-0.1,4.5,0.1,9-0.1,13.5
			c-0.5,8.3-2.6,16.2-7.3,23.3c-1,1.5-2.5,2.8-3.6,4.2c-0.5,0.6-0.8,1.4-1,2.2c-0.1,1.3-0.1,2.5,0,3.8c0.2,4.9-3.1,9.3-7.8,10.5
			c-4.8,1.4-9.8-0.5-12.5-4.7c-1.3-2-1.8-4.4-1.5-6.7c0.3-2.2-0.6-4.5-2.4-5.9c-5.3-5-7.9-11.6-9.6-18.5c-1.8-6.9-1.7-13.9-1.6-20.9
			c0.2-1.2-0.4-2.3-1.4-2.9c-1.2-0.8-1.8-2.4-2.6-3.8c-1.5,1.3-2.6,3.1-3,5.1c-0.9,4-1.6,8-2.2,12c0,0.6,0.3,1.1,0.8,1.4
			c1.5,0.8,2.1,2.7,1.2,4.2c-0.1,0.2-0.2,0.4-0.4,0.6c-0.3,0.5-0.4,1-0.3,1.6c0.6,2-0.1,4.1-1.7,5.5c-0.4,0.4-1.1,0.3-1.7,0.4
			c0-0.6-0.1-1.4,0.2-1.8c0.8-1.1,1.8-2.1,1-3.6c-0.4-0.6-0.9-1-1.6-1.2c-0.6-0.1-1.3-0.1-1.9-0.1c-2.3,0-3.2,1.7-2.1,3.7
			c0.3,0.5,0.8,0.9,1,1.4c0.1,0.5,0,1-0.1,1.5c-0.5,0-1.1,0.1-1.4-0.1c-1.8-1.4-2.5-3.7-1.8-5.9c0.3-0.6,0.2-1.4-0.2-2
			c-1-1.2-0.8-2.9,0.3-3.9c0.1-0.1,0.2-0.2,0.4-0.3c1.2-0.6,1.2-1.5,1.3-2.6c0.2-5.4,1.4-10.8,3.5-15.8c1.8-4,4.3-7.3,8.7-8.8
			c0.4-0.1,0.7-0.7,0.9-1.2c1.1-2.7,3.1-4.3,5.9-4.2c2.6,0.1,5.1-0.6,7.2-2.1C1406.8,1640.5,1409.3,1639.9,1411.7,1639z
			 M1440.2,1668.7c0-2.2,0.1-4.5,0-6.7s-0.3-4.4-0.7-6.6c-1.4-7.8-5.5-12.1-13.1-13.7c-0.7-0.2-1.2-0.2-1.7,0.6
			c-2.6,4.2-9.4,4.1-12.1-0.1c-0.3-0.4-0.7-0.6-1.2-0.6c-4.6,0.9-8.5,3-11,7.1c-1.7,2.8-2.7,6-3,9.3c-0.7,7.3-0.6,14.7,0.3,21.9
			c0.8,6.9,3.3,13.6,7.3,19.3c3.2,4.5,7.3,7.4,13.1,6.8c1.2-0.1,2.3-0.1,3.5,0c2.9,0,5.7-1,7.9-2.9c2.8-2.5,5.1-5.6,6.5-9.1
			C1439.7,1686,1440.6,1677.4,1440.2,1668.7L1440.2,1668.7z M1419,1636.9c5.3,0,10.6,0,15.9,0c2.7,0,5.3-0.9,7.3-2.6
			c4.3-3.6,5.8-8.4,5.2-13.8c-0.8-6.5-5.8-12.5-13.6-12.3c-10.1,0.2-20.3,0.1-30.4,0c-3.3-0.1-6.5,1.2-8.7,3.6
			c-3.6,3.7-5.1,8.9-4,14c1.3,6.5,6.4,11.5,13.6,11.2C1409.2,1636.7,1414.1,1636.9,1419,1636.9L1419,1636.9z M1410.8,1707.4
			c-0.5,4.1-0.2,8,3.8,10.5c3.1,2,7.1,1.9,10-0.3c3.7-2.7,4-4.9,3.4-10.6C1422.3,1708.9,1416.6,1708.6,1410.8,1707.4L1410.8,1707.4z
			 M1383.3,1675.7c0-0.6,0.1-1.1,0.1-1.7c0.7-4,1.3-7.9,2.3-11.8c0.5-2.6,2.1-5,4.3-6.6c1.8-1.1,1.4-2.5,1.3-4.1
			c-2.4,0.8-4.5,2.5-5.7,4.8c-3.6,5.9-4.5,12.6-4.9,19.5L1383.3,1675.7z M1453.1,1675.5l2.7,0.2c-0.5-4.2-0.9-8.2-1.5-12.2
			c-0.5-3.4-1.8-6.7-4-9.4c-1.1-1.1-2.2-2.2-3.4-3.1l-0.6,0.4c0.2,1.1,0,2.7,0.6,3.3c2.6,2.6,4.2,5.9,4.7,9.5
			C1452.3,1667.9,1452.6,1671.6,1453.1,1675.5L1453.1,1675.5z M1438.4,1646.1c0.9,2.3,2,4.4,2.7,6.7c0.7,2.3,1,4.7,1.4,7.2
			c1.2-0.3,2-1.5,1.8-2.7c0.1-2.1-0.1-4.1,0.1-6.2C1444.7,1647.5,1441.9,1645.2,1438.4,1646.1L1438.4,1646.1z M1399.5,1646.1
			c-3.5-0.5-5.8,0.9-5.9,3.6c-0.1,2.6-0.1,5.2,0,7.8c0.2,0.8,0.5,1.6,0.9,2.3l0.5-0.1C1395.4,1654.8,1396.5,1650.2,1399.5,1646.1
			L1399.5,1646.1z M1414.4,1639.1c-0.4,1.3,0.1,2.7,1.3,3.4c1.8,1.1,4.1,1.1,5.9,0c1.3-0.7,1.5-1.9,1.2-3.4H1414.4z M1453.8,1677.9
			L1453.8,1677.9c-0.8-0.2-1.7-0.2-2.5-0.2c-0.4,0.1-0.8,0.6-1.2,0.9c0.4,0.3,0.7,0.8,1.1,0.8c1.8,0.2,3.6,0.2,5.4,0.2
			c0.4,0,0.8-0.5,1.1-0.8c-0.4-0.3-0.8-0.8-1.2-0.9C1455.6,1677.9,1454.7,1677.9,1453.8,1677.9L1453.8,1677.9z M1381.8,1679.6
			L1381.8,1679.6c1,0.1,2,0.1,3,0c0.4,0,0.7-0.5,1-0.8c-0.3-0.3-0.6-0.8-0.9-0.9c-1.9-0.1-3.8-0.1-5.7,0c-0.3,0-0.6,0.5-1,0.8
			c0.3,0.3,0.6,0.8,0.9,0.8C1380,1679.7,1380.9,1679.7,1381.8,1679.6L1381.8,1679.6z M1405.5,1589.3c-0.7,0.9-1.4,1.5-1.3,2
			s0.8,1,1.3,1.5c0.5-0.5,1.3-1,1.4-1.5S1406.2,1590.2,1405.5,1589.3L1405.5,1589.3z M1432.4,1589.2c-0.7,0.9-1.4,1.6-1.3,2
			c0.1,0.6,0.9,1,1.4,1.5c0.4-0.5,1.2-1,1.2-1.5C1433.8,1590.8,1433.1,1590.2,1432.4,1589.2L1432.4,1589.2z M1429.7,1605.8h5.4
			C1433.6,1604.1,1431.6,1604,1429.7,1605.8L1429.7,1605.8z M1408.1,1605.8c-1.5-1.8-4.1-1.8-5.1,0H1408.1z"/>
		<path id="Trazado_8197" class="st1" d="M1470.4,1580.8c4.5,0,8.9,0,13.4,0c5.8,0,9.3,3.6,9.3,9.4c0,4.3,0,8.6,0,12.9
			c0,5.6-3.5,9.1-9.2,9.1c-4.9,0-9.8-0.1-14.7,0.1c-1.4,0.1-2.6,0.6-3.7,1.4c-2.7,2.1-5.3,4.5-7.9,6.7c-0.8,0.7-1.7,1.3-2.9,0.7
			c-1.1-0.6-1.3-1.6-1.3-2.7c0-1.8,0-3.5,0-5.3c0-0.5-0.3-0.9-0.7-1.2c-3.8-1.3-5.2-4.3-5.3-7.9c-0.1-4.9-0.1-9.8,0-14.7
			c0-4.7,3.8-8.6,8.5-8.6c0.1,0,0.1,0,0.2,0C1460.9,1580.7,1465.6,1580.8,1470.4,1580.8L1470.4,1580.8z M1455.7,1619.3
			c3-2.6,5.7-4.8,8.3-7.2c1.5-1.3,3.4-2.1,5.4-2c4.9,0,9.8,0,14.7,0c4.4,0,6.9-2.5,6.9-6.9s0-8.7,0-13.1c0-4.5-2.6-7.1-7.1-7.1
			c-3.6,0-7.1,0-10.7,0c-5.5,0-10.9,0-16.4,0c-4.1,0-6.9,2.5-7,6.3c-0.1,4.9-0.1,9.8,0,14.7c0.1,3.3,1.5,5.4,4,6
			c1.3,0.1,2.2,1.3,2,2.5c0,0.1,0,0.1,0,0.2C1455.6,1614.8,1455.7,1616.8,1455.7,1619.3z"/>
		<path id="Trazado_8198" class="st1" d="M1417.7,1679.5c-2.1,0-4.2,0-6.4,0c-2.7,0.1-5.3-1.3-6.7-3.6c-2.9-4.3-2.9-9.9,0.1-14.2
			c1.5-2.3,4.1-3.6,6.8-3.5c3.8,0,7.6,0,11.5,0c5.2,0,8.3,2.4,9.6,7.5c0.8,2.9,0.5,6-0.8,8.7c-1.6,3.3-4.2,5.3-8.1,5.1
			C1421.6,1679.5,1419.7,1679.5,1417.7,1679.5z M1417.7,1677.4c2,0,3.9-0.1,5.9,0c2.5,0.2,4.9-1.2,5.9-3.5c1.8-3.2,1.7-7.2-0.2-10.3
			c-1.1-2-3.2-3.3-5.5-3.2c-3.9,0-7.7,0-11.6,0c-3.6,0-5.6,1.4-6.9,4.8c-1.1,2.7-0.9,5.7,0.4,8.3c1.2,2.5,3,4,6,3.9
			C1413.6,1677.3,1415.7,1677.4,1417.7,1677.4L1417.7,1677.4z"/>
		<path id="Trazado_8199" class="st1" d="M1417.9,1633.3c-5.2,0-10.4,0-15.6,0c-5.4,0-8.1-2.1-9.2-7.5c-0.8-3.4-0.4-7.1,1.4-10.2
			c1.3-2.5,4-4,6.8-3.9c11.1,0,22.1,0,33.2,0c4.6,0,7.2,2,8.3,6.5c0.7,3,0.7,6.2-0.2,9.1c-1.1,4-3.6,5.9-7.8,5.9
			C1429.2,1633.3,1423.6,1633.3,1417.9,1633.3z M1418.1,1631.1c5.6,0,11.2,0,16.7,0c3,0,4.7-1.3,5.6-4.2c0.8-2.8,0.9-5.8,0.1-8.6
			c-0.8-3.2-2.6-4.5-5.9-4.5c-11.1,0-22.2,0-33.3,0c-2.2-0.1-4.2,1.2-5.1,3.1c-1.3,2.6-1.7,5.5-1,8.4c0.9,4.4,3,6,7.1,5.9
			C1407.6,1631,1412.9,1631.1,1418.1,1631.1L1418.1,1631.1z"/>
		<path id="Trazado_8200" class="st2" d="M1421.6,1714.3c0.5-0.1,0.9-0.1,1.4,0c0.4,0.3,0.8,0.6,1.2,1c-0.4,0.4-0.7,0.9-1.2,1
			c-0.8,0.2-1.7,0.2-2.5,0c-0.5-0.1-1-0.7-1.4-1.1c0.4-0.4,0.9-0.7,1.4-1C1420.9,1714.2,1421.3,1714.2,1421.6,1714.3L1421.6,1714.3z
			"/>
		<path id="Trazado_8201" class="st2" d="M1415.1,1712.8c-0.9-0.3-2.5,0.6-2.4-1.1c0-1.4,1.5-1,2.4-1c1,0,2.5-0.5,2.5,1.1
			C1417.6,1713.3,1416,1712.6,1415.1,1712.8z"/>
		<path id="Trazado_8202" class="st2" d="M1421.2,1713c-0.6-0.4-1.9-0.9-1.9-1.3c0-1.4,1.4-1.1,2.3-1.1c1,0,2.5-0.5,2.6,1
			C1424.2,1713.4,1422.5,1712.4,1421.2,1713z"/>
		<path id="Trazado_8203" class="st2" d="M1415.1,1713.7c1,0.6,2.4,1.1,2.4,1.5c0,1.6-1.5,1.1-2.4,1.1s-2.4,0.5-2.4-1.1
			C1412.7,1714.8,1414.1,1714.3,1415.1,1713.7z"/>
		<path id="Trazado_8204" class="st2" d="M1460.3,1593.4c1.8-0.1,3.3,1.3,3.4,3.1v0.1c0,1.8-1.4,3.3-3.3,3.4l0,0
			c-1.8,0-3.2-1.4-3.3-3.2C1457,1594.9,1458.4,1593.4,1460.3,1593.4C1460.2,1593.4,1460.3,1593.4,1460.3,1593.4z M1460.3,1598.2
			c0.6-0.7,1.2-1.1,1.2-1.5s-0.6-0.8-0.9-1.2c-0.4,0.4-1.1,0.6-1.2,1.1C1459.2,1597,1459.8,1597.5,1460.3,1598.2L1460.3,1598.2z"/>
		<path id="Trazado_8205" class="st2" d="M1470.2,1593.4c1.8-0.1,3.3,1.3,3.4,3.1c0,0.1,0,0.1,0,0.2c0,1.8-1.4,3.3-3.3,3.4l0,0
			c-1.8,0-3.2-1.4-3.3-3.2C1466.9,1594.9,1468.3,1593.4,1470.2,1593.4C1470.1,1593.4,1470.1,1593.4,1470.2,1593.4z M1471.8,1596.7
			c-0.7-0.5-1.1-1.1-1.5-1.1s-0.8,0.6-1.2,0.9c0.4,0.4,0.7,1,1.2,1.2C1470.6,1597.8,1471.1,1597.2,1471.8,1596.7z"/>
		<path id="Trazado_8206" class="st2" d="M1477,1596.6c0-1.8,1.4-3.2,3.2-3.3c0.1,0,0.1,0,0.2,0c1.8,0,3.2,1.5,3.3,3.2
			c0,1.8-1.5,3.3-3.3,3.4C1478.5,1600,1477,1598.5,1477,1596.6C1477,1596.7,1477,1596.6,1477,1596.6z M1480.4,1595.1
			c-0.6,0.7-1.1,1.1-1.1,1.5s0.6,0.8,0.9,1.2c0.4-0.4,1.1-0.7,1.2-1.1C1481.5,1596.3,1480.9,1595.8,1480.4,1595.1z"/>
		<path id="Trazado_8207" class="st2" d="M1412,1668.8c-0.6,0.6-1,1.1-1.3,1.1c-0.5-0.1-0.9-0.4-1.1-0.9c-0.1-0.2,0.5-1,0.8-1
			C1410.8,1667.9,1411.3,1668.4,1412,1668.8z"/>
		<path id="Trazado_8208" class="st2" d="M1414,1667.4c0.6,0.8,1.1,1.2,1.1,1.6c0,0.3-0.6,0.9-0.9,0.9c-0.5-0.1-0.9-0.4-1-0.8
			C1413.1,1668.6,1413.5,1668.2,1414,1667.4z"/>
		<path id="Trazado_8209" class="st2" d="M1417.7,1667.5c0.4,0.6,1,1,0.9,1.4s-0.6,0.7-0.9,1.1c-0.4-0.4-1-0.7-1.1-1.1
			C1416.6,1668.6,1417.2,1668.1,1417.7,1667.5z"/>
		<path id="Trazado_8210" class="st2" d="M1426.2,1668.9c-0.6,0.5-0.9,1-1.3,1s-0.7-0.5-1.1-0.8c0.3-0.4,0.6-1,1-1.1
			C1425.1,1667.9,1425.6,1668.4,1426.2,1668.9z"/>
		<path id="Trazado_8211" class="st2" d="M1422.6,1669c-0.6,0.4-1.1,0.9-1.4,0.9c-0.4-0.1-0.7-0.6-1-0.9c0.4-0.4,0.7-0.9,1.1-1
			C1421.6,1667.9,1422,1668.5,1422.6,1669z"/>
		<path id="Trazado_8212" class="st1" d="M1418.1,1624c1.4,0,2.8,0,4.1,0c1.2,0,1.6,0.6,1.5,1.7c-0.3,2.3-2.7,4.2-5.4,4.3
			c-2.6,0.1-5.2-1.8-5.6-4c-0.3-1.5,0.1-1.9,1.6-1.9C1415.6,1624,1416.9,1624,1418.1,1624z M1415.3,1626.3c1.8,2,4.2,1.9,5.7,0
			H1415.3z"/>
		<text transform="matrix(1 0 0 1 2231 2111)" class="st1" style="font-family:'MyriadPro-Regular'; font-size:12px;">248f8d</text>
		<path id="Trazado_8213" class="st1" d="M1404.7,1617.1c2.2,0,4,1.8,4.1,4c0,2.3-1.8,4.1-4.1,4.2c-2.2-0.1-4-1.9-4.1-4.1
			C1400.7,1618.9,1402.4,1617.2,1404.7,1617.1z M1404.7,1619.2c-1.1,0.2-2,0.9-1.8,2c0.3,0.8,1,1.5,1.8,1.8c0.9,0.1,1.7-0.5,1.9-1.4
			c0-0.1,0-0.3,0-0.5C1406.6,1620,1405.8,1619.4,1404.7,1619.2L1404.7,1619.2z"/>
		<path id="Trazado_8214" class="st1" d="M1427.6,1621.1c0-2.2,1.8-4,4.1-4l0,0c2.2,0,4,1.9,4,4.1s-1.8,4-4.1,4
			C1429.4,1625.2,1427.6,1623.4,1427.6,1621.1z M1433.5,1621.2c-0.1-1.1-0.7-1.9-1.9-1.9c-1-0.1-1.8,0.6-1.9,1.6c0,0.1,0,0.1,0,0.2
			c-0.1,1,0.5,1.8,1.5,2c0.1,0,0.2,0,0.3,0C1432.7,1623.1,1433.4,1622.4,1433.5,1621.2L1433.5,1621.2z"/>
		<g id="Grupo_3336" transform="translate(743.049 1498.373)">
			<path id="Trazado_8262" class="st2" d="M600.1,93.2c5.7,0.2,11.4,3.3,15,9.6c3.9,6.9,4.1,14-0.2,20.9c-1.7,2.6-3.5,5.1-5.3,7.6
				c-2.7,3.8-4.8,7.7-5.5,12.5c-0.5,3.9-2.9,5.4-7.2,5.3c-4-0.1-5.7-1.6-6.3-5.6c-0.7-4.8-1.5-9.7-3.9-14c-1.7-3-3.5-5.9-5.6-8.6
				c-5.6-7.4-3.1-17.1,3.2-22.3C588.7,94.9,594.3,93,600.1,93.2z M598.3,132.9v-0.1c0.6,0,1.2,0,1.9,0c4.6-0.1,8.5-1.4,10.9-5.7
				c0.7-1,1.4-2,2.2-3c4.3-6,4.7-12.5,1.8-19.1c-4.4-9.8-15.6-13.5-25.6-8.6c-10.4,5-14,16.5-6.1,25.7c1.6,1.7,2.8,3.7,3.8,5.8
				c1.2,3,3.6,4,6.3,4.5C595.1,132.7,596.7,132.7,598.3,132.9z M589.5,132.5c0.5,4.1,0.7,4.3,4.2,4.4c2.8,0.1,5.6,0.1,8.4,0
				c2.9-0.1,3.6-0.7,4.4-3.9C600.9,134.5,595,134.3,589.5,132.5L589.5,132.5z M600.9,144.6v1.1h-8.5c2.3,2.1,5.6,2.6,8.5,1.3
				c1.7-0.9,2.4-2.7,1.9-5.1l-11.2,0.5c-0.2,1.7,0.4,2.4,1.9,2.3c1.4-0.1,2.9-0.1,4.3-0.1C598.8,144.6,599.9,144.6,600.9,144.6
				L600.9,144.6z M603.9,138.1H591c-0.1,2.9-0.1,3,2.5,3.1c2.7,0,5.3-0.3,8-0.3C603.3,140.8,603.9,139.9,603.9,138.1L603.9,138.1z"
				/>
			<path id="Trazado_8263" class="st2" d="M619.9,139.9l4.6-2.6l0.4,0.6c-0.8,0.7-1.6,1.3-2.5,1.8c-1.4,0.6-2.5,1.7-3,3.1
				c-0.8,2-3,2.9-5,2.2c-0.1,0-0.2-0.1-0.3-0.1c-1.8-1-2.6-3.2-1.8-5.1c0.8-2,3-2.9,5-2.1c0.5,0.2,0.9,0.5,1.3,0.9
				C619.1,138.9,619.5,139.4,619.9,139.9z M615.7,144c1.6,0,2.9-1.2,3.1-2.7c-0.1-1.6-1.4-2.9-3-2.8h-0.1c-1.9,0-2.5,1.2-2.6,2.8
				c-0.1,1.4,0.9,2.6,2.3,2.7C615.5,144,615.6,144.1,615.7,144z"/>
			<path id="Trazado_8264" class="st2" d="M576.5,143.3l4.1-1.7l-4.8-2.6l0.3-0.6l4.9,1.8c-0.2-1.6-0.5-2.9-0.7-4.2l0.7-0.2
				c0.5,1.8,1,3.5,1.5,5.3c0,0.3-0.1,0.7-0.4,0.9c-1.7,0.8-3.5,1.4-5.3,2.2C576.8,143.9,576.6,143.6,576.5,143.3z"/>
			<path id="Trazado_8265" class="st2" d="M633.2,112l-1.1-6.2l1-0.2l1.1,6.2L633.2,112z"/>
			<path id="Trazado_8266" class="st2" d="M562.5,120.8l2.1,6.1l-0.9,0.3c-0.7-2-1.4-4-2.2-6L562.5,120.8z"/>
			<path id="Trazado_8267" class="st2" d="M624.7,91.4L620,87l0.6-0.7l4.8,4.3L624.7,91.4z"/>
			<path id="Trazado_8268" class="st2" d="M565.8,98.5l-2.8,6.6C562.5,102.7,563.9,99.4,565.8,98.5z"/>
			<path id="Trazado_8269" class="st2" d="M634.4,117.4c-0.2,2.1-0.5,4.1-0.8,6.2l-1-0.1c0.3-2.1,0.5-4.1,0.8-6.2L634.4,117.4z"/>
			<path id="Trazado_8270" class="st2" d="M567.8,93.8l4.5-4.9C572.4,90.6,569.9,93.6,567.8,93.8z"/>
			<path id="Trazado_8271" class="st2" d="M582.3,83.3l-5.5,3.4l-0.4-0.6c1.3-1.8,3.5-2.4,5.3-3.6L582.3,83.3z"/>
			<path id="Trazado_8272" class="st2" d="M628,133.8c1.1-1.9,2.1-3.7,3.3-5.8C631.8,129.8,630.3,132.7,628,133.8z"/>
			<path id="Trazado_8273" class="st2" d="M610.2,80.7l5.8,2.6l-0.4,0.8l-5.8-2.5C610,81.3,610.1,81,610.2,80.7z"/>
			<path id="Trazado_8274" class="st2" d="M630.6,100.9l-2.9-5.6l0.7-0.4c1.6,1.5,2.2,3.6,3,5.6L630.6,100.9z"/>
			<path id="Trazado_8275" class="st2" d="M561.9,108.9v7.2C560.6,114.6,560.7,111.9,561.9,108.9z"/>
			<path id="Trazado_8276" class="st2" d="M571.3,136.2l-4.8-4.4l0.6-0.7l4.8,4.4L571.3,136.2z"/>
			<path id="Trazado_8277" class="st2" d="M586.8,80.4l6.2-1.5l0.2,0.9l-6.2,1.6L586.8,80.4z"/>
			<path id="Trazado_8278" class="st2" d="M598.7,78.6l6.3,0.7c0,0.3-0.1,0.6-0.1,0.9l-6.3-0.8L598.7,78.6z"/>
			<path id="Trazado_8279" class="st1" d="M599.9,116.8c-1.3-0.1-2.5-0.4-3.7-0.7c-0.9-0.3-2.1-1.1-2.2-1.7c0.1-1,0.6-2,1.5-2.6
				c2-0.9,4-1.6,6.1-2.2l0.4,0.7c-0.4,0.4-0.9,0.7-1.5,1c-1.4,0.5-2.9,0.9-4.2,1.5c-0.5,0.2-0.7,0.9-1,1.4c0.4,0.4,0.9,0.6,1.4,0.9
				c0.9,0.1,1.9,0.3,2.8,0.5c0.7,0.2,1.7,0.9,1.7,1.4c-0.1,0.8-0.5,1.6-1.3,2.1c-1.4,0.7-3.1,1.1-4.6,1.7c-0.6,0.3-1.2,0.8-1.7,1.3
				c0.5,0.5,1,1,1.6,1.4c0.5,0.3,1,0.6,1.5,0.8c-1.5,0.8-3.4,0.3-4.2-1.2s0-2.4,1.2-3s2.6-0.8,3.9-1.3c0.8-0.4,1.6-0.8,2.3-1.2
				C600,117.3,599.9,117,599.9,116.8z"/>
			<ellipse id="Elipse_581" class="st1" cx="616" cy="141.2" rx="3.3" ry="3.3"/>
		</g>
	</g>
</g>
</svg>
