<?xml version="1.0" encoding="UTF-8"?>
<svg id="Capa_1" data-name="Capa 1" xmlns="http://www.w3.org/2000/svg" viewBox="0 0 254 177">
  <defs>
    <style>
      .cls-1 {
        fill: #248f8d;
      }

      .cls-2 {
        fill: #2a446b;
      }

      .cls-3 {
        isolation: isolate;
        opacity: .79;
      }

      .cls-3, .cls-4 {
        fill: #c7c4c4;
      }

      .cls-4 {
        fill-rule: evenodd;
      }
    </style>
  </defs>
  <g id="Grupo_4438" data-name="Grupo 4438">
    <rect id="Rectángulo_994" data-name="Rectángulo 994" class="cls-2" width="254" height="177"/>
    <g id="Grupo_3340" data-name="Grupo 3340">
      <path id="Trazado_8355" data-name="Trazado 8355" class="cls-1" d="m67.75,53.87c.2-.6.4-1.1.6-1.7,1.7-2.2,3.3-4.6,4.6-7.1.1-.1.1-.3,0-.4.2-.3.4-.6.6-1,.2-.4.1-.9-.3-1.2.3-.5.7-1,1-1.5.4-.5-.3-1.2-.8-.7-.7.8-1.5,1.6-2.2,2.5-2.6,2-4.4,4.9-4.9,8.2-.3.8-.5,1.6-.8,2.4-.3,1.4,1.8,1.8,2.2.5Z"/>
      <path id="Trazado_8356" data-name="Trazado 8356" class="cls-1" d="m59.55,96.47c-.1-.6-.1-1.3-.2-1.9v-10c0-.2-.2-.4-.4-.4q-.1,0-.2.1v-.2c-.2-.9-1.6-.8-1.8.1v.1c-.2,0-.3.2-.3.4v.5c-.2,0-.3.2-.3.4-.1,1.5,0,3.1.2,4.6,0,2.1,0,4.1.2,6.2,0,.2.2.4.4.3.2,0,.3-.2.3-.4v-.7c.1.3.1.5.2.7v.3c.1,1.3,2,1.2,1.9-.1Z"/>
      <path id="Trazado_8357" data-name="Trazado 8357" class="cls-1" d="m59.65,75.37c0-.2.1-.4.1-.6,1.5.1,2.2-4.4,2.5-7.7.4-1,.9-2,1.3-3,.1-.2,0-.5-.2-.6.1-.3.2-.7.3-1.1.1-.5-.2-1-.7-1.1-.2,0-.4,0-.5.1-.2-.2-.5-.1-.6,0l-.1.1c-.2.4-.3.8-.5,1.2l-.1.1c-2.3,3.2-3.4,7-3.1,10.9v.2c0,.3-.1.7-.1,1-.3,1.3,1.5,1.7,1.7.5Zm.6-3.3c.2-.5.4-1,.6-1.5-.1.5-.2,1-.3,1.4-.1.2-.1.9-.3,1.1q-.1.1-.2.1c0-.3.1-.7.2-1.1h0Z"/>
      <path id="Trazado_8358" data-name="Trazado 8358" class="cls-1" d="m98.45,24.17c.5-.2,1-.3,1.5-.5h.1c.9-.2,1.8-.5,2.7-.8,2.8-.8,5.6-1.4,8.4-2.2.5-.2.7-.7.5-1.2-.1-.4-.5-.6-.9-.6-.5,0-.9.1-1.4.2l.5-.2c.5-.2.4-1-.2-1-3.9.4-7.6,1.7-10.9,3.8-.2.1-.2.3-.2.5h-.1c-.1,0-.1.1-.2.1-.2.1-.4.1-.6.2-.8.4-.3,2,.8,1.7Z"/>
      <path id="Trazado_8359" data-name="Trazado 8359" class="cls-1" d="m78.15,37.07c.1.1.2.1.2.1.3.1.7,0,.9-.2.3-.3.6-.5.9-.8,1.7-1.1,3.4-2.4,4.9-3.8l.8-.6c1.7-.9,3.3-1.9,4.9-3.1.7-.6.3-1.9-.7-1.6-.3.1-.6.2-.8.3,0-.3-.2-.5-.5-.6-.1,0-.2,0-.3.1-.7.5-1.5,1.1-2.2,1.6l-6.6,4.9h0c-.4.2-.7.5-1.1.8-.2.2-.2.5,0,.7h0c-.2.2-.5.5-.7.7-.4.3-.4.9-.1,1.2.1.2.3.3.4.3Z"/>
      <path id="Trazado_8360" data-name="Trazado 8360" class="cls-1" d="m191.95,74.37c0,.2.1.3.3.4,0,.6.1,1.1.2,1.7.1.9,1.4,1.2,1.8.4.2-.1.4-.3.4-.5.4-4-.4-8.1-2.2-11.7-.2-.6-.4-1.1-.6-1.6-.5-1.1-2.2-.5-1.8.6.1.3.3.7.4,1v.1-.1c-.3-.5-1.1-.3-.9.3,1,3.1,1.8,6.2,2.4,9.4Z"/>
      <path id="Trazado_8361" data-name="Trazado 8361" class="cls-1" d="m120.25,18.57c.9-.1,1.9-.1,2.8-.1,1.8.2,3.7.3,5.5.5.5,0,1.2.2,2,.2.7.1,1.4.3,2.1.4.6.1,1.1-.3,1.2-.9.1-.5-.2-1.1-.8-1.2-.4-.1-.8-.2-1.1-.2.1-.3,0-.6-.3-.7q-.1,0-.2-.1l-10.3-.3c-.2,0-.4.2-.5.4v.2l-.6.1c-.5.1-.8.5-.8,1,.2.4.6.7,1,.7Z"/>
      <path id="Trazado_8362" data-name="Trazado 8362" class="cls-1" d="m162.25,29.47c2.1,1.2,4.2,2.6,6.2,4,.9.6,1.8,1.3,2.6,2,.2.3.4.6.5.9.1.2.4.3.6.2.1,0,.1-.1.2-.1.2.2.4.3.6.5,0,.4.2.7.6.8h.2c.4.1.9-.2,1-.7v-.2c-.1-.7-.5-1.4-1-1.8,0-.1-.1-.3-.1-.4-2.5-2.9-5.8-5.2-9.4-6.5-.4-.3-.8-.6-1.3-.9s-1,.4-.7.8c-.4.3-.5.8-.2,1.2,0,0,.1.1.2.2Z"/>
      <path id="Trazado_8363" data-name="Trazado 8363" class="cls-1" d="m141.95,20.37c.8.2,1.6.5,2.4.8.1.1.1.2.2.2,2.4,1.2,4.9,2.2,7.5,2.8.8.3,1.6.6,2.5.8.8.2,1.2-.6,1-1.2.1-.3,0-.6-.2-.7-3.4-1.9-7-3.3-10.8-4.2-.2-.1-.4,0-.5.2-.5-.2-1-.3-1.6-.5-1.3-.4-1.6,1.5-.5,1.8Z"/>
      <path id="Trazado_8364" data-name="Trazado 8364" class="cls-1" d="m184.55,52.97l.1.1c.2.5.3,1,.2,1.6,0,.3.4.7.7.4.2-.2.3-.5.4-.7.1.2.4.4.7.4-.1.2-.2.4-.2.6,0,.4.2.7.6.9.4.2,1,.1,1.2-.4.7-1.7-1.7-4.3-2.6-5.7-1.6-2.4-3.4-4.8-5.4-7-.8-.8-1.9.5-1.2,1.3l.1.2c-.2-.2-.5-.5-.8-.7-.4-.4-1.2.2-.8.7,2.3,2.7,4.6,5.6,7,8.3Z"/>
      <path id="Trazado_8365" data-name="Trazado 8365" class="cls-1" d="m181.05,126.37c-.1.2-.3.4-.4.6-.3-.1-.7.1-.9.4-1.4,1.7-2.8,3.3-4.3,4.9s-3.3,2.9-4.7,4.5c-.3.4-.3,1,.1,1.3.3.3.8.3,1.1.1.6-.4,1.2-.8,1.8-1.2.4.2.9.2,1.2-.1.4-.3.7-.6,1.1-1,2.5-1.7,4.5-4,5.9-6.7.1-.3,0-.6-.2-.7h-.1v-.5c.2-.3.3-.7.5-1,.1-.3,0-.6-.3-.7-.4-.2-.6-.1-.8.1Z"/>
      <path id="Trazado_8366" data-name="Trazado 8366" class="cls-3" d="m184.15,102.27c.1-.3,0-.6-.2-.7-.2-.1-.4-.1-.6.1.8-3,1.3-6,1.6-9.1.4-3.5.3-7.1-.1-10.6,0-.1-.1-.3-.2-.4-.2-3.1-.6-6.2-1.4-9.3-.5-1.1-1-2.1-1.4-3.2-.8-1.8-1.4-3.7-1.7-5.7-1-2-2-4-3.3-5.9-1.1-1.9-2.4-3.7-3.7-5.4-.7-.9-1.4-1.8-2.1-2.6-1.5-1.9-3.2-3.7-4.9-5.5,0-.2,0-.3-.1-.4-2.1-2.2-4.5-4.1-7.1-5.6-.3-.2-.6-.4-1-.6,0-.2-.1-.5-.3-.5-.5-.2-1-.4-1.5-.6-1.8-1-3.7-2-5.6-2.8h0s-.1,0-.1-.1c-1.2-.5-2.3-.9-3.5-1.3-.9-.3-1.9-.6-2.8-.9-1-.7-2.1-1.3-3.1-2.1l-5.7.1c-.9-.2-1.9-.3-2.8-.4.4-.2.5-.9-.1-1-4-.6-8.1-.6-12.1-.1-3.3-.2-6.6.3-9.8,1.3-1.7.6-3.3,1.5-4.7,2.6l-1.6.8c-8.5,3.1-16.3,7.8-22.9,14.1-.3.3,0,.8.4.7-1.6,1.9-3,3.8-4.2,5.9-3.8,4.9-6.5,10.5-8,16.5,0,.3.2.6.5.6h.3c-.4,1.5-.8,3-1,4.5-1.4,4.3-2,8.8-1.8,13.3,0,.3.3.5.6.5.1,0,.2,0,.2-.1v.3c.2,3.5.7,6.9,1.6,10.2.1.2.2.4.5.3.1.3.2.6.3.9-.1.1-.1.2-.1.3,0,2.3.3,4.6.8,6.9-.4,0-.7.2-.5.7.5,1.2,1.1,2.4,1.7,3.5,1.7,4.9,4.5,9.3,8.2,13,.2.2.5.2.7,0,.1-.2.2-.4.1-.6,1,1.1,2.1,2.1,3.2,3.1.2.2.5.2.7,0,0,0,.1-.1.1-.2.8.8,1.6,1.6,2.4,2.3,1.7,1.8,3.5,3.4,5.5,4.9,0,.1.1.2.2.2,6.7,5.5,15,8.7,23.6,9.3h.3c3.1.3,6.2.3,9.2-.2,2.2,0,4.4,0,6.6-.2l-1.9.4c-.6.1-.4,1.1.2,1.1,4.4-.3,8.8-1.2,13-2.7,2.1-.4,4.2-1,6.3-1.6.3-.1.4-.4.3-.7-.1-.2-.2-.3-.3-.3,2.3-1.2,4.5-2.5,6.6-4,.2-.2.3-.5.1-.8l-.1-.1c1.5-1,3.1-2,4.5-3.1.2.1.4.1.5,0,5.4-4.4,10.2-9.4,14.3-15,.1-.2.1-.4,0-.6,1.9-2.7,3.7-5.5,5.3-8.5.1-.2.1-.4-.1-.6.7-1.2,1.4-2.7,2-4.3Zm-45-72.7l.4.4v.2l-.6-.1.2-.5Zm-65.5,31.7c.1.2.4.3.6.2.1,0,.2-.1.2-.2.1-.3.3-.6.4-.8-.6,1.3-1.2,2.6-1.7,4l-1.9,2.6c.7-1.9,1.5-3.9,2.4-5.8Zm-.9,47.8c-.5-1.7-.8-3.4-1-5.1.2.5.4,1.1.5,1.6-.1.1-.1.3,0,.4.6,1.8,1.3,3.6,2.2,5.4-.6-.7-1.1-1.5-1.7-2.3h0Zm79.3,25.7c-1,.5-2,1-3,1.4l8.3-4.8c-1.8,1.3-3.5,2.4-5.3,3.4h0Zm28.5-39c-1.9,8.1-5.3,15.7-10.2,22.4-.5.7-1,1.4-1.5,2-2.2,2.6-4.6,5-7,7.4l-19.8,11.3c-.7.2-1.4.4-2.1.5-3.3.1-6.6.5-9.8,1.2h-1.1c-3.2,0-6.4-.2-9.6-.4-3.5-.3-7.2-.4-10.6-1.3-5.4-1.5-10.6-5.8-15-9.1-4.1-2.9-7.8-6.3-11.1-10.2-.1-.1-.2-.3-.3-.4-1.7-2.7-3.2-5.6-4.6-8.5,0-.1-.1-.1-.2-.2l-.1-.2c.4.1.8-.3.6-.7-2.8-6.8-4.9-13.9-6.1-21.2-.2-4.6.2-9.1,1.3-13.6.1-.3-.1-.5-.4-.6h-.2c1.5-4.1,3.3-8.2,5.1-12.2l4.8-9.2c.9-1.5,1.9-2.9,2.9-4.3.1-.1.1-.3.1-.4,1.3-1.4,2.7-2.7,4.1-3.9,1.6-1.3,3.2-2.4,4.9-3.5,5.1-2.5,10.4-4.5,15.8-6q.1,0,.1-.1c4.4-.5,8.8-1.4,13.1-2.7,2.1.8,4.4,1.1,6.7,1,.3,0,.6-.3.6-.6,0-.1,0-.2-.1-.2,1.4.1,2.9.2,4.3.4-1.1-.1-2.1-.1-3.2-.1-.6,0-.8,1.1-.1,1.2,6.8.7,13.5,2.2,19.9,4.5,1.9,1,3.8,1.9,5.7,2.7,3.1,4.3,6.7,8.2,10.5,11.9,1.2,1.6,2.3,3.2,3.4,4.9.1.2.3.2.4.3.6,1.1,1.2,2.2,1.9,3.3l2.3,4.9c-.9-1.4-1.8-2.8-2.9-4.1-.4-.5-1.3,0-.9.6l5.1,8.2c1.1,2.4,2,4.9,2.7,7.4l.8,14.1c.2,1.1,0,2.3-.2,3.5h0Z"/>
      <path id="Trazado_8367" data-name="Trazado 8367" class="cls-1" d="m191.95,107.27c-.1,0-.1-.1-.2-.1-.1-.2-.5-.3-.7-.2,0,0-.1,0-.1.1-.4.1-.7.4-.8.8-.2.6-.3,1.2-.5,1.7-1.5,2.7-3.2,5.3-4.8,8.1,0,.1-.1.1-.1.2-.4.6-.8,1.2-1.1,1.9-.3.8.5,1.9,1.3,1.2.3-.2.6-.5.9-.8.1,0,.1-.1.2-.1.1-.1.2-.2.2-.2.2.2.5.3.7.1l.1-.1.1-.1h0c.8-1.2,1.5-2.4,2.2-3.6,1.6-2.5,2.7-5.3,3.2-8.2.1-.3-.1-.6-.4-.6-.1-.2-.2-.2-.2-.1Z"/>
      <path id="Trazado_8368" data-name="Trazado 8368" class="cls-1" d="m163.25,142.17c0-.1-.1-.1,0,0-.2-.2-.5-.2-.7-.1-2.2,1.2-4.5,2.4-6.7,3.5-1,.5-2,1.1-3,1.6-.2.1-.3.4-.2.6l.1.1c-.4.3-.8.7-1.1,1.2-.2.4,0,.8.3,1,.1.1.2.1.4.1,1.6,0,3.3-1.2,4.8-2.1.9-.5,1.8-1,2.8-1.6l4.2-2.4c1.1-.6.2-2.2-.9-1.9Z"/>
      <path id="Trazado_8369" data-name="Trazado 8369" class="cls-1" d="m195.45,84.07c-.1-.5-1-.4-.9.2,0,.3,0,.6.1.9-.5-.7-1.8-.5-1.7.6.2,2.1.3,4.3.2,6.5-.1,2.1-.7,4.3-.5,6.4,0,.5.5.8.9.8.3,0,.6-.2.7-.4.2-.5.4-.9.5-1.4.2,0,.4-.2.5-.4.4-1.8.7-3.7.6-5.6.3-2.6.1-5.1-.4-7.6Z"/>
      <path id="Trazado_8370" data-name="Trazado 8370" class="cls-1" d="m64.95,113.37c-.2-.4-.4-.7-.5-1.1-.4-.8-.7-1.6-1.1-2.5-.3-.9-.5-1.7-.7-2.6-.1-.4-.6-.4-.8-.1-.2-.3-.4-.5-.6-.7-.4-.3-.9-.3-1.2.1-.1.2-.2.4-.2.6h0l-.1-.1c-.2-.2-.6-.3-.7,0-.6,1.6,1.1,3.6,1.8,5,1,1.8,1.9,3.7,2.9,5.5.3.6.6,1.2.9,1.8.2.4.8.1.8-.2l.2.4c.5.9,1.9.3,1.8-.6.3.1.6-.1.6-.4-.3-1.8-2-3.2-2.9-4.7q-.2-.3-.2-.4Z"/>
      <path id="Trazado_8371" data-name="Trazado 8371" class="cls-1" d="m75.15,130.27c-1.1-1.5-1.7-3.6-3.3-4.6-.4-.2-1-.1-1.3.4,0,.1-.1.1-.1.2-.2-.2-.5-.3-.7-.5-.4-.3-.9.1-.6.5.6.9,1.3,1.7,2,2.5,1.2,3,3.1,5.6,5.6,7.6.2.2.6.1.8-.1v-.1c.3.3.7.6,1,.8,1.1.8,2.5-.7,1.5-1.6-1.8-1.4-3.5-3.2-4.9-5.1Z"/>
      <path id="Trazado_8372" data-name="Trazado 8372" class="cls-1" d="m143.05,151.57c-.2,0-.4.1-.6.1,0-.2-.2-.3-.4-.3h0c0-.3-.2-.5-.4-.6h-.1c-3.4.2-6.7.8-9.9,1.8-.2.1-.3.3-.3.5-.7.2-1.3.3-2,.5-.1,0-.2.1-.2.2-.4.3-.4.9-.1,1.3q.1.1.2.2c1.8,1.1,4,.5,6,.1,2.8-.6,5.7-1.3,8.5-1.9,1.1-.3.5-2.1-.7-1.9Z"/>
      <path id="Trazado_8373" data-name="Trazado 8373" class="cls-1" d="m99.25,148.17c-.5-.2-1-.3-1.5-.5,0-.1-.1-.3-.2-.3-2.6-1.6-5.2-3.1-7.9-4.5-.6-.4-1.2-.7-1.8-1l-.6-.4c-.4-.3-1-.3-1.3.1-.3.4-.3.9.1,1.3,3.2,3.6,8.4,5.8,12.9,7,.9.1,1.2-1.4.3-1.7Z"/>
      <path id="Trazado_8374" data-name="Trazado 8374" class="cls-1" d="m121.45,153.47h-1.9c0-.1,0-.2-.1-.3.3-.1.5-.4.6-.7.3-.2.2-.8-.2-.8h-.2c-3.6-.5-7.2-.9-10.8-1-.6,0-.6.8-.1.9.2.1.4.1.5.2h-.1c-.7-.2-1.5-.3-2.3-.5-1-.2-1.7,1.3-.7,1.8,4.6,2.1,10.2,2.3,15.2,2.2,1.3-.1,1.2-1.8.1-1.8Z"/>
      <path id="Trazado_8377" data-name="Trazado 8377" class="cls-4" d="m71.65,68.37l.1.1.1-.1c0-.1.1-.2.1-.4l-.3.4Z"/>
      <path id="Trazado_8379" data-name="Trazado 8379" class="cls-4" d="m153.55,69.57c-4.3-12.6-16.7-20.7-30-19.7-11,.9-19.6,8.1-23.6,17.7-3,6.1-3.6,13.1-1.8,19.6-5.3,6-11,11.6-17,16.9-.4.5-.4,1.2.1,1.6.1.1.3.2.5.3,2.5.7,5.4.4,8,.4h8.6c.1,1,.1,2.1.1,3.1v.1c-.1.2,0,.4.1.6.1,4.1.2,8.2.1,12.4,0,.6.6,1.1,1.2,1.1.3,0,.6-.1.8-.3,5-5.6,10.4-10.8,16.3-15.5.2-.2.4-.5.4-.8,1.8.6,3.6,1,5.4,1.3,3.7.4,7.5-.1,11-1.3,6.2,5,11.9,10.5,17.2,16.5.5.4,1.2.4,1.6-.1.2-.2.3-.5.3-.8-.7-5-.5-10,.4-14.9,5.7-.4,11.3-.9,17-1.6.9-.1,1.7-1.3.8-2.1-6.1-5.1-11.8-10.5-17.5-16,2-6,2-12.5,0-18.5h0Zm-19.6,18.8c-.4.6-.8,1.1-1.2,1.6-.4.4-.8.9-1.2,1.4-.6-.5-1.1-1-1.7-1.4,1.2-1.5,2.3-3,3.4-4.6.3,1,.6,1.9.9,2.9q-.2,0-.2.1h0Zm-1.1,4.1c.5-.3.9-.8,1.3-1.2.2-.2.3-.4.5-.6.1.4.2.9.2,1.3.2.5.3,1,.1,1.5,0,.7-.2.7-.7,0-.5-.3-1-.6-1.4-1h0Zm6.2-17.4c-2,2.2-3.8,4.4-5.7,6.7l-.4.3c-.3.2-.5.5-.5.8-1.6,1.8-3,3.8-4.2,5.9-.9-.5-1.9-.6-2.9-.2,1.1-1.4,2.2-2.8,3.2-4,2.6-3,5.1-6,7.6-9.1.1-.1.1-.2.2-.4h2.7Zm.2,2.5c.6-.7,1.1-1.3,1.7-1.9.1.7-1,1.5-1.7,1.9Zm-5.1-2.4c-2.3,2.7-4.6,5.4-7,8-1.3,1.4-2.5,2.8-3.8,4.2-1.3,1.3-2.5,2.7-3.5,4.2-.1.1-.1.2-.1.3l-1.2.7c-.8.5-1.9,1.7-1.7-.5.1-1,1-2.5,1.3-3.5l.2-.5c2.5-1.4,4.3-4.2,6.2-6.3,2.1-2.4,4.3-4.7,6.4-7.1.1,0,.3,0,.5.1.9.3,1.8.4,2.7.4h0Zm-4.8-1.3c-2.1,2.2-4.2,4.5-6.3,6.7-1.2,1.2-2.6,2.5-3.8,3.8.1-.9-.2-1.8-1-2.4,3.5-3.3,6.6-7.1,9.8-10.7.3,1,.7,1.8,1.3,2.6h0Zm-2.2-4.3c-1.7,1.8-3.5,3.6-5.3,5.3v-.2c.1-.7.2-1.4.3-2.1.2-.6.4-1.2.6-1.8.1.1.3.1.5,0,1-.4,1.5-1.5,2.1-2.3.5-.6,1-1.2,1.5-1.8.2.8.4,1.7.6,2.6-.1.1-.2.2-.3.3h0Zm-5.8,5.9c-1.7,1.7-3.4,3.5-4.9,5.3-.6-.4-1.2-.8-1.7-1.2.5-.4.9-1,1.2-1.4.8-.8,1.7-1.6,2.6-2.4l.2-.2h2.2c.2,0,.3,0,.4-.1h0Zm-5.7,7.2c-.6-.6-1.5-1.1-2.3-1.7-1.6-1-3.1-2.3-4.5-3.6-1.2-1.4-1-3.5,1-3.9,1.9-.2,3.9-.2,5.8,0,1.2.1,2.5.1,3.7,0,.5-.1.9-.3,1.2-.7.7-2.5,1.5-4.9,2.5-7.3.5-1.3,1-3.7,2.8-3.6,1.4.1,2.3,1.8,2.7,3,.8,2.5,1,4.9,2.3,7.3.8,1.5,2.1.9,3.7.9h4.6c1.5,0,3.5.1,4.1,1.8h0c.6,1.5-.4,2.6-1.5,3.5-2.2,1.8-4.6,3.3-7,5,.6,2,1.2,4,1.7,6.1.3,1.4,1,3.3.9,4.7-.2,2-2.1,2.3-3.6,1.4-1.9-1.2-3.4-3.2-5.3-4.2-.3-.2-.5-.4-.8-.6-1.1-.3-2.2,0-3.1.7-.9.5-1.8,1.1-2.7,1.7-1.6,1-4.8,4.1-6.7,2.1-2.1-2.3,1.5-6.7,1.7-9.2.1-1-.1-1.9-.7-2.7-.3-.3-.4-.5-.5-.7h0Zm-4-7.3l-.2.2c-.2.3-.5.5-.8.7-.5-.7-.5-.9.2-.8.3,0,.6-.1.8-.1h0Zm.2,1.9c.7-.5,1.3-1.2,1.7-1.9.8.1,1.7.2,2.1.2h.3c-.4.4-.8.8-1.2,1.2-.6.5-1.1,1.1-1.5,1.7l-.4-.3c-.3-.3-.7-.6-1-.9h0Zm14.5-12.4c-.8.8-1.6,1.7-2.3,2.6h0c.5-1.4,1.5-4.1,2.3-2.6h0Zm23.8,49q-.1.1-.2.2c-.4.6-.8,1.1-1.3,1.6-.3.3-.8.7-1.2,1-.6-.6-1.2-1.2-1.7-1.7,1.3-1,2.4-2.2,3.4-3.5.4-.5.9-1,1.3-1.5-.2,1.3-.3,2.6-.3,3.9h0Zm-1.3,4.2c.4-.3.8-.7,1.2-1.1,0,.8.1,1.7.1,2.5-.4-.5-.8-.9-1.3-1.4h0Zm14.4-17.4l-2.6,2.4c-.7.5-1.2,1.2-1.7,1.8-1.5.1-2.9.3-4.4.4,2-2.3,4-4.5,6.1-6.7l.1-.1c.8.7,1.6,1.5,2.5,2.2h0Zm-1.3,4l.1-.1,2.6-2.5c.8.7,1.6,1.4,2.4,2.1-1.6.1-3.3.3-5.1.5h0Zm-2.7-7.4c-2.7,2.8-5.3,5.5-7.9,8.3-1.2,1.3-2.4,2.6-3.6,3.9-1.3,1.2-2.4,2.6-3.3,4.1-.5-.5-1-.9-1.5-1.4,2.5-2.2,4.6-5.2,6.8-7.7,2.6-3,5.2-6,7.8-9,.6.6,1.2,1.2,1.7,1.8q.1,0,0,0h0Zm-3.1-3.1c-2.7,3-5.4,5.9-8,8.8-2.2,2.4-5,4.9-6.9,7.7-.7-.6-1.4-1.2-2.1-1.8,5.4-5.1,10.5-10.7,15.3-16.4.6.6,1.2,1.2,1.7,1.7h0Zm-2.9-3c-.8.9-1.7,1.9-2.5,2.8.7-1.1,1.3-2.3,1.8-3.5.2.3.4.5.7.7h0Zm-11.5,12c-1.4,1.4-2.9,2.9-4.4,4.3-.5-.4-1-.8-1.5-1.2h0c2.1-.9,4.1-1.9,5.9-3.1h0Zm-31.4.8l-6.1,5.7c-1.2,1-2.3,2.1-3.4,3.2,0-1-.1-2-.1-3,1-.8,1.9-1.7,2.8-2.7,1.4-1.4,2.9-2.9,4.2-4.4.2-.2.3-.5.3-.8.8.7,1.7,1.3,2.6,1.9-.2-.1-.3,0-.3.1h0Zm-9.5,12.2c.1-.1.2-.1.3-.2,3.3-3.7,7.1-7.1,10.7-10.5.2-.2.3-.4.3-.7,1,.6,2.1,1.1,3.2,1.6-5.2,4-10,8.4-14.5,13.2v-3.4Zm5.4-14.9c-1.4,1.5-2.8,2.9-4.3,4.4-.4.4-.9.8-1.4,1.2,0-.5-.1-1.1-.1-1.6,0-.3-.1-.6-.4-.8.5-.4.9-.9,1.3-1.3,1-1,2-2,2.9-3,.8-.9-.6-2.3-1.4-1.3-1,1-1.9,2-2.9,3-.8.7-1.5,1.4-2.2,2.3h-2.8c1.2-.9,2.3-2,3.3-3.2,1.4-1.5,2.7-3,4-4.5.1-.1.1-.2.2-.3.9,1.3,1.9,2.5,3.1,3.6.4.4.8.8,1.3,1.2-.2,0-.4.1-.6.3h0Zm-5.2-6.1c-1.3,1.4-2.5,2.8-3.9,4.2-1.2,1.2-2.9,2.4-3.6,3.9-.1.3-.1.5,0,.8h-3.6c3-3.8,6.8-7.1,10.2-10.5.3-.2.3-.6.2-.9.4.7.8,1.5,1.3,2.2-.2,0-.4.1-.6.3h0Zm-2.1-2.8c-2.3,2.2-4.6,4.4-6.9,6.7-1.4,1.4-3.5,2.8-3.4,4.9v.2c-1.4.1-2.8.1-4.1,0,5.1-4.6,10-9.4,14.5-14.4h0c.4,1,.8,1.9,1.3,2.9-.2-.4-.8-.6-1.2-.3-.1-.1-.2-.1-.2,0h0Zm50.1-16.4c1.1,9.4-3.6,19.4-12.2,23.7-8.9,4.4-20.4,3-27.5-4.2-8.3-8.4-7.8-20.7-1.6-30.1.1-.2.4-.4.6-.5,5.1-7.1,14.6-10.4,23.3-8.2,9.2,2.2,16.2,9.9,17.4,19.3h0Zm-10.3,19.3c-6.8,5.3-16.9,5.6-24.1,1-4.9-3.1-8.2-8.1-9.1-13.8-.5-4.2.2-8.5,2.1-12.4,4.4-7.1,11.6-12.1,20.3-11.3,8.1.8,15.7,6.4,17.9,14.4,2,7.9-.7,17-7.1,22.1Zm5.2,2.6c-4.7,4.3-10.6,7-16.9,7.7-5.7.7-11.7-1.7-16.3-5-8.8-6.3-12.9-17.3-10.2-27.8.6-2.1,1.5-4.1,2.5-6,.2-.4.5-.8.7-1.2.1-.1.1-.2.1-.3,3.5-5.9,9.2-10.2,15.9-11.9,11.5-2.7,23.5,2.6,29.2,13,5.8,10.4,3.7,23.4-5,31.5h0Z"/>
    </g>
  </g>
</svg>