<?xml version="1.0" encoding="utf-8"?>
<!-- Generator: Adobe Illustrator 27.4.0, SVG Export Plug-In . SVG Version: 6.00 Build 0)  -->
<svg version="1.1" id="Capa_1" xmlns="http://www.w3.org/2000/svg" xmlns:xlink="http://www.w3.org/1999/xlink" x="0px" y="0px"
	 viewBox="0 0 258 157" style="enable-background:new 0 0 258 157;" xml:space="preserve">
<style type="text/css">
	.st0{fill:#FFFFFF;}
	.st1{fill:#248F8D;}
	.st2{fill:#B5B5B5;}
	.st3{fill:#999999;}
	.st4{fill:none;stroke:#999999;stroke-width:1.984;stroke-miterlimit:10;}
</style>
<g id="Grupo_4442" transform="translate(-809 -1566)">
	<rect id="Rectángulo_996" x="809" y="1566" class="st0" width="258" height="157"/>
	<g id="Grupo_4431">
		<path id="Trazado_8195" d="M966.3,1696.6c0.7,0,1.3,0,2,0c0.8,0,1.5,0.7,1.4,1.5c0,0,0,0,0,0c0.1,0.8-0.4,1.6-1.3,1.7
			c-0.1,0-0.1,0-0.2,0c-1.4,0.1-2.7,0.1-4.1,0c-0.8,0-1.5-0.7-1.4-1.5c0-0.1,0-0.1,0-0.2c0-0.8,0.6-1.5,1.5-1.5c0,0,0,0,0,0
			C965,1696.6,965.7,1696.6,966.3,1696.6z"/>
		<g id="Grupo_4430">
			<path id="Trazado_8193" class="st1" d="M975.8,1647.7c-2.3-0.3-2.6-0.6-2.6-2.8c0-2.3,0-4.5,0-6.8c0-1.4,0.5-2,1.9-2
				c1.2,0,2.3,0,3.5,0c0.4-0.1,0.8-0.3,0.9-0.7c1.5-6,7.6-9.7,13.6-8.2c0.4,0.1,0.9,0.2,1.3,0.4c0.1,0,0.3,0,0.4,0v-6.8
				c-3.9,2-7.4,1.5-10.5-1.6c-1.5,1.8-3.7,2.8-6,2.8c-2.4,0-4.6-1-6.1-2.9c-1.5,1.8-3.8,2.8-6.1,2.9c-2.3,0-4.5-1-6-2.8
				c-4,4.1-9.2,3.4-12.2,0c-3,3.1-6.5,3.7-10.5,1.6v9c0,14.9,0,29.9,0,44.8c0,0.4,0,0.8,0,1.2c-0.1,0.9-0.8,1.5-1.7,1.5c0,0,0,0,0,0
				c-0.8,0-1.5-0.6-1.6-1.4c0,0,0-0.1,0-0.1c-0.1-0.7,0-1.3,0-2c0-24.1,0-48.1,0-72.2c0-3.8,1.8-6.4,5.1-7.2
				c0.7-0.2,1.5-0.2,2.2-0.2c16.5,0,33,0,49.5-0.1c3.9-0.2,7.3,2.9,7.4,6.8c0,0.2,0,0.4,0,0.6c-0.1,8.2,0,16.5,0,24.7v1.6
				c0.7-0.2,1.3-0.4,1.9-0.5c5.8-1.3,11.5,2.2,13.1,7.9c0.1,0.7,0.6,1.2,1.3,1.1c0,0,0.1,0,0.1,0c2.4,0,2.8,0.4,2.8,2.8
				c0,1.9,0,3.8,0,5.7c0,2.4-0.2,2.7-2.6,3.1v1.3c0,5,0,9.9,0,14.9c0,2.1-0.4,2.6-2.6,2.6c-4.2,0-8.5,0-12.7,0c-0.4,0-0.8,0-1.3,0.1
				v1.3c0,10.1,0,20.3,0,30.4c0,3-1,5.4-3.8,6.8c-1,0.5-2.1,0.7-3.2,0.7c-16.7,0-33.4,0.1-50.1,0c-3.7,0.2-6.8-2.6-7-6.3
				c0-0.1,0-0.3,0-0.4c-0.1-5.7,0-11.4,0-17.1c0-1.2,0.6-1.9,1.6-1.9c1,0,1.7,0.7,1.7,2c0,2.6,0,5.1,0,7.7c0,0.3,0,0.5,0,0.9h57.4
				v-24.1c-1.5,0-2.9,0-4.3,0c-1.3,0-2.1-0.7-2.1-1.7c0-1,0.8-1.6,2.1-1.6c6.5,0,13,0,19.6,0h1.3v-6.2h-32.2v6.2c1.1,0,2.2,0,3.3,0
				c0.4,0,0.9,0,1.3,0c0.9,0,1.5,0.8,1.5,1.6c0,0,0,0,0,0c0.1,0.8-0.5,1.5-1.3,1.6c-0.1,0-0.1,0-0.2,0c-2.2,0.1-4.3,0.1-6.5,0
				c-1.1,0-1.5-0.8-1.5-2.1c0-4.8,0-9.6,0-14.3C975.8,1649.3,975.8,1648.5,975.8,1647.7z M937.4,1694.2c0,1.8-0.1,3.6,0,5.4
				c0.2,2,1.8,3,4.3,3c16.3,0,32.6,0,48.9,0c0.5,0,1.1,0,1.6-0.1c1.4-0.3,2.5-1.4,2.7-2.9c0.1-1.8,0-3.6,0-5.4L937.4,1694.2z
				 M937.5,1601.7h57.4c0.2-2.7-1.2-4.4-3.8-4.4c-16.6,0-33.3,0-49.9,0C938.6,1597.3,937.2,1599,937.5,1601.7L937.5,1601.7z
				 M979.2,1647.7c0,1.6,0.1,3.1,0,4.6c-0.1,1.1,0.3,1.4,1.4,1.4c9.9,0,19.8,0,29.7,0c0.4,0,0.8,0,1.2-0.1v-5.8L979.2,1647.7z
				 M976.6,1639.5v4.7h37.4v-4.7H976.6z M937.4,1610.8h8.8v-5.7h-8.8V1610.8z M958.3,1610.9v-5.7h-8.7v5.7L958.3,1610.9z
				 M974,1610.8h8.7v-5.7H974V1610.8z M986.1,1610.8h8.8v-5.6h-8.8V1610.8z M961.8,1610.8h8.7v-5.7h-8.7V1610.8z M982.8,1614.3H974
				c-0.1,2.3,1.7,4.3,4,4.4c0,0,0,0,0,0c2.4,0.2,4.5-1.7,4.7-4.1C982.8,1614.6,982.8,1614.5,982.8,1614.3L982.8,1614.3z
				 M958.3,1614.3h-8.6c-0.1,2.4,1.8,4.4,4.1,4.4c0.1,0,0.3,0,0.4,0c2.3,0,4.2-2,4.1-4.3C958.3,1614.4,958.3,1614.4,958.3,1614.3
				L958.3,1614.3z M970.4,1614.3h-8.5c-0.2,2.3,1.5,4.2,3.8,4.4c0.1,0,0.3,0,0.4,0c2.3,0.1,4.2-1.7,4.4-4
				C970.4,1614.7,970.4,1614.5,970.4,1614.3L970.4,1614.3z M994.8,1614.4h-8.7c0,2.5,2,4.4,4.5,4.4c0.1,0,0.2,0,0.3,0
				C993.2,1618.7,995,1616.7,994.8,1614.4C994.8,1614.4,994.8,1614.4,994.8,1614.4L994.8,1614.4z M937.5,1614.3
				c-0.2,2.3,1.6,4.3,3.9,4.5c0.1,0,0.2,0,0.4,0c2.4,0,4.3-1.9,4.3-4.2c0-0.1,0-0.2,0-0.3H937.5L937.5,1614.3z M1010,1636.1
				c-0.8-4.2-5.8-7-9.5-5.4c1.8,1.1,3.2,2.9,3.8,4.9c0.1,0.3,0.4,0.4,0.7,0.5C1006.6,1636.1,1008.3,1636.1,1010,1636.1L1010,1636.1z
				 M983.1,1636.1c0.9,0,1.9-0.1,2.8,0c1.5,0.1,2.8,0,3-1.8c0-0.2,0.1-0.4,0.3-0.5c1-1.1,2-2.3,3-3.4
				C988.2,1629.5,983.7,1632.1,983.1,1636.1L983.1,1636.1z M991.9,1636h8.9c-0.7-1.8-2.5-3.1-4.5-3
				C994.3,1632.9,992.6,1634.1,991.9,1636L991.9,1636z"/>
			<path id="Trazado_8194" class="st2" d="M960.7,1662.7c1,0,1.9,0,2.7,0c1.8,0.1,2.5,1.4,1.5,2.9c-2.8,4.1-5.6,8.1-8.5,12.1
				c-0.9,1.3-2.2,1.3-3.1,0c-2.8-4-5.7-8.1-8.4-12.1c-1-1.4-0.3-2.7,1.4-2.8c0.9,0,1.8,0,2.8,0v-1.5c0-7.5,0-14.9,0-22.4
				c0-2.1,0.5-2.6,2.6-2.6c2.2,0,4.4,0,6.6,0c1.9,0,2.4,0.5,2.4,2.3c0,7.6,0,15.1,0,22.7L960.7,1662.7z M952.6,1639.6v23h4.8v-23
				H952.6z M949.4,1666.1l5.6,8l5.6-8H949.4z"/>
			<g id="Grupo_3334" transform="translate(627.156 1267.573)">
				<path id="Trazado_8257" class="st3" d="M269.9,438.3c-4.5,0-9.1,0-13.6,0c-3.7,0-5.5-1.8-5.5-5.5c0-6,0-11.9,0-17.9
					c0-3.6,1.8-5.5,5.5-5.5c9,0,18,0,27,0c3.7,0,5.5,1.8,5.5,5.5c0,6,0,12.1,0,18.1c0,3.6-1.8,5.3-5.4,5.3
					C279,438.4,274.5,438.3,269.9,438.3z M269.9,411.6c-4.5,0-8.9,0-13.4,0c-2.6,0-3.4,0.8-3.5,3.4c0,6,0,11.9,0,17.9
					c0,2.5,0.9,3.4,3.4,3.4c9,0,18,0,27,0c2.5,0,3.4-0.9,3.4-3.4c0-5.9,0-11.8,0-17.7c0-2.7-0.8-3.5-3.5-3.5
					C278.8,411.6,274.4,411.6,269.9,411.6z"/>
				<path id="Trazado_8258" class="st3" d="M265,423.7c-3-2.6-5.8-5.1-8.5-7.7c-0.5-0.5-0.5-1.5-0.7-2.2c0.7,0.1,1.5,0.3,2.1,0.7
					c4,3.5,8,7,12.1,10.7c2.9-2.6,5.7-5.1,8.6-7.6c1.3-1.1,2.5-2.3,3.8-3.3c0.4-0.3,1.2-0.3,1.8-0.4c-0.2,0.7-0.1,1.6-0.5,1.9
					c-2.8,2.6-5.7,5.1-8.3,7.5c2,2.1,3.9,4.2,5.8,6.3c0.8,0.8,1.7,1.4,2.4,2.3c0.4,0.7,0.6,1.4,0.8,2.1c-0.7-0.2-1.6-0.1-2.1-0.6
					c-2.9-2.6-5.8-5.4-8.7-8.1c-1.2,0.8-2.3,2.2-3.5,2.2c-1.1,0-2.2-1.3-3.4-2.1l-7.7,7.1c-0.3,0.4-0.7,0.7-1.2,1
					c-0.6,0.2-1.3,0.4-2,0.5c0.2-0.7,0.1-1.5,0.5-2c2.3-2.3,4.7-4.5,7.1-6.7C263.8,424.8,264.3,424.3,265,423.7z"/>
			</g>
			<g id="Grupo_3335" transform="translate(758.957 1288.495)">
				<path id="Trazado_8259" class="st3" d="M151.9,322.4c-1.4-3.3-4.4-5.3-7.2-7.6c2.7-0.9,4.3,0.7,5.8,2.3c4.8,5.1,7.2,11.4,8.7,18
					c3.1,13.5-0.3,25.5-9.6,35.6c-5.7,6.2-13.2,9.2-21.8,7.8c-7.6-1.2-14.4-5.1-19.4-10.9c-8.9-10-10-21.5-6.3-33.9
					c2-7.3,6.4-13.8,12.6-18.2c1.2-0.7,2.6-1,4-1c-9.4,6-14.6,14.5-16.4,25.2c-1.8,10.9,1,20.3,9.3,28.4c2-2.7,4.1-5.2,5.8-8
					c0.5-0.9,0.3-2.4,0-3.6c-0.2-1-1.1-1.7-2.1-1.5c-0.1,0-0.2,0-0.3,0.1c-0.2,0-0.4,0.1-0.6,0.1c-4.6,0.6-6.6-1.6-5.6-6.2
					c0.7-3.3,2.8-5.6,6.1-5.9c3.1-0.2,6.3-0.1,9.4,0.3c2.2,0.3,3.6,2,4.2,4.2c1.2,4.3,0.9,8.4-1.6,12.3c-2.7,4.1-3.4,8.9-4.3,13.6
					c-0.2,1,0.3,1.4,1.3,1.8c6.6,2.3,13,1.9,19-1.8c3.3-2.1,6.2-4.9,8.5-8.1c3.8-5.1,5.8-11,6.8-17.2c0.1-1.1,0.1-2.1,0-3.2
					c-1.3,0.9-2.3,2.1-3.4,2.2c-1.1,0.1-2.2-1-3.7-1.7c-0.4,1.7-0.6,3.4-1.1,5c-0.5,1.9-1.1,3.8-1.8,5.7c-0.6,1.4-1.9,2.7-3.5,2.2
					c-1.5-0.4-2.8-1.3-3.7-2.6c-0.7-1.5-0.9-3.2-0.6-4.8c0.2-2.3,1.1-4.5,1.3-6.8c0.4-2.9-0.5-3.7-3.3-3.5c-4.1,0.2-6.7-2.5-7.3-7.5
					c-0.1-1-0.1-1.9-0.1-2.9c0-3.6,1.2-5.1,4.4-6.6c1.5-0.7,2.6-2.1,4-2.9c1.2-0.8,2.5-1.2,3.9-1.3c1.5,0.2,2.9,0.6,4.2,1.3
					c1.4,0.6,2.6,1.4,3.9,2.1L151.9,322.4z M142,351.6c0,2.9,1,4.5,2.6,4.6c2,0.2,2.5-1.3,3-2.8c0.3-1.1,0.6-2.1,0.8-3.2
					c0.4-1.5,0.6-3.1,1.1-4.5c0.8-2.6,2.2-2.9,4.4-1.3c0.4,0.3,0.9,0.5,1.4,0.6c1.1-1.7,3.2-3.6,2.9-5.1c-0.8-4.7-2.5-9.3-3.9-14
					c-0.1-0.4-0.8-0.8-1.3-1c-1.9-0.8-3.8-1.5-5.6-2.3c-0.8-0.5-1.6-0.8-2.5-1.1c-1.5-0.2-3.1-0.7-4.5,0.9c-1,1.2-2.2,2.1-3.5,2.8
					c-3.5,1.6-4.6,3.4-3.7,7.2c0.2,1,0.5,2,0.8,3c1,2.8,1.7,3.4,4.7,3c1.9-0.2,3.7,0.1,4.4,2c0.6,1.5,0.8,3.2,0.6,4.9
					C143.1,347.4,142.6,349.5,142,351.6L142,351.6z M120.5,374.5c0.3-1.5,0.5-2.3,0.6-3.2c0.5-4.3,1.9-8.4,4.1-12
					c2.1-3.3,2.2-6.7,1.6-10.3c-0.1-1.8-1.6-3.3-3.4-3.5c-2.8-0.3-5.7-0.3-8.5-0.1c-2.4,0.2-4.3,2-4.6,4.4c-0.6,3.2,0.8,4.5,3.6,3.6
					c2.6-0.8,4.2,0.3,5.1,2.9c1,3-0.1,5.6-2,7.9c-1.1,1.4-2.2,2.7-3.2,4.1c-0.3,0.4-0.3,1.5-0.1,1.7
					C115.8,371.4,118,372.8,120.5,374.5L120.5,374.5z"/>
				<path id="Trazado_8260" class="st1" d="M109,332.8c0.2-2.9,0.3-5,0.5-6.9c0.2-1.6,1.6-2.4,2.8-1.3c2.5,2.3,4.8,1.4,7.2,0.1
					c2.4-1.2,4.5-0.9,6,1.2c2.4,3.3,3.5,7.4,3.1,11.6c-0.1,1.4-1.3,2.4-2.7,2.3c-0.4,0-0.7-0.1-1.1-0.3c-1.1-0.5-2.1-1.1-3-1.8
					c-1.1-0.9-2.6-1-3.7-0.1c-1,0.7-2.1,1.2-3.3,1.6c-2.1,0.8-3.8,0.1-4.6-1.9C109.7,335.8,109.3,334.3,109,332.8z M110.9,326.4
					c-0.1,2.8-0.1,5.6,0.1,8.3c0.3,2.7,2.1,3.6,4.5,2c3.3-2.2,6.3-2.4,9.3,0.3c0,0,0.1,0.1,0.2,0.1c1.4,0.7,2.3,0.2,2.1-1.3
					c-0.4-2.6-1.1-5.2-2-7.6c-1-2.4-2.6-2.7-5.1-1.6c-2.7,1.3-5.3,2.6-7.9-0.2C111.8,326.5,111.7,326.5,110.9,326.4L110.9,326.4z"/>
				<path id="Trazado_8261" class="st4" d="M111.4,319.6c0,0,18-17.6,39.5-1"/>
			</g>
		</g>
	</g>
</g>
</svg>
