<?xml version="1.0" encoding="UTF-8"?>
<svg id="Capa_1" data-name="Capa 1" xmlns="http://www.w3.org/2000/svg" viewBox="0 0 254 177">
  <defs>
    <style>
      .cls-1 {
        fill: #fff;
      }

      .cls-2 {
        fill: #999;
      }

      .cls-3 {
        fill: #248f8d;
      }
    </style>
  </defs>
  <g id="Grupo_4435" data-name="Grupo 4435">
    <rect id="Rectángulo_991" data-name="Rectángulo 991" class="cls-1" width="254" height="177"/>
    <g id="Grupo_3337" data-name="Grupo 3337">
      <path id="Trazado_8280" data-name="Trazado 8280" class="cls-2" d="m195.12,154.75c-5.38.34-10.76.73-16.14,1.02-.89.05-2.37-.11-2.6-.62-1.49-3.27-2.7-6.67-4.06-10.16l23.34-.85v-1.09c-1.39,0-2.78-.04-4.18,0-6.14.2-12.27.5-18.41.6-1.21.01-2.39-.41-3.31-1.2-3.71-3.76-8.54-6.21-13.76-6.99-3.94-.54-7.91-.85-11.89-.96-1.61-.08-2.18-.62-2.16-2.22.06-6.31-.02-12.62.11-18.93.12-1,.67-1.9,1.52-2.45,3.05-1.57,5.54-4.05,7.12-7.1,1.08-2.21,2.5-2.75,4.69-2.59,1.15,0,2.29-.1,3.42-.3l-.11-.94h-5.82c.4-2.15.79-3.99,1.08-5.85.44-2.85,3.39-.73,4.67-2.41-.49-.17-1.01-.27-1.53-.29-2.37.33-2.86-.72-2.48-2.88.25-1.73.32-3.47.22-5.21-.36-13.11-.79-26.21-1.13-39.32-.15-1.22.07-2.46.63-3.55,4.14-5.58,8.46-11.03,12.72-16.52.27-.35.49-.74,1.13-1.72l-11.39,1.49,5.2-6.16-.34-.63-29.9.76-.21-.39,5.01-3.15-.18-.65c-.85-.05-1.71-.09-2.56-.14-12.67-.68-25.01,2.83-37.65,3-4.9.06-9.86,1.37-14.66,2.6-14.12,3.61-22.8,12.64-25.84,26.94-1.65,7.78-1.6,15.66-.9,23.54.99,11.06,1.96,22.12,3.07,33.17.18,1.27.78,2.44,1.69,3.33,4.47,4.35,8.12,9.47,10.76,15.12.38.93.69,1.89.93,2.87-1.95.47-4.01.39-5.08,1.37-1.15,1.06-1.36,3.12-1.98,4.75-.33.76-.61,1.54-.82,2.35-.34,1.6-1.26,2.01-2.84,2.03-5.88.07-11.77.36-17.65.38-.14,0-.27-.02-.41-.05-1,0-1.99.06-2.97.15,0,.02.02.04.03.05-3.42.93-6.65,1.8-10.15,2.75-.11.1-.25.16-.39.16h-.13c-.32.17-.64.34-.95.53-.33.21-.69.37-1.07.46-.2.16-.41.29-.64.39-5.8,2.44-10.47,6.97-13.1,12.69-.06.12-.14.24-.23.34-.1.41-.23.81-.39,1.2-.06.15-.1.31-.15.46-.04.57-.12,1.14-.23,1.7-.07.35-.16.71-.26,1.05-.04.69-.19,1.37-.45,2.01-.13.55-.19,1.11-.17,1.68l.79.3c.33-.61.57-1.25.72-1.92.46-6.05,3.62-11.58,8.6-15.05,4.56-3.21,9.75-5.42,15.22-6.48,8.32-1.87,16.76-1.78,25.25-1.68,22,.26,44,.09,66,.18,8.46.03,16.94.02,25.37.56,6.24.21,12.1,3.05,16.14,7.82,3.57,4.26,5.3,9.31,6.27,14.69.23.69.55,1.34.95,1.93l.6-.35c-.29-3.23-.29-3.19,3.17-3.38,4.64-.26,9.27-.56,13.9-.9.76-.14,1.51-.36,2.22-.67-.3-.44-.79-.69-1.32-.69ZM58.73,97.44c-.56-8.35-1.44-16.69-2.3-25.02-1.07-10.3-1.35-20.51,1.81-30.56,3.74-11.88,12.13-18.68,23.84-21.74,3.92-1.02,7.95-1.64,11.96-2.3.71-.12,1.52.49,2.3.65.79.24,1.62.32,2.44.22,10.01-2.4,20.24-3.75,30.52-4.03.8-.03,1.61,0,2.41,0l.21.61-4.75,3.75.17.56c5.19-.34,10.37-.82,15.56-.98,5.28-.17,10.57-.04,16.61-.04l-6.05,6.49.29.57,10.71-1.63c-2.8,3.78-5.18,7.12-7.69,10.36-4.12,5.43-6.95,11.73-8.27,18.41-2.2,10.17-8.97,15.24-19.42,15.49-3.81,0-7.61.3-11.36.91-6.6,1.24-9.3,7.31-6,12.57.41.99.48,2.08.21,3.11-1.17,7.02-5.54,13.09-11.82,16.43-10.73,6.05-22.23,7.95-34.34,4.82-.16-.04-.33-.06-.49-.11-6.13-1.89-6.14-2.22-6.56-8.56Zm4.07,9.87c-.09-.1-.05-.31-.12-.85,10.46,3.87,20.64,2.8,30.64-.59,10.17-3.45,17.77-9.59,19.88-20.84.12-.36.27-.7.46-1.02,3.25,1.12,6.43,2.55,9.88,1.54.03-.23.07-.46.1-.69-.63-.09-1.27-.15-1.88-.28-2.11-.35-4.19-.85-6.24-1.48-2.75-1.02-3.74-3.39-3.73-6.18-.18-2.52,1.43-4.83,3.86-5.53,3.18-.86,6.42-1.48,9.69-1.85,3.44-.46,6.97-.34,10.36-.97,6.58-1.23,10.55-5.61,12.74-11.71,1.25-3.49,2.28-7.05,3.57-11.1.21.55.38,1.12.48,1.7.38,12.2.79,24.39,1.08,36.58.15,6.28-.62,12.43-3.45,18.15-2.08,4.43-6.02,7.71-10.75,8.96-3.27.92-6.6,1.59-9.9,2.39-5.28,1.28-10.02,3.18-11.36,9.34-.13.6-1.44,1.31-2.22,1.33-2.73.09-5.47-.16-8.21-.16-10.96-.02-21.91.03-32.87-.02-.74,0-1.91-.44-2.14-.99-2.4-5.76-5.74-11.07-9.87-15.74h0Zm1.21,27.1c1.09-2.95,1.9-5.45,2.99-7.82.26-.56,1.5-.93,2.29-.95,8.95-.21,17.91-.4,26.86-.46,8.21-.06,16.43.01,24.64.1.86-.03,1.7.3,2.32.9,1.65,2.45,3.08,5.06,4.96,8.23h-64.06Zm66.9-.12l-.77.21c-.53-.55-1.01-1.14-1.46-1.76-.93-1.46-1.76-2.99-2.68-4.46-1.47-2.36-2.24-5.7-6.22-4.29-.43-4.81,4.5-8.76,11.13-9.14v19.43Zm7.75.2c-6.23.24-6.26.28-6.18-6.01.05-4.14.1-8.28.36-12.41.21-.94.85-1.72,1.72-2.12,2-.63,4.03-1.14,6.09-1.53v5.11c0,4.97-.05,9.94,0,14.91.01,1.48-.49,2-2.01,2.05h0Z"/>
      <path id="Trazado_8281" data-name="Trazado 8281" class="cls-2" d="m232.96,135.6c0-.92.06-1.84-.01-2.76.02-1.81-.2-3.61-.67-5.37-.62-1.05-1.71-1.72-2.93-1.8-1.52.06-2.57,1.12-2.42,3.08.2,2.57.05,5.17.05,7.76l-.75.08c-.12-.78-.27-1.56-.35-2.34-.22-2.3-.3-4.63-.64-6.91-.23-1.58-1.02-2.92-2.96-2.63-1.87.28-3.3,1.08-3.23,3.35.08,2.49.07,4.98.1,7.46,0,.62,0,1.24,0,1.86l-.78.14c-.25-.81-.42-1.65-.52-2.49-.19-5.88-.26-11.77-.52-17.65-.06-1.57-.44-3.11-1.11-4.53-.53-.96-1.49-1.62-2.58-1.77-1.09.21-1.99.97-2.39,2-.34,3.44-.46,6.9-.35,10.36.35,11.76.85,23.51,1.24,35.26-.08.68-.27,1.35-.54,1.97l-.73-.17c0-.71-.06-1.42.01-2.12,1.11-11.32-.68-22.51-1.46-33.75-.2-2.81-.16-5.63-.09-8.45.08-3.53,1.08-6.46,5.35-6.78,0-5.79.01-11.42,0-17.05,0-1.64-1.21-1.48-2.3-1.45-6.72.21-13.44.42-20.15.63-1.03.03-2.06,0-3.09,0l-.12-.79c.84-.26,1.71-.44,2.58-.54,7.38-.24,14.76-.38,22.14-.66,1.92-.07,2.44.69,2.39,2.47-.09,3.73-.05,7.47-.01,11.2.03,3.35.12,6.54,1.54,9.86,1.38,3.22,1.24,7.09,1.79,10.83,1.14-.16,2.83-.94,3.61-.4,2.56,1.77,5.14,1.3,7.83.91.25-.04.51.04.7.2,1.55,1.85,3.52,2.01,5.82,1.99,1.99-.02,2.55,2.02,2.59,3.69.18,8.37.25,16.74.32,25.11,0,1.41-.08,2.82-.27,4.22-.05.41-.58.75-1.01,1.27,0-9.04.02-17.64-.02-26.24.06-1.66-.13-3.31-.56-4.92-.42-.95-1.26-1.65-2.28-1.88-1.44-.15-2.09.89-1.96,2.47.14,1.75.03,3.52.03,5.28l-1.29-.02Z"/>
      <path id="Trazado_8282" data-name="Trazado 8282" class="cls-2" d="m205.37,160.28c0-15.34,0-30.68,0-46.02,0-4.32-.17-8.63-.14-12.94.01-2.04-.84-2.49-2.74-2.3-3.63.37-7.28.51-10.92.72-.77.06-1.53-.21-2.1-.73.45-.21.92-.37,1.4-.46,4.39-.31,8.78-.52,13.15-.9,1.9-.17,2.51.55,2.51,2.35,0,5.98.12,11.95.12,17.92,0,13.53-.05,27.05-.13,40.58-.12.78-.36,1.53-.69,2.24l-.45-.44Z"/>
      <path id="Trazado_8283" data-name="Trazado 8283" class="cls-3" d="m173.98,86.94c3.31,0,6.63.14,9.93-.05,2.02-.12,2.67.77,2.76,2.52.18,3.88.3,7.77.58,11.65.12,1.75-.68,2.44-2.22,2.51-4.13.19-8.26.35-12.39.48-3.06.09-6.12.05-9.18.2-1.61.08-2.24-.52-2.28-2.11-.11-4.3-.27-8.6-.48-12.9-.08-1.62.79-2,2.12-2,3.72,0,7.45,0,11.17,0v-.31Zm-11.8,15.69c6.04,0,11.33.02,16.63-.01,1.66,0,3.31-.2,4.97-.24s2.08-.88,1.96-2.42c-.17-2.23-.15-4.48-.23-6.71-.18-5.17-.18-5.12-5.34-4.99-5.31.14-10.62.11-15.92.27-.7.02-1.97.72-1.98,1.13-.15,4.28-.09,8.56-.09,12.96h0Z"/>
      <path id="Trazado_8284" data-name="Trazado 8284" class="cls-3" d="m163.61,115.69l3.39-2.86c.28.38.37.5.36.51-2.7,2.41-2.31,5.63-2.63,8.8-.36,3.54-3.81,6.19-7.48,6.49-3.56.28-7.54-2.03-8.67-5.03-1.27-3.54-.06-7.5,2.97-9.73,2.85-2.37,6.98-2.38,9.85-.02.72.54,1.38,1.16,2.2,1.85Zm-1.27,1.13c-2.79-3.41-6.41-4.18-9.47-2.12-3.1,2.08-4.34,6.05-2.78,8.87,1.93,3.15,5.87,4.44,9.29,3.04,3.46-1.46,4.9-4.51,3.62-8.33-1.96,1.84-3.76,3.61-5.66,5.26-.54.47-1.68,1.05-2,.82-1.74-1.24-3.31-2.71-4.93-4.11l.84-1.01c.74.77,1.56,1.46,2.44,2.06.86.48,2.33,1.14,2.82.77,2.03-1.65,3.98-3.4,5.83-5.26h0Z"/>
      <path id="Trazado_8285" data-name="Trazado 8285" class="cls-2" d="m195.45,119.58c-8.94,1.49-18.05.05-27,1.37l-.18-.87c.88-.28,1.78-.47,2.7-.59,6.13-.21,12.26-.34,18.39-.55,2-.07,4-.3,6-.46l.1,1.09Z"/>
      <path id="Trazado_8286" data-name="Trazado 8286" class="cls-2" d="m168.67,131.22l26.06-1.92.09,1.15-25.99,2.04-.16-1.27Z"/>
    </g>
  </g>
</svg>