<?xml version="1.0" encoding="utf-8"?>
<!-- Generator: Adobe Illustrator 27.4.0, SVG Export Plug-In . SVG Version: 6.00 Build 0)  -->
<svg version="1.1" id="Capa_1" xmlns="http://www.w3.org/2000/svg" xmlns:xlink="http://www.w3.org/1999/xlink" x="0px" y="0px"
	 viewBox="0 0 138.7 564.5" style="enable-background:new 0 0 138.7 564.5;" xml:space="preserve">
<style type="text/css">
	.st0{fill:#5F5C5D;}
	.st1{fill:#FFFFFF;}
	.st2{fill:#248F8D;}
</style>
<g id="Grupo_4601" transform="translate(-1358.32 -223.499)">
	<g id="Grupo_4565" transform="translate(1358.32 227.781)">
		<path id="Trazado_29556" class="st0" d="M59.1,0.9c-13-1-19.9,6.5-22.7,18.6c-1.5,6.7-1.6,13.8-1.7,20.6c-0.1,3.4-5.2,2.5-6.3,6.5
			C27.2,50,28.3,53.7,31,56c1.2,1,2.7,1.5,4.3,1.6c-0.3,0,0.3,10.2,0.5,11.1c3,15,16.1,21.1,30.7,19.6C79.8,87,84.7,74.4,85,62.7
			c0-1.2,7.3-2.5,8-6.1c0.7-4.1-0.7-7-4.1-9.2c-2.1-1.4-2.9,0.2-3-2.4c-0.1-3.5-0.1-7.1-0.2-10.6c0-6.5-0.9-13.1-2.4-19.4
			C80.2,3.5,71.5-1.4,60.1,0.3C58,0.6,58.9,3.8,61,3.5c24.6-3.6,21,28.7,21.8,44.5c0,0.9,0.7,1.6,1.6,1.6c5,7,4.7,10-1.1,8.9
			c-0.9,0-1.6,0.7-1.6,1.6c0.5,16.4-7.9,27.2-25.2,24.7C41.1,82.6,37.7,69.2,39,55.9c0-0.9-0.7-1.6-1.6-1.6c-7.7-1.8-8.1-4.8-1.1-9
			c0.9,0,1.6-0.7,1.6-1.6C38.3,28.2,37,2.5,59.1,4.2C61.2,4.4,61.2,1.1,59.1,0.9"/>
		<path id="Trazado_29557" class="st0" d="M52,88.8c-0.2,5-0.1,10.1,0.3,15.1c0.4-0.5,0.8-1.1,1.2-1.6c-2.8,0.8-5.2,2.5-8,3.4
			c-0.9,0.3-1.4,1.2-1.1,2.1c0.2,0.7,0.8,1.1,1.5,1.2c7.9,0.2,15.8,0.5,23.8,0.7c0.9,0,1.6-0.8,1.6-1.7c0-0.4-0.2-0.8-0.5-1.1
			c-3-2.5-5-4-9-4.3c0.6,0.5,1.1,1.1,1.6,1.6c0.2-5.7,0.4-11.7-1.7-17c-0.8-1.9-4-1.1-3.2,0.9c2.1,5.1,1.8,10.8,1.6,16.2
			c0,0.9,0.7,1.6,1.6,1.6c3,0.2,4.5,1.5,6.7,3.3c0.4-0.9,0.8-1.9,1.2-2.8c-7.9-0.2-15.8-0.5-23.8-0.7l0.4,3.2c2.8-0.9,5.2-2.5,8-3.4
			c0.7-0.2,1.2-0.8,1.2-1.6c-0.4-5-0.5-10.1-0.3-15.1C55.4,86.7,52.1,86.7,52,88.8"/>
		<path id="Trazado_29558" class="st0" d="M50.3,101.5c-17.8-1.5-22.6,26.2-26.5,38.6c-4.5,14.3-10.1,28.2-14.3,42.5
			c-2.4,8.1,4.3,12.2,9.5,17.3c0.8,0.8,2.6,0.6,2.7-0.7c2.5-17.2,9.5-33.5,16.4-49.4c-1-0.3-2-0.6-3.1-0.8
			c-0.6,23.7,0.7,47.4,0.9,71.1c0,0.9,0.7,1.6,1.6,1.6c15.4,0.3,30.8-1.1,46.2-1.5c0.9,0,1.6-0.7,1.6-1.6c2.4-23.2-4-46-2.3-69.2
			c-1.1,0.1-2.2,0.3-3.2,0.4c2.5,15.8,8.9,31.3,16.1,45.5c0.4,0.6,1.1,1,1.9,0.8c3.4-0.8,6.9-1.4,10.4-1.8c0.9,0,1.7-0.8,1.6-1.7
			c0-0.1,0-0.2,0-0.4c-4.4-22.1-14.6-42.8-21.5-64.2c-3.9-12-9.8-26.8-24.3-27.5c-2.1-0.1-2.1,3.2,0,3.3C79.6,104.5,84,125,87.7,137
			c5.8,18.9,15.1,36.6,18.9,56.1c0.5-0.7,1.1-1.4,1.6-2.1c-0.8,0.1-9.7,2.2-10.5,0.5c-2.5-4.9-4.7-10.1-6.7-15.2
			c-3.7-8.8-6.3-18-8-27.4c-0.3-1.9-3.1-1.3-3.2,0.4c-1.1,15.1,1.2,30,2.4,45c0.3,3.2,2.9,22.5-2.1,22.6c-8.3,0.2-16.7,0.8-25,1.2
			c-5.1,0.2-15.8,3.1-15.9-3.8c-0.1-7.3-0.3-14.6-0.5-21.9c-0.3-14.5-0.7-29-0.4-43.5c0-1.5-2.4-2.4-3.1-0.8
			c-7,16.1-14.1,32.7-16.7,50.2l2.8-0.7c-2.8-2.7-6.1-5.3-8.4-8.5c-2.4-3.3,1.2-10,2.3-13.2c4-11,7.4-22.3,11.3-33.4
			c3.9-11.2,7.7-39.1,23.8-37.7C52.5,104.9,52.4,101.7,50.3,101.5"/>
		<path id="Trazado_29559" class="st0" d="M56.4,135c0.4,9.4,0.3,18.8,1.3,28.1c0.2,2.1,3.5,2.1,3.3,0c-1.1-9.3-0.9-18.7-1.3-28.1
			C59.6,132.9,56.3,132.9,56.4,135"/>
		<path id="Trazado_29560" class="st0" d="M57.6,169.6c0.5,16.2,3.8,32.1,2.9,48.3c-0.1,2.1,3.2,2.1,3.3,0
			c0.9-16.2-2.4-32.2-2.9-48.3C60.8,167.5,57.5,167.5,57.6,169.6"/>
		<path id="Trazado_29561" class="st0" d="M10.1,192.3c-1.4,9.6-8.8,16.9-8.8,26.8c0,0.9,0.8,1.7,1.7,1.6c0.1,0,0.3,0,0.4-0.1
			c6.4-1.9,9.5-7.7,12.2-13.4c-1-0.1-2-0.3-3-0.4c0.7,2,1.7,3.8,2.9,5.5c0.5,0.8,1.5,1,2.3,0.5c0.3-0.2,0.6-0.5,0.7-0.9
			c1.5-4.8,1.8-9.8,1.9-14.8c0.1-2.1-3.2-2.1-3.3,0c-0.1,4.7-0.4,9.4-1.8,13.9c1-0.1,2-0.3,3-0.4c-1.1-1.5-1.9-3-2.6-4.7
			c-0.4-1.2-2.4-1.8-3-0.4c-2.2,4.8-4.7,10.3-10.2,11.9c0.7,0.5,1.4,1.1,2.1,1.6c0-9.5,7.3-16.7,8.6-25.9
			C13.6,191,10.4,190.2,10.1,192.3"/>
		<path id="Trazado_29562" class="st0" d="M98.8,196.1c0.7,1.3,0.3,4,0.4,5.5c0,2.1,0.2,4.3,0.5,6.4c0.2,0.7,0.8,1.2,1.6,1.2
			c0.5,0,1,0,1.4,0c0.7,0,1.4-0.5,1.6-1.2c0.4-1.7,0.9-3.4,1.6-5l-3.2-0.4c0.4,3.6,5.6,21.7,12,16.7c7.7-6-2.2-21.1-5.8-26.8
			c-1.1-1.8-4-0.1-2.8,1.7c3.4,5.4,7.9,12.3,7.9,18.9c0,1-0.6,4.4-2,3.2c-1.1-1-1.9-2.3-2.6-3.6c-1.8-3.1-3-6.5-3.4-10
			c0-0.9-0.8-1.6-1.7-1.6c-0.7,0-1.3,0.5-1.5,1.2c-0.7,1.6-1.2,3.3-1.6,5c0.5-0.4,1.1-0.8,1.6-1.2c-0.5,0-1,0-1.4,0
			c0.5,0.4,1.1,0.8,1.6,1.2c-0.7-3.9,0.6-9.1-1.2-12.7C100.7,192.6,97.8,194.2,98.8,196.1"/>
		<path id="Trazado_29563" class="st1" d="M50.4,101c-23.1,2.9-6.3,16.4-2.3,29.4c-3.6-0.1-5.8,2-8.7,2.6
			c8.3,11,14.4,24.9,20.5,37.3c1.4-23.7-3.7-46.2-8.8-68.6"/>
		<path id="Trazado_29564" class="st0" d="M50,99.4c-22.4,3.6-8.1,18-3.5,31.5c0.5-0.7,1.1-1.4,1.6-2.1c-3.4,0.4-5.9,1.6-9.2,2.7
			c-0.9,0.3-1.4,1.2-1.1,2.1c0,0.1,0.1,0.2,0.2,0.4c8.4,11.6,14.3,24.5,20.5,37.3c0.8,1.6,3,0.7,3.1-0.8c1.1-23.5-3.7-46.3-8.8-69.1
			c-0.5-2.1-3.6-1.2-3.2,0.9c5.1,22.5,9.8,45,8.7,68.2l3.1-0.8c-6.2-12.8-12.1-25.7-20.5-37.3c-0.3,0.8-0.7,1.6-1,2.4
			c2.4-0.8,6.4-2.4,8.3-2.6c0.9,0,1.7-0.8,1.6-1.7c0-0.1,0-0.3-0.1-0.4c-1.5-4-3.3-7.8-5.5-11.4c-1.5-2.5-2.8-5.1-3.8-7.8
			c-2.1-6.2,6.2-7.5,10.4-8.1C52.9,102.2,52,99,50,99.4"/>
		<path id="Trazado_29565" class="st1" d="M62.7,100.6c19.4,2,10.3,16.1,4.9,28.9c3.6,0.1,5.7,2.3,8.6,3.1
			c-6.8,10.6-10.1,24.2-16.2,35.5c-0.1-22.3,4.3-46.7,4.1-66.1"/>
		<path id="Trazado_29566" class="st0" d="M62.2,102.2c7.9,1.2,11.9,4.7,9.6,12.9c-1.3,4.7-3.8,9.1-5.7,13.6c-0.4,0.9-0.2,2.2,1,2.4
			c3.1,0.5,5.7,2,8.6,3.1c-0.3-0.8-0.7-1.6-1-2.4c-6.8,11.2-10.2,23.9-16.2,35.5l3.1,0.8c0.2-22.1,4-44,4.1-66.1
			c0-0.9-0.8-1.6-1.7-1.6c-0.9,0-1.6,0.7-1.6,1.6c-0.1,22.1-4,44-4.1,66.1c0,0.9,0.8,1.6,1.7,1.6c0.6,0,1.1-0.3,1.4-0.8
			c5.9-11.6,9.4-24.3,16.2-35.5c0.4-0.8,0.2-1.8-0.6-2.3c-0.1-0.1-0.2-0.1-0.3-0.1c-3.1-1.2-5.3-2.6-8.6-3.1c0.3,0.8,0.7,1.6,1,2.4
			c5.5-12.7,13.7-28.5-5.9-31.4C61,98.7,60.1,101.9,62.2,102.2"/>
		<path id="Trazado_29567" class="st0" d="M37.3,221c0.2,20.7,2.4,41.4,4.5,62c1.9,19.5,3,40.4,8.6,59.2c0.2,0.7,0.8,1.2,1.6,1.2
			c4.8-0.3,9.6-0.3,14.4-0.2c0.9,0,1.6-0.7,1.6-1.6c0.8-40.3-4.4-80.7-3.6-121.1c0-2.1-3.3-2.1-3.3,0c-0.4,24.6,0.8,49.2,1.9,73.8
			c0.5,11.1,1,22.2,1.4,33.3c0.1,3.4,0.2,6.8,0.3,10.3c0.1,3.3,0.7,2.1-2,2c-2-0.1-9.3,1.1-9.7-0.5c-5.4-19.6-6.5-41-8.4-61.2
			c-1.8-19-3.8-38.1-4-57.1C40.6,218.9,37.3,218.9,37.3,221"/>
		<path id="Trazado_29568" class="st0" d="M82,219.3c-0.6,22.6,0.1,45.3,0.4,67.9c0.2,12.5,0.3,25.1,0.4,37.6c0,4.2,0,8.5,0,12.7
			c0,5,1,3.9-7,2.6c-3.3-0.6-6.6-0.7-9.9-0.3c-2.1,0.3-1.2,3.5,0.9,3.2c6.1-0.9,11.9,1.4,18,0.5c0.7-0.2,1.2-0.8,1.2-1.6
			c1.1-40.9-1.8-81.9-0.7-122.8C85.4,217.2,82.1,217.2,82,219.3"/>
		<path id="Trazado_29569" class="st0" d="M51,344.1c-0.3,8.7-1.5,23.4,9.1,26.5c0.7,0.2,1.5-0.1,1.9-0.8c5.6-8.4,3.8-19.4,3.9-29
			c0-2.1-3.3-2.1-3.3,0c-0.2,9,1.8,19.5-3.5,27.4c0.6-0.3,1.2-0.5,1.9-0.8c-8.6-2.5-6.9-16.4-6.7-23.3C54.3,342,51,342,51,344.1"/>
		<path id="Trazado_29570" class="st0" d="M63.3,343.1c2,7.4,0.7,24.7,10.6,26.9c11.1,2.6,8.4-22,8.5-27.5c0-2.1-3.3-2.1-3.3,0
			c-0.1,3.6,1.3,27.8-5.7,23.8c-3.6-2-4.4-9.1-5-12.7c-0.7-3.8-0.8-7.7-1.9-11.4c-0.3-0.9-1.2-1.4-2.1-1.1
			C63.6,341.4,63.1,342.3,63.3,343.1"/>
		<path id="Trazado_29571" class="st2" d="M56.7,382.8c-15.7-4-10.6,18.4-7.2,25c6.1,12.4,8.8,19,8.4,33.4
			c2.3-6.4,5.4-12.8,6.3-19.2c-0.3,10.1,1.4,27.4,4.7,36.9c2.4-9.3,1.5-25.9,1.7-33.8c2,6.5,5.4,12.4,6.6,18.9
			c3.3-12.9,6.5-26.4,6.3-40.9c-0.4-12.3-11.4-30.6-26.1-19.5"/>
		<path id="Trazado_29572" class="st0" d="M57.1,381.2c-10.3-2-13.5,5.2-12.7,14.5c0.4,4.5,1.7,8.9,3.6,12.9
			c5.2,10.9,8.3,20.3,8.2,32.5c0,2,2.6,2.1,3.2,0.4c2.4-6.4,5-12.5,6.3-19.2c-1.1-0.1-2.2-0.3-3.2-0.4c-0.2,12.4,0.9,25.4,4.7,37.3
			c0.5,1.5,2.8,1.7,3.2,0c2.5-11.2,1.6-22.8,1.8-34.2l-3.2,0.4c2.2,6.4,5,12.4,6.6,18.9c0.3,0.9,1.2,1.4,2.1,1.1
			c0.5-0.2,1-0.6,1.1-1.1c4.1-16.3,10.2-36.2,3.6-52.6c-4.6-11.5-15.2-16.6-25.9-9.6c-1.8,1.2-0.1,4,1.7,2.8
			c13.6-8.9,22.7,5.9,23.6,18.1c1,13.5-2.9,27.5-6.2,40.4h3.2c-1.6-6.5-4.5-12.6-6.6-18.9c-0.3-0.9-1.2-1.4-2.1-1.1
			c-0.7,0.2-1.1,0.8-1.2,1.5c-0.2,11.1,0.8,22.4-1.7,33.3h3.2c-3.7-11.6-4.8-24.2-4.6-36.4c0-1.8-2.9-2.3-3.2-0.4
			c-1.3,6.7-3.9,12.9-6.3,19.2c1.1,0.1,2.2,0.3,3.2,0.4c0.1-11.4-2.3-20.9-7.2-31.2c-3.1-6.5-11-28.4,3.9-25.6
			C58.3,384.8,59.2,381.6,57.1,381.2"/>
		<path id="Trazado_29573" class="st0" d="M41.7,422.5c0.3,2.4,2.7,33.9,0.1,33.9c-4.4,0-8.5,3.2-11.6,6c-6.8,6.4-6.1,15,3,17.8
			c-0.3-0.8-0.7-1.6-1-2.4c-8.1,12.5-2.9,29.6,13.6,28.7c-0.4-0.9-0.8-1.9-1.2-2.8c-13.7,17,16.5,37.8,23.6,21.3c-1-0.1-2-0.3-3-0.4
			c5.7,18.7,37.4,4.8,26.4-12.1c-0.8,0.7-1.5,1.5-2.3,2.3c13.6,7.8,25-20.2,8.4-23.7c-1.8-0.4-3,2.1-1.3,3
			c12.7,7,24.8-26.6,0.8-26.1c-0.9,0-1.6,0.8-1.6,1.7c0,0.6,0.3,1.1,0.8,1.4c15.6,8.3,15.6-29.8-4.6-18.1c0.8,0.6,1.6,1.2,2.4,1.9
			c2.6-13.2,2.5-29.7-1.7-42.7c-0.6-2-3.8-1.2-3.2,0.9c3.9,12.3,4.2,28.4,1.7,40.9c-0.2,0.9,0.3,1.8,1.2,2c0.4,0.1,0.8,0,1.2-0.2
			c5.5-3.2,9.6-1.7,11.1,4.4c1.1,4.4-0.7,11.1-6.5,8c-0.3,1-0.6,2-0.8,3.1c19.7-0.4,7.8,23.8,0.9,20c-0.4,1-0.8,2-1.3,3
			c12.3,2.6,3.3,22.9-5.8,17.7c-1.4-0.8-3.2,0.8-2.2,2.3c8.6,13.1-16.1,23.4-20.4,9.6c-0.4-1.2-2.4-1.8-3-0.4
			c-5.2,11.9-29.3-3.9-18.5-17.3c0.8-1,0.4-2.9-1.2-2.8c-14.3,0.7-17.4-13.6-10.8-23.8c0.5-0.8,0.2-1.8-0.6-2.3
			c-0.1-0.1-0.2-0.1-0.4-0.2c-14.1-4.3,3.1-17.4,9.5-17.4c0.9,0,1.6-0.7,1.6-1.6c1-12.2,1.2-24.3-0.4-36.4
			C44.6,419.5,41.4,420.4,41.7,422.5"/>
		<path id="Trazado_29574" class="st0" d="M26.7,440.6c-0.5,3.4-0.8,6.7-1,10.1c-0.4,5.7-1.8,4.9-6.8,5.1c-3.8,0.2-8.4,2.2-10.6,5.4
			c-5.1,7.2-5.5,14.8,3.4,18.3c0.1-1.1,0.3-2.2,0.4-3.2c-13.5,0.1-17.2,22.9-3.3,25.5c-0.1-1-0.3-2-0.4-3
			c-15.9,7.3,4.2,33.2,15.9,21c1.2-1.3-0.4-3.7-2-2.6c-14.9,11,14.3,26.8,19.5,8.1c0.2-0.9-0.3-1.8-1.2-2c-0.8-0.2-1.7,0.3-2,1.1
			c-3.9,13.9-23.4,2.1-14.7-4.4c-0.7-0.9-1.3-1.7-2-2.6c-8.3,8.6-23.4-10.5-11.9-15.8c0.8-0.5,1-1.5,0.6-2.3c-0.2-0.4-0.6-0.6-1-0.7
			c-10.3-1.9-7.4-18.9,2.4-19c2,0,2.1-2.6,0.4-3.2c-11.6-4.6-0.3-15.3,4.4-16.9c2.9-1,7.2-0.4,10.2-0.3c0.9,0,1.6-0.7,1.6-1.6
			c0.1-5.4,0.5-10.7,1.1-16.1C30.2,439.4,27,438.5,26.7,440.6"/>
		<path id="Trazado_29575" class="st0" d="M40.1,525.9c-3.3,9.4,1.1,19.6,8.1,26.1c5.2,4.8,10.9,3.3,13.1-3.1
			c-1.1-0.1-2.2-0.3-3.2-0.4c0.9,13.6,22,16.3,26.2,3.3l-3,0.4c3.3,7.2,11.6-0.2,14.3-4c4.1-5.9,1-20.3-8.2-19
			c-1.4,0.2-1.4,1.9-0.7,2.7l0.5,0.7c0.6,0.6,1.7,0.6,2.3,0c1-0.9,1.9-2,2.5-3.2c1.1-1.8-1.8-3.5-2.8-1.7l-0.2,1.8
			c-0.2,0.9-0.5,1.8-0.7,2.8c4.8-0.7,6.4,8.9,5.7,11.7c-0.4,1.4-7.4,11.7-9.8,6.5c-0.6-1.4-2.6-0.8-3,0.4c-3,9.4-19.1,7.5-19.7-2.4
			c0-0.9-0.8-1.6-1.7-1.6c-0.7,0-1.3,0.5-1.5,1.2c-3.3,9.5-11.4-2.3-13.1-5.3c-2.9-4.8-3.6-10.6-1.8-15.9
			C43.9,524.8,40.8,523.9,40.1,525.9"/>
		<path id="Trazado_29576" class="st0" d="M99.6,509.8c4.2,12,30.3,11.3,24-2.8c-0.8,0.8-1.5,1.5-2.3,2.3c12.4,9.4,28-24.4,7.1-29.5
			v3.2c16.7-3.6,0.7-24.3-11.8-22.2c-2,0.3-1.2,3,0.4,3.2c8.4,1.1,8.9-6.9,4.1-12.2c-3.8-4.2-9.9-4.9-10.7-10.7
			c-1.1-9.1-2.7-18.2-4.8-27.1c-0.5-2.1-3.7-1.2-3.2,0.9c2.5,10.6,4.3,21.3,5.5,32.1c0,0.7,0.5,1.4,1.2,1.6c3.2,0.5,6.1,1.9,8.4,4.1
			c2.6,2.3,5.6,8.8-0.5,8c0.1,1.1,0.3,2.2,0.4,3.2c7.7-1.3,22.5,13.2,10.1,15.9c-0.9,0.3-1.4,1.2-1.1,2.1c0.2,0.5,0.6,1,1.1,1.1
			c16.9,4.1,3.2,29.3-4.5,23.5c-1.5-1.1-2.8,0.9-2.2,2.2c3.6,8-15.2,8.2-17.9,0.3C102.1,507,98.9,507.8,99.6,509.8"/>
		<path id="Trazado_29577" class="st0" d="M49.4,478c-2.4,6.3,3.9,9.7,9.3,10.2c-0.4-0.9-0.8-1.9-1.2-2.8
			c-5.3,6.4-4.2,28.7,7.9,20.8c1.8-1.2,0.1-4-1.7-2.8c-7.9,5.2-7.1-11.8-4-15.6c0.6-0.7,0.6-1.7-0.1-2.4c-0.3-0.3-0.7-0.4-1.1-0.5
			c-2.9-0.3-7.8-1.6-6.1-6.1C53.3,476.9,50.1,476,49.4,478"/>
		<path id="Trazado_29578" class="st0" d="M83.1,485.6c0.7,2.2,1.6,3.8,0,5.9c-0.5,0.8-0.2,1.8,0.6,2.3c0.1,0.1,0.3,0.1,0.4,0.2
			c8.1,1.7,0.9,10.1-3,12.7c-1.8,1.2-0.1,4,1.7,2.8c6.2-4.2,13.9-16.3,2.2-18.8c0.3,0.8,0.7,1.6,1,2.4c2.5-3.3,1.4-4.9,0.4-8.5
			C85.6,482.7,82.5,483.5,83.1,485.6"/>
		<path id="Trazado_29579" class="st0" d="M44.1,38.4c1.2-1,3.5-0.3,4.8-0.1c2.1,0.3,3-2.8,0.9-3.2c-2.8-0.4-5.7-1-8,1
			C40.2,37.5,42.5,39.8,44.1,38.4"/>
		<path id="Trazado_29580" class="st0" d="M68.1,38.1c2.1-0.8,4.4-0.6,6.4,0.6c1.8,1.1,3.5-1.7,1.7-2.8c-2.7-1.6-5.9-1.9-8.9-0.9
			C65.2,35.6,66.1,38.7,68.1,38.1"/>
		<path id="Trazado_29581" class="st0" d="M54.4,44.1c0.4,3.3-1.3,12.2,3.3,13.2c2.1,0.5,2.9-2.7,0.9-3.2c-1.4-0.3-0.7-8.6-0.9-10.1
			C57.5,42,54.2,42,54.4,44.1"/>
	</g>
	<g id="Grupo_4567" transform="translate(1381.465 223.499)">
		<g id="Grupo_4607" transform="translate(0 0)">
			<path id="Trazado_29582" class="st0" d="M19.7,66.9c7.1,8.7,22.3,9.1,30.2,1.3c1.5-1.5-0.8-3.8-2.3-2.3c-6.7,6.6-19.6,6-25.5-1.3
				C20.7,62.9,18.4,65.3,19.7,66.9"/>
			<path id="Trazado_29583" class="st1" d="M16.2,14.1c-4.8,5-10.2,12.8-14.6,18.1c3.4,0.4,6.7-0.3,9.9-0.7
				c-0.3,2.9-3.6,6.5-6.2,8.2c5.9-0.3,11.7-4.3,16.7-7.2c4-2.1,8.6-6.9,12.8-7.8c-0.1,2.5-2.6,4.1-2.4,6.3
				c5.5-1.6,10.2-4.1,15.7-6.2c-0.1,1.7-0.6,3.4-1.4,4.9c3-1.1,4.5-2.3,7.2,0c1.9,1.8,3.1,5,4,7c1.8,4.5,2.2,9.2,3.3,13.9
				c1.2-6.1,0.7-13.5,0.3-19.7s-0.3-14.1-2.9-19.8C53.6-0.1,31.7,0.2,22.8,6.4C20.1,8.3,18,11.4,16.2,14.1"/>
			<path id="Trazado_29584" class="st0" d="M15,12.9C9.8,18.6,5.3,24.9,0.4,31c-0.6,0.7-0.6,1.7,0.1,2.4c0.3,0.3,0.7,0.4,1.1,0.5
				c3.5,0,6.9-0.2,10.3-0.8l-2-2c-1,3.1-3,5.7-5.7,7.5c-1.5,1.1,0.2,3,1.6,2.8C17.4,39.5,24.7,30,35.3,26.3c-0.7-0.7-1.3-1.4-2-2
				c-1.1,3.6-1.6,3.3-2.4,6.3c-0.2,0.9,0.3,1.8,1.2,2c0.3,0.1,0.6,0.1,0.8,0c5.4-1.8,10.5-4.1,15.7-6.2l-2-2
				c-0.1,1.7-0.6,3.4-1.4,4.9c-0.2,0.9,0.3,1.8,1.2,2c0.3,0.1,0.6,0.1,0.9,0c9.8-3.9,11.4,14.7,12.4,19.7c0.3,1.5,2.9,1.6,3.2,0
				c1.5-10.4,0.7-21.3-0.4-31.7C61.7,12,59.1,6.7,52.6,3.2C39.2-3.9,22.8,1.6,14.8,13.3c-1.2,1.8,1.6,3.4,2.8,1.7
				C25,4.1,37.1,1.6,49.3,5.4c14.1,4.3,12,33.3,10.3,44.9h3.2c-1.8-8.7-3.7-27.1-16.5-22c0.7,0.7,1.3,1.4,2,2
				c0.8-1.5,1.3-3.2,1.4-4.9c0.2-1.1-0.7-2.5-2-2c-5.2,2.1-10.4,4.4-15.7,6.2c0.7,0.7,1.3,1.3,2,2c0.2-0.9,2-4.9,2.4-6.3
				c0.2-0.9-0.3-1.8-1.2-2c-0.3-0.1-0.6-0.1-0.8,0C23.8,26.8,16.6,36.3,4.9,38.1c0.5,0.9,1.1,1.8,1.6,2.8c3.2-2.6,5.3-5,6.6-8.9
				c0.4-1.3-0.9-2.2-2-2c-3.1,0.6-6.3,0.9-9.5,0.6l1.2,2.8c4.8-6,9.4-12.3,14.6-18.1C18.8,13.7,16.5,11.4,15,12.9"/>
		</g>
	</g>
</g>
</svg>
