<?xml version="1.0" encoding="utf-8"?>
<!-- Generator: Adobe Illustrator 27.4.0, SVG Export Plug-In . SVG Version: 6.00 Build 0)  -->
<svg version="1.1" id="Capa_1" xmlns="http://www.w3.org/2000/svg" xmlns:xlink="http://www.w3.org/1999/xlink" x="0px" y="0px"
	 viewBox="0 0 289 281.6" style="enable-background:new 0 0 289 281.6;" xml:space="preserve">
<style type="text/css">
	.st0{fill:#FFFFFF;}
	.st1{fill:#59595C;}
	.st2{fill:#248F8D;}
</style>
<g id="Grupo_4610" transform="translate(-210.754 -177.606)">
	<path id="Trazado_29585" class="st0" d="M407.4,292c-1.5,9.9,17,1.8,19.2,6.4c3.8,8.5-17.8,5.7-19.9,10.7"/>
	<path id="Trazado_29586" class="st1" d="M406.6,292c-1.1,10.7,14.5,2.9,19,6.4c2.7,2.1-1.4,4.3-2.9,4.9c-2.2,0.7-4.5,1.2-6.8,1.5
		c-3,0.5-8.2,0.8-9.9,4c-0.5,1,1,1.8,1.5,0.9c3.1-5.9,20.6-0.6,20.5-9.6c-0.1-9.7-20.7,2.2-19.7-8
		C408.4,290.9,406.7,290.9,406.6,292"/>
	<path id="Trazado_29587" class="st1" d="M385.1,316c-8.2-3.2-18.1-3-26.5-1.3c-23.5,4.5-40.5,23.8-51.9,43.6
		c-0.2,0.4-0.1,0.9,0.3,1.2c0.1,0.1,0.3,0.1,0.4,0.1l25.6-1.7l9.4-0.6c1.3-0.1,3-2.5,3.8-3.2l39.3-36.5c0.8-0.8-0.4-2-1.2-1.2
		c-12.6,11.7-25.2,23.4-37.7,35.1l-4.7,4.4c0.7-0.7-1.2-0.1-2.1,0l-6.7,0.5l-25.6,1.7l0.7,1.3c11.4-19.7,27.7-37.9,50.9-42.8
		c8.1-1.7,17.8-1.8,25.6,1.3C385.6,318.1,386.1,316.4,385.1,316"/>
	<path id="Trazado_29588" class="st1" d="M413.1,381.4c-2.9,7.9-9.4,14.8-15.9,19.9c-18.7,14.3-43.8,14.1-65.8,9.6
		c0.1,0.5,0.3,1,0.4,1.4c5.9-5.7,11.7-11.5,17.6-17.2c2.4-2.4,4.9-4.8,7.3-7.2c-0.3,0.3-0.3,0.1,0.9,0l4.4-0.4l52-5
		c1.1-0.1,1.1-1.8,0-1.7c-17.6,1.7-35.1,3.3-52.7,5c-1.4,0.1-4.2-0.2-5.5,0.6c-2.3,1.3-4.3,4.2-6.2,6c-6.3,6.2-12.7,12.4-19,18.6
		c-0.3,0.3-0.3,0.9,0,1.2c0.1,0.1,0.2,0.2,0.4,0.2c22.7,4.7,47.8,4.6,67.1-9.8c7-5.1,13.7-12.6,16.7-20.9
		C415.2,380.9,413.5,380.4,413.1,381.4"/>
	<path id="Trazado_29589" class="st2" d="M313.7,386.5c-2.3-8.2-14.8-10.2-21.1-4.7c-5,4.5-8.2,16.9-18.1,11.6
		c3.8,2.7,9.7,4,13.2,2.9c-5.6,4.2-11.8,7-18.9,6.7c6.6,4.9,15.5,2.3,22.4,0l0,0c-2.8,2.6-5.6,5.1-9.2,5.9
		c8.1,2.5,17.4,3.6,24.5-2.2C312.6,401.8,319.7,393,313.7,386.5"/>
	<path id="Trazado_29590" class="st1" d="M314.3,386.3c-2.6-7.2-10.5-9.3-17.4-7.5c-9.2,2.4-10.8,19.3-22,14.1
		c-0.3-0.2-0.6,0-0.8,0.2c-0.1,0.3-0.1,0.6,0.2,0.8c4.1,2.5,8.8,4,13.6,2.9c-0.1-0.4-0.3-0.7-0.4-1.1c-5.6,4.1-11.5,6.7-18.6,6.7
		c-0.3,0-0.6,0.3-0.6,0.6c0,0.2,0.1,0.4,0.3,0.5c6.8,4.4,16.1,3.1,23.3-0.1c0.7-0.3,0.1-1.3-0.6-1c-3.5,1.6-5.4,4.8-9.3,6
		c-0.3,0.1-0.5,0.4-0.4,0.7c0.1,0.2,0.2,0.3,0.4,0.4c9.4,2.7,18.5,3.2,26.3-3.4c5.9-4.9,11.5-12.9,6-20c-0.5-0.6-1.3,0.2-0.8,0.8
		c8.1,10.5-9,22.5-17.9,23.4c-2.2,0.1-4.4,0-6.6-0.4c-1.2-0.2-4.2-1.2-4.9-1c3.3-1,4.9-4.2,7.9-5.6c0.7-0.3,0.1-1.3-0.6-1
		c-2.6,1-5.3,1.8-8.1,2.3c-2.1,0.4-4.3,0.6-6.5,0.5c1.2,0-8.1-1.6-5.8-1.6c6.4,0,12.3-3.2,17.3-6.8c0.3-0.2,0.4-0.5,0.2-0.8
		c-0.1-0.2-0.4-0.3-0.6-0.3c-4.5,1-8.9-0.5-12.7-2.8l-0.6,1c5.9,2.7,9.8,0.2,13.4-4.7c2.8-3.8,4.7-7.5,9.5-9.3
		c6-2.2,13.8,0.5,16,6.7C313.4,387.3,314.5,387,314.3,386.3"/>
	<path id="Trazado_29591" class="st0" d="M357.3,386.7c0,0,60.7,6.9,106.3-29.6c16.7-13.3,28.3-28.8,35.3-52.5
		c-22.4-10.5-42.7-11.6-63.8-8c-57.6,9.8-92.8,59.7-92.8,59.7S354.1,365.7,357.3,386.7"/>
	<path id="Trazado_29592" class="st1" d="M357.3,387.5c22.1,2.5,45.9-1.2,66.8-8.2c35.9-12,64.5-38,75.6-74.5c0.1-0.4-0.1-0.8-0.4-1
		c-37.5-17.2-79.3-10.2-113.5,11.3c-16.7,10.5-32.8,24.5-44.2,40.7c-0.2,0.3-0.1,0.8,0.1,1c8.7,7.1,13,19.3,14.7,30
		c0.2,1.1,1.8,0.6,1.6-0.5c-1.7-10.5-5.6-20.5-12.8-28.5c-0.6-0.7-1.3-1.4-2-2s-0.4,1.2,0,0.6c1-1.3,2-2.6,3-3.8
		c11.8-14.5,25.9-26.9,41.7-36.8c25.6-16.1,57-24.1,87-18.4c4,0.8,7.9,1.8,11.7,3.1c3.7,1.2,11.9,2.4,10.3,7.4
		c-2.4,7.6-5.7,14.8-9.8,21.6c-7.4,12.5-18.1,22.8-29.9,31.2c-27.6,19.7-66.2,28.8-100,25.1C356.2,385.7,356.2,387.4,357.3,387.5"/>
	<path id="Trazado_29593" class="st0" d="M318.3,385.7L318.3,385.7c-1-2.2,75.4-38.7,75.4-38.7c2.2-1,4.9,0,5.9,2.2s0,4.9-2.2,5.9
		l0,0C397.3,355.1,319.3,387.9,318.3,385.7"/>
	<path id="Trazado_29594" class="st1" d="M319.1,385.7c-0.1-0.9,10.3-5.9,11.7-6.7c7.7-4.1,15.4-7.9,23.2-11.8
		c12.9-6.4,25.9-12.8,39-19c3-1.4,6.5,5,3.6,6.2c-1.6,0.7-3.3,1.4-4.9,2.1c-6.8,2.8-13.5,5.6-20.3,8.4c-15.5,6.4-31,12.9-46.9,18.4
		c-0.9,0.3-5.5,1.8-5.6,1.8c-0.7-0.8-1.9,0.4-1.2,1.2c1.4,1.6,7.1-1.3,8.5-1.8c7.3-2.5,14.6-5.4,21.8-8.3
		c15.1-6,30.2-12.2,45.2-18.5c3.7-1.5,7.3-2.5,7.6-7.1c0.3-5.7-6.4-4.9-9.6-3.4c-13.7,6.6-27.4,13.3-41.1,20c-8,4-15.9,8-23.8,12.2
		c-1.4,0.7-9.2,3.9-8.9,6.2C317.6,386.7,319.3,386.8,319.1,385.7"/>
	<path id="Trazado_29595" class="st0" d="M447.7,295.1c0,0-1.9,30,24.5,54.5"/>
	<path id="Trazado_29596" class="st1" d="M446.8,295.1c-1.2,20.6,10.3,41.4,24.8,55.1c0.8,0.8,2-0.4,1.2-1.2
		c-14.1-13.4-25.4-33.7-24.3-53.9C448.6,294,446.9,294,446.8,295.1"/>
	<path id="Trazado_29597" class="st2" d="M438.4,351.2c-9.3,4.2-20.2,0-24.4-9.3c-4.2-9.3,0-20.2,9.3-24.4c9.3-4.2,20.2,0,24.4,9.3
		C451.9,336.1,447.7,347,438.4,351.2"/>
	<path id="Trazado_29598" class="st1" d="M438.2,350.4c-20.2,8.1-34.7-19.9-15.9-31.4c8.4-5.2,19.1-1.1,23.9,6.8
		c5.5,9,0.5,20.2-8.3,24.6c-1,0.5-0.1,2,0.9,1.5c9.5-4.5,13.8-15.7,9.7-25.3c-4-10-16-13.7-25.5-9.9c-10,4-13.7,15.9-9.9,25.4
		c4,10,15.9,13.7,25.5,9.9C439.7,351.7,439.2,350,438.2,350.4"/>
	<path id="Trazado_29599" class="st1" d="M403.6,185.7c0.2,0.8,0.5,1.5,0.7,2.3l1.6-0.5c-2.4-6.1-9.9-1.7-13.6,0.8
		c-7.5,5.1-10.2,14.2-9.6,23c0.4,4.5,1.7,8.8,4,12.7c1,1.7,2.3,3.2,3.9,4.5c2,1.8,3.6,1.3,3,4.1c-1.1,4.8-3,12.9,4.3,12.5
		c0.5,0,0.8-0.4,0.9-0.9c0.1-2.5,0.2-5,0.3-7.5c0.2-4.4,0.5-4.3,3.9-4c3.7,0.2,7.3-0.8,10.3-2.8c5.8-3.6,8.2-10.9,8.8-17.4
		c1-11.1-3.3-29.4-17.7-27.9c-1.1,0.1-1.1,1.8,0,1.7c22.2-2.4,23,50.8-5.1,44c-0.5-0.1-0.9,0.1-1,0.6c-0.4,1.9-0.7,3.8-0.9,5.8
		c-0.1,1.2,0.5,9.9-2.7,5.6c-2.1-2.7,0.6-9,1.1-12c0.1-0.4-0.1-0.8-0.4-1c-10.1-4.8-12.5-17.7-10.2-27.7c0.9-4.1,3.2-7.9,6.4-10.7
		c2.3-2,10.8-8,12.7-3.1c0.4,1,2,0.6,1.6-0.5c-0.2-0.8-0.5-1.5-0.7-2.3C404.9,184.2,403.2,184.6,403.6,185.7"/>
	<path id="Trazado_29600" class="st0" d="M382.5,294.8c-0.9,6.3-2.5,17.2,3.6,21.8c5.6,3.7,14.5,1.4,20.4,0.5
		c5.5-1,17.4-5.7,14.2,3.5c-2,6.2-16.5,28.9-18.1,34.7c0,0,8.7,7,12.6,7.5c0.4-7.8,31.9-53.9,19.9-58.1c-5-1.8-19.7-3.7-25.1-1.6"/>
	<path id="Trazado_29601" class="st1" d="M381.7,294.5c-1.1,7.5-2.6,17.1,3.9,22.6c6.3,5.4,19.2,1.2,26.3-0.5c2-0.5,4-0.8,6.1-0.9
		c4.5,0,1.8,5.4,1.1,6.9c-1.8,3.9-4,7.6-6.1,11.3c-3.8,6.7-8.7,13.6-11,21c-0.1,0.3,0,0.6,0.2,0.8c3.8,3,8.1,6.6,13,7.8
		c0.5,0.1,0.9-0.2,1.1-0.6c0-0.1,0-0.1,0-0.2c0.7-6.5,6.1-13.8,9.1-19.5c4.2-8,8.5-16.1,11.6-24.7c1.3-3.5,3.9-11,0-13.9
		c-2.8-2.2-7.7-2.4-11.1-2.8c-5.1-0.6-10.8-1.3-15.8,0.3c-1,0.3-0.6,2,0.5,1.6c5.2-1.7,11.3-0.8,16.6-0.1c3.2,0.4,9.1,0.5,10,4.4
		c1.5,6.7-4.1,16-6.8,21.7c-3.7,7.7-7.9,15.2-11.8,22.9c-1.2,2.3-2.3,4.8-3.3,7.2c-0.3,0.8-0.6,1.6-0.7,2.5c0.1-1.1-4.6-3.1-6-4
		c-1.5-1-3-2.1-4.4-3.2c-0.9-0.7,0.4-2.2,1.1-3.7c2.2-4.5,4.7-8.8,7.1-13.1c3.3-5.8,10.1-14.1,9.8-21.2c-0.3-6.1-12.2-1.9-14.9-1.3
		c-6.4,1.5-16,3.8-21.5-1c-5.1-4.4-3.2-14.3-2.4-20.1C383.5,293.9,381.9,293.5,381.7,294.5"/>
	<path id="Trazado_29602" class="st0" d="M392.9,238.8c-12.9-0.1-15.1,63.2-16.9,71.7c7.4,1.1,26.8-6,34.2-7.4
		c1.9-10.5-1-28.1-2-38.7c-0.6-8-5-31.3-17.2-24.8"/>
	<path id="Trazado_29603" class="st1" d="M392.9,237.9c-4,0.2-6.1,4.3-7.5,7.6c-3,6.9-4.2,14.7-5.4,22.1c-2.2,14-2,28.7-4.8,42.6
		c-0.1,0.5,0.2,0.9,0.6,1.1c0.1,0,0.1,0,0.2,0c11.5,1.2,23.3-5.1,34.4-7.4c0.3-0.1,0.5-0.3,0.6-0.6c1.4-8.8,0.4-17.7-0.6-26.5
		c-0.7-6.6-1.2-13.4-2.5-20c-1.6-8.2-6.3-23.2-17.4-18c-1,0.5-0.1,1.9,0.9,1.5c16.1-7.6,17.3,35.6,18,43.4c0.5,5,0.6,10,0.4,15.1
		c-0.2,3.4-0.8,3.6-3.7,4.3c-2.1,0.5-4.1,1.2-6.2,1.7c-4.7,1.3-9.3,2.7-14.1,3.7c-2.3,0.5-4.7,0.9-7.1,1.1c-0.6,0-1.3,0-1.9,0
		c0.2,0,0,1.2,0.2-0.1c2-12.1,2.3-24.6,3.9-36.8c0.9-7,2.2-13.9,4-20.7c1-3.6,3.1-12.2,8-12.5C394,239.6,394,237.9,392.9,237.9"/>
	<path id="Trazado_29604" class="st0" d="M392.9,235.5c2.1,4.7,12,20.1,15.4,28.9c-4.5-3.5-8.6-7.7-14.5-9c2-1.5,1.8-2.7,4.2-3.8
		c-2.6-2.2-9.6-7.9-10.6-11C387.3,240.7,388.9,235.7,392.9,235.5"/>
	<path id="Trazado_29605" class="st1" d="M392.1,236c4.7,9.8,11.2,18.6,15.3,28.6c0.5-0.3,1-0.6,1.4-0.8c-4.7-3.8-9-7.6-14.9-9.2
		c0.1,0.5,0.3,0.9,0.4,1.4c1.2-1.3,2.6-2.5,4-3.6c0.4-0.2,0.5-0.8,0.3-1.2c0-0.1-0.1-0.1-0.1-0.2c-3.3-2.8-16.9-12.7-5.4-14.7
		c1.1-0.2,0.6-1.8-0.5-1.6c-2.9,0.5-7.2,3.9-5.7,7.1c1.2,2.6,4,4.8,6.1,6.7c1.2,1.1,2.4,2.1,3.7,3.2c-0.6-0.5-3.2,2.8-3.5,3.1
		s-0.3,0.9,0,1.2c0.1,0.1,0.2,0.2,0.4,0.2c5.7,1.5,9.7,5.2,14.1,8.7c0.6,0.5,1.8,0.1,1.4-0.8c-4.1-10.2-10.7-19.1-15.5-29.1
		C393.1,234.1,391.6,235,392.1,236"/>
	<path id="Trazado_29606" class="st0" d="M389.8,215.3c-3.9-2.1-3,6.7,0.5,4.8"/>
	<path id="Trazado_29607" class="st1" d="M390.2,214.6c-0.9-0.6-2.2-0.5-3,0.2c-0.7,0.8-0.9,1.9-0.8,2.9c0.2,2.2,1.9,4.4,4.3,3.2
		c1-0.5,0.1-2-0.9-1.5c-1.1,0.6-1.7-0.8-1.8-1.7c-0.1-1.1,0.1-2.2,1.2-1.6C390.3,216.6,391.2,215.1,390.2,214.6"/>
	<path id="Trazado_29608" class="st0" d="M381.9,219.1c0.9,2.9,3.7,5,4.5,8.2c0.9-0.8,1.4-0.5,2.8-0.4c0.1-4-3.7-9.8-1.4-13.3
		c3.9-6.4,5.5,5.9,5.7,8.7c0.5-0.1,2-0.1,2.5-0.2c-0.2-4.8-2.3-10.5-1.2-15.5c1.2-5.8,7.8-4.9,12-2.2c-0.7-1.4-1.9-2.9-2.1-4.4
		c4.5,1.2,9,2.4,13.2,3.8c-0.8-1.9-3.1-3.2-4.2-4.9c3.6-0.5,10,4.6,11.4,7.7c0.6-2.9-0.7-7.2-2.5-9.5c2.4,0.3,4.1,1.9,5.9,3
		c-0.4-3.8-4.6-10-6.7-13.4c-2.8-4.4-6.2-6.1-11-7.3c-5.5-1.4-8.6-0.8-13.9,1.6s-7.6,3.9-12.4-0.4c0.6,1.6,1.3,3.2,2.3,4.7
		c-3.7,0.7-6.6,0.6-8.4,4.2c1-1.2,2.6-1.6,4-0.9c-4.2,3.4-6.2,11.5-5.8,16.5C377.4,209.9,379.2,214.7,381.9,219.1"/>
	<path id="Trazado_29609" class="st1" d="M381.1,219.3c1.2,2.9,3.4,5.2,4.5,8.2c0.1,0.5,0.6,0.7,1.1,0.6c0.1,0,0.1,0,0.2-0.1
		c0.7-0.4,1.6-0.5,2.4-0.3c0.5,0,0.9-0.4,0.9-0.8l0,0c-0.1-1.4-0.3-2.8-0.7-4.2c-0.3-1-0.6-1.9-0.8-2.9c-0.1-0.5-0.2-0.9-0.3-1.4
		c-1.1-3.2-0.3-4.9,2.4-5.1c1.6,2.3,1.8,6.2,2,8.9c0,0.5,0.4,0.8,0.9,0.9l2.5-0.2c0.5,0,0.8-0.4,0.9-0.9c-0.3-3.9-1.2-7.7-1.5-11.6
		c-0.6-7.8,5.8-8.3,11-5.4c0.4,0.2,0.9,0.1,1.2-0.3c0.1-0.3,0.1-0.6,0-0.8c-0.8-1.3-1.5-2.8-2-4.2c-0.4,0.3-0.7,0.7-1,1.1
		c4.4,1.2,8.9,2.4,13.2,3.8c0.5,0.1,0.9-0.2,1-0.6c0.1-0.2,0-0.4-0.1-0.6c-1.2-1.9-2.9-3.3-4.4-5.1c-0.2,0.5-0.4,1-0.6,1.5
		c4.2,0,8.7,3.7,10.7,7.2c0.3,0.4,0.8,0.5,1.2,0.3c0.2-0.2,0.4-0.4,0.4-0.7c0.3-3.5-0.6-7-2.6-10l-1,1.3c2.1,0.6,4,1.6,5.7,2.9
		c0.7,0.5,1.4-0.3,1.3-1c-1.4-7.3-7-16.3-13.7-19.8c-3.6-1.8-7.7-2.6-11.8-2.2c-7,0.5-11.9,7.5-18.7,2.1c-0.6-0.5-1.8-0.1-1.4,0.8
		c1.3,3.2,2.3,3.6-1.4,4.5c-2.2,0.5-3.5,2-4.6,3.8c-0.5,0.9,0.6,1.6,1.3,1l3.1-0.7l-0.4-1.4c-9.2,8.4-6.4,22.3-0.6,31.7
		c0.6,0.9,2,0.1,1.5-0.9c-5.3-8.7-8.2-21.8,0.4-29.6c0.3-0.3,0.3-0.9,0-1.2c-0.1-0.1-0.2-0.2-0.4-0.2c-1.7-0.5-3.5-0.1-4.8,1.1
		l1.3,1c2-3.2,4.8-3.3,7.9-3.8c0.5-0.1,0.7-0.6,0.6-1.1c0-0.1,0-0.1-0.1-0.2c-0.9-1.4-1.6-2.9-2.2-4.5l-1.4,0.8
		c7.8,6.2,12.9-1.1,21.5-1.7c11.2-0.8,20.2,10.8,22.2,20.9c0.4-0.3,0.8-0.6,1.3-1c-1.8-1.4-3.9-2.4-6.1-3.1c-0.5-0.1-0.9,0.2-1,0.6
		c-0.1,0.2,0,0.4,0.1,0.6c1.8,2.7,2.7,5.9,2.4,9.1l1.6-0.4c-2.3-4.1-7.3-8.1-12.1-8.1c-0.5,0-0.9,0.4-0.8,0.9c0,0.2,0.1,0.4,0.2,0.6
		c1.3,1.6,2.9,2.9,4.1,4.7l1-1.3c-4.4-1.4-8.8-2.6-13.2-3.8c-0.5-0.1-0.9,0.2-1,0.6c0,0.1,0,0.3,0,0.4c0.5,1.6,1.3,3.2,2.2,4.6
		c0.4-0.4,0.8-0.8,1.2-1.2c-4.8-2.7-11.3-3.6-13.2,2.7c-0.5,1.4,0.6,15,0.8,15c-0.9,0.1-0.6-0.9-0.8-2.2c-0.2-1.6-0.6-3.3-1.1-4.8
		c-1.4-4.4-4.6-3.8-6.3,0c-1.4,3,0.8,7.4,1.5,10.3c0.5,1.7-1.1,1.9-1.4,1c-0.9-2.4-3-4.3-4-6.7C382.3,217.8,380.7,218.3,381.1,219.3
		"/>
	<path id="Trazado_29610" class="st0" d="M398.3,238.4c1-1.8,3.8-0.7,4.4,1.9c1.1,4.6-4,3.6-4.4-0.6"/>
	<path id="Trazado_29611" class="st1" d="M399.1,238.8c0.6-0.9,1.6-0.3,2.2,0.3c0.7,0.8,1,1.9,0.7,3c-0.2,0.5-0.9,0.3-1.3,0.1
		c-0.8-0.6-1.4-1.5-1.4-2.6c-0.1-1.1-1.8-1.1-1.7,0c0.1,1.7,1,3.3,2.5,4.2c1.1,0.7,2.6,0.3,3.3-0.8l0.1-0.1c0.7-1.8,0.1-3.9-1.3-5.2
		s-3.5-1.4-4.6,0.3C397,238.9,398.5,239.7,399.1,238.8"/>
	<path id="Trazado_29612" class="st0" d="M403.1,243.3c5.6,7.3,6.8,20.8,7.5,29.8c-2-8.5-9.5-25-8.8-30"/>
	<path id="Trazado_29613" class="st1" d="M402.3,243.7c5.9,8.3,6.6,19.5,7.4,29.4l1.7-0.2c-1.3-5.1-3.1-9.9-4.9-14.8
		c-1.6-4.5-4.2-10-3.9-14.9c0.1-1.1-1.6-1.1-1.7,0c-0.3,4.2,1.6,8.6,2.9,12.5c2,5.9,4.4,11.7,5.9,17.7c0.2,0.9,1.7,0.7,1.7-0.2
		c-0.8-10.2-1.5-21.7-7.6-30.2C403.2,241.9,401.7,242.8,402.3,243.7"/>
	<path id="Trazado_29614" class="st1" d="M402.4,210.7c0.7-1.5,2.4-1.1,3.6-0.4c1,0.5,1.8-1,0.9-1.5c-2-1.1-4.8-1.4-5.9,1
		C400.5,210.8,401.9,211.7,402.4,210.7"/>
	<path id="Trazado_29615" class="st1" d="M415.9,211.1c1.1-1.1,3.1-1.9,4-0.2c0.3,0.6,1.3,0.1,1-0.6c-1.3-2.4-4.2-1.7-5.8,0
		C414.7,210.8,415.4,211.6,415.9,211.1"/>
	<path id="Trazado_29616" class="st1" d="M410.9,212.4c0.1,1.4,0.3,2.9,0.8,4.2c0.2,1,1.3,4.4-0.6,4.1c-1.1-0.2-1.5,1.5-0.5,1.6
		c5.7,0.8,2-7.3,2-10c0-0.5-0.4-0.8-0.9-0.8C411.2,211.6,410.9,212,410.9,212.4"/>
	<path id="Trazado_29617" class="st1" d="M409.5,224.9c-2.8,1.1-6.8,0.6-8.1-2.4c-0.5-1-1.9-0.1-1.5,0.9c1.7,3.6,6.6,4.5,10.1,3.2
		C410.9,226.1,410.5,224.5,409.5,224.9"/>
	<path id="Trazado_29618" class="st1" d="M400.7,222.9l-0.1-0.1c0.1,0.2,0.2,0.4,0.2,0.6c0,0.1-0.1,0.2-0.1,0.4
		c0.1,0,0.3-0.1,0.5-0.1c1.1-0.2,0.6-1.9-0.5-1.6c-1,0.2-2.3,1-1.3,2.1C400.2,224.9,401.5,223.7,400.7,222.9"/>
	<path id="Trazado_29619" class="st0" d="M422,298.9c2.4,2.8,5.9,3.9,9.5,4.4c-0.3-1,0.1-1-0.9-2c1.2,1.6,3.5,0.9,4.7-0.3
		c0.2-0.2-0.3-0.5-0.3-0.5c3.8,1.4,0.9-3.1-1.7-3.7s-5.4,0.8-7.3-1.3"/>
	<path id="Trazado_29620" class="st1" d="M421.4,299.5c2.7,2.8,6.1,4,9.9,4.6c0.5,0.1,0.9-0.2,1-0.6c0-0.1,0-0.3,0-0.4
		c-0.1-0.9-0.5-1.7-1.1-2.3c-0.3-0.3-0.9-0.3-1.2,0c-0.3,0.3-0.3,0.8,0,1.2c1.6,1.6,3.5,1.4,5.2,0.2c1-0.7,1.3-1.7,0.2-2.4
		c-0.2,0.5-0.4,1-0.7,1.6c2.5,0.7,3.7-0.8,2.1-2.9c-0.7-1-1.7-1.8-2.9-2.3c-2.4-0.7-5.4,0.6-7.4-1.2c-0.8-0.7-2,0.5-1.2,1.2
		c1.5,1.4,3.1,1.5,5.1,1.4c1.3-0.2,2.6,0,3.8,0.6c0.6,0.4,1.1,0.9,1.5,1.5c0.6,0.8,0,0.2-0.5,0c-0.5-0.1-0.9,0.2-1,0.6
		s0.1,0.7,0.4,0.9c-1.1-0.4-2.2-0.6-3.3-0.6c-0.4,0.4-0.8,0.8-1.2,1.2c0.5,0.4,0.7,1,0.7,1.6c0.4-0.3,0.7-0.7,1-1
		c-3.5-0.6-6.6-1.6-9.1-4.2C421.8,297.5,420.6,298.7,421.4,299.5"/>
	<path id="Trazado_29621" class="st1" d="M405.3,247.7c13,5.5,27.6-5.3,35.9-14.5c0.9-1,1.7-2.1,2.5-3.2c1.3-1.8,2,0.5,3.2,2
		c1,1.2-8.4,9.3-9.5,10.4c-7.7,7.4-16.2,13.2-27.1,14.1c-1.1,0.1-1.1,1.8,0,1.7c17-1.5,27.3-14,38.9-25c0.3-0.3,0.3-0.9,0-1.2
		c-1.4-1.8-2.8-3.4-4.3-5.1c-0.3-0.3-0.9-0.3-1.2,0c0,0-0.1,0.1-0.1,0.2c-6.7,10.9-23.7,24.9-37.3,19.1
		C405.2,245.8,404.3,247.3,405.3,247.7"/>
	<path id="Trazado_29622" class="st1" d="M445.8,227.5c0.3-2.6,0.3-5.3,1.2-7.8l-1,0.1c0.7,1.3,0.7,3.1,1.2,4.5
		c0.1,0.3,0.4,0.5,0.7,0.4c0.1,0,0.2-0.1,0.2-0.1c2.9-2.6,3.1-6.8,5.9-9.4l-1-0.4c0,2.3-0.8,4.3-1.1,6.5c-0.1,0.5,0.4,0.9,0.8,0.6
		c2.4-1.4,2-5.5,4.6-6.4l-0.7-0.5c-0.3,2.7-1.9,5-2.6,7.6c-0.1,0.3,0.1,0.6,0.4,0.7c0.2,0,0.4,0,0.5-0.1c2-1.6,3.6-3.6,6.1-4.3
		l-0.7-0.7c-0.5,2.5-3.3,3.5-4.2,5.8c-0.2,0.4,0.1,1,0.6,0.8c1.4-0.5,2.9-1.4,4.4-1.4l-0.5-0.7c-0.8,1.9-2.8,3.1-4.4,4.2
		c-2.3,1.8-4.3,3.5-7.2,4.3c-0.3,0.1-0.5,0.4-0.4,0.7s0.4,0.5,0.7,0.4c2.7-0.8,5.1-2.2,7.1-4.1c1.8-1.7,4.2-2.8,5.2-5.2
		c0.1-0.3-0.1-0.6-0.4-0.7h-0.1c-1.8,0-3,0.9-4.7,1.5c0.2,0.3,0.4,0.6,0.6,0.8c1-2.4,3.8-3.4,4.4-6.1c0.1-0.3-0.1-0.6-0.4-0.7
		c-0.1,0-0.2,0-0.3,0c-2.7,0.8-4.5,2.9-6.6,4.6l1,0.6c0.8-2.8,2.4-5,2.7-7.9c0-0.3-0.3-0.6-0.6-0.6h-0.1c-3.1,1.1-2.3,5-4.9,6.5
		l0.8,0.6c0.3-2.3,1.2-4.4,1.2-6.8c0-0.3-0.3-0.6-0.6-0.6c-0.1,0-0.3,0.1-0.4,0.2c-2.8,2.6-3.1,6.9-5.9,9.4c0.3,0.1,0.6,0.2,1,0.3
		c-0.6-1.6-0.5-3.2-1.3-4.8c-0.2-0.3-0.5-0.4-0.8-0.2c-0.1,0.1-0.2,0.2-0.2,0.3c-0.9,2.6-0.9,5.4-1.2,8.1
		C444.6,228.2,445.7,228.2,445.8,227.5"/>
	<path id="Trazado_29623" class="st0" d="M386,265.9c8.9,15,20.4,22.7,33.9,33.7c1.8-1.5,3.7-2.9,5.7-4.1
		c-10.9-14.2-28.8-22.2-34.7-40.7"/>
	<path id="Trazado_29624" class="st1" d="M385.3,266.3c8.6,14.1,21.4,23.6,34,33.9c0.3,0.3,0.9,0.3,1.2,0c1.8-1.5,3.6-2.7,5.5-4
		c0.4-0.3,0.5-0.8,0.3-1.2l-0.1-0.1c-11.1-14-28.4-22.6-34.5-40.3c-0.4-1-2-0.6-1.6,0.5c5.5,15.9,19.6,24.7,30.8,36.3
		c0.6,0.6,4.1,3.6,2.8,4.5c-0.8,0.6-3.4,3.1-4.7,2c-3.8-3-7.6-6-11.3-9.1c-8.2-6.7-15.4-14.1-20.9-23.2c-0.3-0.4-0.8-0.5-1.2-0.3
		C385.2,265.5,385.1,265.9,385.3,266.3"/>
	<path id="Trazado_29625" class="st1" d="M393.5,292.7c3.3-1,6.9-0.6,10.3-1.1l-1.1-0.8c0,0.7,0.3,1.4,0.3,2.1
		c0.1,1.1,1.8,1.1,1.7,0c0-0.7-0.3-1.4-0.3-2.1c0-0.5-0.4-0.9-0.9-0.8c-0.1,0-0.1,0-0.2,0c-3.4,0.5-6.9,0.1-10.3,1.1
		c-0.5,0.1-0.7,0.6-0.6,1.1C392.6,292.5,393,292.8,393.5,292.7"/>
	<path id="Trazado_29626" class="st1" d="M392.2,291.8c-0.1,0.7-0.1,1.4,0,2.1c0.2,1.1,1.8,0.6,1.6-0.5c0-0.4,0-0.8,0-1.2
		C394,291.2,392.4,290.7,392.2,291.8"/>
	<path id="Trazado_29627" class="st1" d="M402.4,355.7c-1,1.3-1.4,2.8-1.2,4.4c0.3,0.9,0.7,1.8,1.2,2.6c1.3,2.4,0.9,4.6,0.5,7.1
		c-0.7,4-1,9.7,3.3,11.9c6.7,3.4,5-15.4,7.6-17.8c0.8-0.7-0.4-1.9-1.2-1.2c-3.7,3.3-2.5,11.7-3.7,16.1c-0.2,1.4-1,1.8-2.5,0.9
		c-1.7-1.5-2.6-3.8-2.5-6c0-2,0.7-4,0.9-6c0.4-4.1-3.3-7.5-1.1-11.1C404.4,355.6,403,354.8,402.4,355.7"/>
	<path id="Trazado_29628" class="st1" d="M392.4,295.7c4.2-1.5,8.6-2,13-1.6c1.1,0.1,1.1-1.6,0-1.7c-4.5-0.4-9.1,0.2-13.4,1.7
		C391,294.4,391.4,296.1,392.4,295.7"/>
	<path id="Trazado_29629" class="st1" d="M451.4,296.3c0,1.7,0,3.8,0.6,5.4c0.4,1,2.1,0.6,1.6-0.5c-0.5-1.6-0.7-3.3-0.6-4.9
		c0-0.5-0.4-0.8-0.9-0.8C451.8,295.5,451.4,295.9,451.4,296.3"/>
	<path id="Trazado_29630" class="st1" d="M452.8,306.8c0.3,1,0.8,2,1.3,2.9c0.6,0.9,2.1,0,1.5-0.9c-0.5-0.9-0.9-1.9-1.3-2.9
		C453.8,304.9,452.3,305.8,452.8,306.8"/>
	<path id="Trazado_29631" class="st1" d="M455.3,314.4c0.6,1.7,1.3,3.3,2.1,4.9c0.5,1,2,0.1,1.5-0.9c-0.8-1.4-1.4-2.9-1.9-4.5
		C456.6,312.9,454.9,313.3,455.3,314.4"/>
	<path id="Trazado_29632" class="st1" d="M458.8,323.2c1.2,1.6,2.2,3.3,3.3,4.9c0.6,0.9,2.1,0,1.5-0.9c-1.2-1.6-2.2-3.3-3.3-4.9
		C459.6,321.4,458.2,322.3,458.8,323.2"/>
	<path id="Trazado_29633" class="st1" d="M464.3,332.1c0.9,1.5,2,2.8,3.3,4c0.3,0.3,0.9,0.3,1.2,0c0.3-0.3,0.3-0.8,0-1.2
		c-1.2-1.1-2.2-2.3-3-3.7c-0.3-0.4-0.8-0.5-1.2-0.3C464.2,331.2,464,331.7,464.3,332.1"/>
	<path id="Trazado_29634" class="st1" d="M470,340.2c0.8,0.8,1.5,1.6,2.2,2.5c0.6,0.9,2.1,0,1.5-0.9c-0.7-1-1.5-2-2.4-2.9
		C470.4,338.2,469.2,339.4,470,340.2"/>
	<path id="Trazado_29635" class="st1" d="M474.6,346.1c0.1,0,0.2,0,0.3,0.1l-0.5-0.4c0-0.1,0-0.2-0.1-0.3c-0.1,1.1,1.5,1.5,1.6,0.5
		c0.1-0.7-0.1-1.3-0.9-1.4C474,344.3,473.5,345.9,474.6,346.1"/>
	<path id="Trazado_29636" class="st1" d="M313.6,357.5c0-0.9,0.6-1.8,1.4-2.3c1-0.5,0.1-2-0.9-1.5c-1.2,0.7-2,1.9-2.2,3.3
		C311.8,358.1,313.4,358.6,313.6,357.5"/>
	<path id="Trazado_29637" class="st1" d="M317,352.1c0.9-1.2,2-2.4,3.1-3.4c0.3-0.3,0.3-0.9,0-1.2c-0.3-0.3-0.8-0.3-1.2,0
		c-1.2,1.2-2.4,2.4-3.4,3.8C314.9,352.2,316.4,353,317,352.1"/>
	<path id="Trazado_29638" class="st1" d="M322,345.8c0.6-1.3,1.4-2.5,2.4-3.5c0.3-0.3,0.3-0.9,0-1.2c-0.3-0.3-0.8-0.3-1.2,0
		c-1.1,1.1-2.1,2.4-2.7,3.8C320.1,345.9,321.6,346.8,322,345.8"/>
	<path id="Trazado_29639" class="st1" d="M326.9,339.2c1.1-1.1,2.4-2.1,3.5-3.2c0.8-0.8-0.4-2-1.2-1.2c-1.1,1.1-2.4,2.1-3.5,3.2
		C324.9,338.8,326.1,340,326.9,339.2"/>
	<path id="Trazado_29640" class="st1" d="M333.4,334.1c1.2-1.2,2.5-2.2,4-3c1-0.5,0.1-2-0.9-1.5c-1.6,0.9-3.1,2-4.4,3.2
		C331.4,333.7,332.6,334.9,333.4,334.1"/>
	<path id="Trazado_29641" class="st1" d="M341.7,328.2c1.1-1.2,2.5-2,4.1-2.5c0.5-0.1,0.7-0.6,0.6-1.1c-0.1-0.4-0.6-0.7-1-0.6
		c-1.8,0.5-3.5,1.6-4.8,2.9C339.7,327.8,340.9,329,341.7,328.2"/>
	<path id="Trazado_29642" class="st1" d="M350.2,323.7c1.7-0.7,3.4-1.6,5.1-2.3c1-0.4,0.6-2.1-0.5-1.6c-1.7,0.7-3.4,1.6-5.1,2.3
		C348.7,322.5,349.2,324.1,350.2,323.7"/>
	<path id="Trazado_29643" class="st1" d="M359.3,320c1.9-0.1,3.9-0.4,5.8-0.9c1.1-0.3,0.6-1.9-0.5-1.6c-1.7,0.4-3.5,0.7-5.3,0.8
		C358.2,318.4,358.2,320.1,359.3,320"/>
	<path id="Trazado_29644" class="st1" d="M369.5,318.1c1.4,0.2,2.9,0.4,4.3,0.6c1.1,0.2,1.5-1.5,0.5-1.6c-1.4-0.2-2.9-0.4-4.3-0.6
		C368.9,316.3,368.4,318,369.5,318.1"/>
	<path id="Trazado_29645" class="st1" d="M376.3,320.2c0.7,0.1,1.3,0.5,1.9,0.6c1.1,0.2,1.5-1.4,0.5-1.6c-0.7-0.1-1.3-0.5-1.9-0.6
		C375.7,318.3,375.2,319.9,376.3,320.2"/>
	<path id="Trazado_29646" class="st1" d="M335.6,409c1.5,0.6,3.1,1,4.8,1.1c1.1,0.2,1.5-1.5,0.5-1.6c-1.5-0.1-3-0.4-4.4-0.9
		C335.5,407.1,334.6,408.6,335.6,409"/>
	<path id="Trazado_29647" class="st1" d="M343.2,410.6c2,0.1,4.1,0.1,6.1-0.1c0.5,0,0.8-0.4,0.8-0.9c0-0.4-0.4-0.8-0.8-0.8
		c-2,0.2-4.1,0.2-6.1,0.1C342.2,408.7,342.2,410.4,343.2,410.6"/>
	<path id="Trazado_29648" class="st1" d="M353.8,410.4c1.9,0,3.8-0.2,5.7-0.6c1.1-0.2,0.6-1.9-0.5-1.6c-1.7,0.4-3.5,0.5-5.3,0.5
		c-0.5,0-0.8,0.4-0.8,0.9C352.9,410,353.3,410.4,353.8,410.4"/>
	<path id="Trazado_29649" class="st1" d="M366,409.4c1.9-0.4,3.7-0.6,5.6-0.8c1.1-0.1,1.1-1.8,0-1.7c-2,0.2-4.1,0.5-6.1,0.9
		C364.4,408,364.9,409.6,366,409.4"/>
	<path id="Trazado_29650" class="st1" d="M377.1,407.4c1.3-0.1,2.5-0.5,3.7-0.9c1-0.4,0.1-1.9-0.9-1.5c-1.1,0.4-2.2,0.6-3.3,0.8
		C375.5,405.9,376,407.5,377.1,407.4"/>
	<path id="Trazado_29651" class="st1" d="M384.2,404.7c2-0.5,3.8-1.6,5.2-3.2c0.7-0.8-0.5-2-1.2-1.2c-1.2,1.4-2.7,2.3-4.5,2.8
		c-0.5,0.1-0.7,0.6-0.6,1.1C383.3,404.6,383.8,404.8,384.2,404.7"/>
	<path id="Trazado_29652" class="st1" d="M392.8,399.3c1.2-1,2.3-2.2,3.3-3.4c0.6-0.9-0.8-1.7-1.5-0.9c-0.9,1.1-2,2.1-3.1,3.1
		C390.8,398.8,392,400,392.8,399.3"/>
	<path id="Trazado_29653" class="st1" d="M399.5,392.8c0.8-0.9,1.3-1.9,2.1-2.7c0.7-0.8-0.5-2-1.2-1.2c-0.8,0.9-1.3,1.9-2.1,2.7
		C397.6,392.4,398.8,393.7,399.5,392.8"/>
	<path id="Trazado_29654" class="st1" d="M403.4,387.8c0.4-0.8,0.8-1.5,1.3-2.2c0.6-0.9-0.9-1.8-1.5-0.9c-0.5,0.7-0.9,1.4-1.3,2.2
		C401.4,387.9,402.9,388.8,403.4,387.8"/>
	<path id="Trazado_29655" class="st1" d="M283.3,382.9c-1.2,0.5-2.5,0.9-3.7,1.2c-0.7,0.2-9.3,0.2-8.3-1.2c0.5-0.7,0.7-1.7,0.5-2.5
		c-0.6-2.2-2.4-3.5-4.4-4.4c-4.6-2.1-9,0.1-8.7,5.3l1.7-0.2c-1.7-4.3-6.3-3.3-9.7-1.6c-2.3,1.1-4.1,3-5.2,5.2
		c-0.2,0.4-1,6.2,0.2,5.8c-9,3.3-5.6,21.3,3.6,16.6c-0.3-0.5-0.6-1-0.9-1.5c-10.2,5.4,0.8,24.3,9.2,16.7l-1.3-1
		c-5.8,11,14.5,23.4,17.8,11.8l-1.7-0.2c-0.2,9.1,10.2,2.5,11-3.4h-1.7c-0.7,7.3,11.3,4.4,9.9-3.4l-1.4,0.8c2.1,2.5,4.6,0.9,5.4-1.8
		c0.3-1.3-0.1-2.6-1.1-3.4c-0.5-0.3,6-8.1,7.8-8.1c0.5,0,0.8-0.4,0.8-0.9c0-0.4-0.4-0.8-0.8-0.8c-4,0-8,6.6-9.9,9.6
		c-0.2,0.4-0.1,0.9,0.3,1.2c-0.4,1-0.9,2-1.3,3c-0.6-0.7-1.6,0.1-1.4,0.8c1,5.7-7,7.3-6.6,3c0.1-1.1-1.6-1.1-1.7,0
		c-0.1,1.6-0.8,3.1-1.9,4.2c-1,1.2-5.8,4.4-5.6-0.9c0-0.5-0.4-0.8-0.9-0.8c-0.4,0-0.7,0.3-0.8,0.6c-2.5,8.7-19.5-1.4-14.7-10.5
		c0.2-0.4,0.1-0.9-0.3-1.2c-0.3-0.2-0.7-0.1-1,0.1c-6.3,5.6-15.5-9.7-7.2-14.1c1-0.5,0.1-2-0.9-1.5c-3.9,2-6-2.3-6.4-5.5
		c-0.5-3.7,1.7-7.3,5.3-8.4c0.5-0.1,0.7-0.6,0.6-1.1c0-0.1,0-0.1-0.1-0.2c-4.7-6.8,8.9-14.4,11-9c0.3,0.8,1.7,0.8,1.7-0.2
		c-0.5-8.8,12-2.7,9,1.5c-0.2,0.4-0.1,0.9,0.3,1.2c4.5,3.3,9.1,2.5,14.1,0.7C284.8,384.1,284.3,382.5,283.3,382.9"/>
	<path id="Trazado_29656" class="st1" d="M276.1,365.5c-4.9-1.7-9-3.8-11.7-8.5c-1.2-2.1-1.9-5.1-4.1-6.4c-3.3-2-9.8-2.8-12.1,1.3
		c-1.4,2.4-1.7,1-4.4,0.6c-2.2-0.3-4.5,0.1-6.6,1c-4.5,2.1-7.3,5.7-5.8,10.8l1.1-1c-5.9-1.1-10.5,0.4-13.9,5.5
		c-2.4,3.7-3.5,8.9,0.8,11.4c0.1-0.5,0.3-1.1,0.4-1.6c-10.1,1-12.5,16.2-3.7,20.8c-0.8-0.4-2.6,11-2.4,13c0.4,4.6,3.3,7.8,8,7.3
		c-0.2-0.5-0.4-1-0.6-1.5c-9.6,7.8,5.8,22.8,10.6,13.9c0.2-0.4,0.1-0.9-0.4-1.2c-0.4-0.2-0.9-0.1-1.1,0.3c-2.7,3.6,2.7,4.3,5.2,4
		c4.9-0.7,10.6-3.6,9.1-9.4c-0.5,0.2-1.1,0.3-1.6,0.5c0.4,1.6,1.9,2.7,3.6,2.6c2.6,0.1,3.1-2.5,4.8-3.1l-1.1-1
		c-0.1,0.1-0.2,0.3-0.3,0.4c-0.7,0.8,0.5,2,1.2,1.2c0.3-0.3,0.6-0.7,0.7-1.2c0.1-0.5-0.2-0.9-0.6-1c-0.1,0-0.3,0-0.4,0
		c-1.4,0.5-4.8,5.9-6.3,1.7c-0.1-0.5-0.6-0.7-1.1-0.6c-0.4,0.1-0.7,0.6-0.6,1c1,3.9-2.2,5.8-5.4,6.8c-0.8,0.3-7.3,1.2-5.7-1
		c-0.5-0.3-1-0.6-1.5-0.9c-3.2,6.1-16-5.3-7.9-11.8c0.3-0.3,0.3-0.9,0-1.2c-0.2-0.2-0.4-0.2-0.6-0.2c-9.4,0.9-6.8-13.8-3.4-18.6
		c0.2-0.4,0.1-0.9-0.3-1.2c-0.1,0-0.1-0.1-0.2-0.1c-8.2-3-6.9-17.1,2-17.9c0.5,0,0.8-0.4,0.8-0.9c0-0.3-0.2-0.6-0.4-0.7
		c-3.8-2.2-1.5-6.6-0.2-9.1c2.6-4.8,7-5.7,11.9-4.8c0.5,0.1,0.9-0.2,1.1-0.6c0-0.1,0-0.3,0-0.4c-2.4-8.1,8.6-11.6,14.3-8.2
		c0.4,0.2,0.9,0.1,1.2-0.3c0-0.1,0.1-0.1,0.1-0.2c2-6,9.7-5.5,12.5-0.7c1.2,2,2,4.2,3.4,6.1c2.6,3.6,7.1,5.3,11.1,6.7
		C276.7,367.5,277.2,365.9,276.1,365.5"/>
	<path id="Trazado_29657" class="st1" d="M238.8,433.9c-1.9,3-1.4,5.4,0.8,8.1c1.4,1.4,3.2,2.4,5.1,2.8c0.8,0.2,1.1,4.4,1.4,5.2
		c2.2,6.6,13.5,7.2,16.8,1.6l-1.6-0.2c1.2,7,14.2,10.7,16.2,2.5c-0.5,0.1-1,0.1-1.6,0.2c3.8,8.8,16,5.4,17.2-3.3l-1.4,0.4
		c8,7,17.1-9.2,11.9-10.3c-0.5-0.1-0.9,0.2-1,0.6s0.1,0.9,0.6,1c5.7,1.7,8.1-5.5,7.3-10c-0.8-4.6-6.4-4.7-5.3-10.5
		c0.8-4.2,5.2-6,7.1-9.5c0.5-1-1-1.8-1.5-0.9c-2,3.9-7.6,6.3-7.5,11.4c-0.1,1.8,0.4,3.6,1.6,5c1.5,1.6,3.1,2.7,4,4.9
		c1.2,2.9-1.2,9.1-5.2,7.9l-0.5,1.6c1.7,0.4-0.6,4.1-0.9,4.7c-1.8,3-6,5.7-9.4,2.8c-0.4-0.4-1.3-0.3-1.4,0.4
		c-1,7.2-10.8,10.5-14.1,2.9c-0.3-0.7-1.4-0.5-1.6,0.2c-1.6,6.7-12,2.7-12.9-2.5c-0.1-0.5-0.6-0.7-1.1-0.6c-0.2,0.1-0.4,0.2-0.5,0.4
		c-2.1,3.5-5.6,3.2-8.9,2.4c-4.5-1.1-5.5-5.1-5.4-9.1c0-0.5-0.4-0.8-0.9-0.9c-3.5-0.4-9.2-3.3-5.9-8.5
		C240.8,433.8,239.4,433,238.8,433.9"/>
	<path id="Trazado_29658" class="st1" d="M235.1,416.9c-3-0.9-10.9-5.9-5.3-9.4c0.4-0.2,0.5-0.8,0.3-1.2c-0.1-0.1-0.2-0.2-0.3-0.3
		c-4.2-2.2-5-9.9,0.6-10.8c1.1-0.2,0.6-1.8-0.5-1.6c-7,1.1-6.6,11.1-1,13.9V406c-6.8,4.2,0.5,11,5.7,12.5c0.5,0.1,0.9-0.2,1-0.6
		C235.8,417.5,235.5,417.1,235.1,416.9"/>
	<path id="Trazado_29659" class="st1" d="M258,408.3c-4.7,2.4,1,6.5,4.1,6.9l-0.7-1.3c-2.5,5.6,2.6,10.5,8.3,8.8
		c1-0.3,0.6-2-0.5-1.6c-4.1,1.3-8.3-1.9-6.4-6.2c0.2-0.4,0.1-0.9-0.3-1.2c-0.1-0.1-0.3-0.1-0.4-0.1c-1-0.1-6.1-2.2-3.2-3.7
		C259.9,409.3,259,407.8,258,408.3"/>
	<path id="Trazado_29660" class="st1" d="M251,440.4c-0.9,1.4-0.7,3.2,0.4,4.4c1.3,1.6,3.7,1.3,5.3,0.5l-1.3-0.7
		c0,4.3,4.7,4.6,7.3,2.1c0.8-0.8-0.4-2-1.2-1.2c-1.5,1.4-4.4,1.9-4.4-0.9c0-0.5-0.4-0.9-0.9-0.8c-0.1,0-0.3,0-0.4,0.1
		c-1.9,0.9-4.8-0.1-3.4-2.5c0.2-0.4,0.1-0.9-0.4-1.2C251.7,439.9,251.3,440,251,440.4"/>
	<path id="Trazado_29661" class="st1" d="M292,437.4c-0.1,2.8-2.3,4.2-4.9,4c-0.5,0-0.9,0.4-0.8,0.9c0,0.1,0,0.3,0.1,0.4
		c2.6,3.6-6.8,3.5-8.8,3.7c-1.1,0.1-1.1,1.8,0,1.7c3-0.4,14.5-0.5,10.3-6.3l-0.7,1.3c3.6,0.2,6.6-2.1,6.6-5.7c0-0.5-0.4-0.8-0.9-0.8
		C292.4,436.6,292,437,292,437.4"/>
</g>
</svg>
