<?xml version="1.0" encoding="utf-8"?>
<!-- Generator: Adobe Illustrator 27.4.0, SVG Export Plug-In . SVG Version: 6.00 Build 0)  -->
<svg version="1.1" id="Capa_1" xmlns="http://www.w3.org/2000/svg" xmlns:xlink="http://www.w3.org/1999/xlink" x="0px" y="0px"
	 viewBox="0 0 254 177" style="enable-background:new 0 0 254 177;" xml:space="preserve">
<style type="text/css">
	.st0{fill:#FFFFFF;}
	.st1{opacity:0.803;}
	.st2{fill:#999999;}
	.st3{fill:#248F8D;}
</style>
<g id="Grupo_4439" transform="translate(-642 -2424)">
	<g id="Grupo_4436">
		<rect id="Rectángulo_992" x="642" y="2424" class="st0" width="254" height="177"/>
	</g>
	<g id="Grupo_3338" transform="translate(281.531 2357.598)" class="st1">
		<path id="Trazado_8288" class="st2" d="M558.2,153.4c-0.2-3.4-1.7-5.9-5.2-6.3c-2.1-0.3-2.5-1.2-2.5-3.1
			c-0.1-6.4-0.5-12.8-0.5-19.2c0.1-13.9,0.4-27.7,0.5-41.6c0-10.3-1.7-11.7-11.8-11.3c-25.2,1-50.3,1.8-75.5,2.5
			c-10.5,0.3-21,0-31.5,0.1c-5.5,0.1-8.4,2.8-8.2,7.8c0.6,18.5,1.3,37.1,2,55.6c0.1,3.8,0.4,7.6,0.6,11.5c-0.5,0.2-1.1,0.3-1.7,0.4
			c-6.9,0.4-7.3,0.8-7.3,7.6c0,0.7,0,1.4,0,2.2c0,5,1.5,6.5,6.4,6.7c1.6,0.1,3.1,0,4.7,0c5.1,0,10.3,0,15.9,0
			c-3.1,6.3-3.1,12.6-1.8,19c2.8,14.3,8.5,27,22.1,34.2c3.4,1.5,5.5,4.9,5.5,8.6c0.1,3,0.2,6,0.3,9c0.7,0,1.3,0,2,0
			c-0.1-2.8-0.5-5.7-0.5-8.6c0-5.1-2.2-8.4-6.8-10.9c-13.7-7.3-18.8-20.1-21-34.5c5.6-2.2,7-1.4,7.7,3.9
			c1.7,13.7,12.5,24.4,25.9,24.7c-0.9-3-1.6-5.9-2.7-8.5c-3.2-7.5,1.6-14.5,9.9-14c1.7,0.3,3.4,0.3,5,0.3c3.8-0.5,5.6,1.6,5.6,4.8
			c-0.1,3.7-0.6,7.3-1.5,10.9c-0.5,2.3-1.6,4.4-2.8,7.4c1.4,0,2.9-0.1,4.3-0.3c12.8-3.3,18.5-12.9,21.8-24.6
			c0.5-1.7,0.3-3.6,0.9-5.3c0.3-0.9,1.6-1.5,2.5-2.2c0.6,0.8,1.9,1.7,1.8,2.5c-1.2,14-7,27.6-21.9,34.4c-5.6,2.5-6.6,3.7-6.1,9.9
			c0.2,3.1,0.5,6.1,0.9,9.2h1.8c-0.3-3.2-0.6-6.5-0.9-9.7c-0.3-3.7,0.9-6.1,4.6-7.6c11.9-5,19.3-14.1,21.9-26.5
			c1.8-8.7,4.2-17.4,2.3-27.5c7.7,0,15.3,0,22.9,0C558,164.6,559,163.5,558.2,153.4z M425.3,83.7c-0.2-5.4,1.9-7.3,7.4-7.3
			c14.4,0,28.9,0,38,0c24-0.8,42.7-1.4,61.3-2.1c3.5-0.1,7-0.5,10.5-0.6c4.4-0.1,6,1.4,6.1,5.7c0.1,21.3,0.1,42.6,0.2,63.9
			c0,3.4-2,3.5-4.5,3.6c-19.1,0.2-38.3,0.2-57.4,0.7c-17,0.4-33.9,1.4-50.9,2.2c-9.4,0.4-7.9,0.3-8.3-7.3
			C426.8,122.9,426,103.3,425.3,83.7z M499.4,151.3c-0.8,0.7-1.5,2-2.3,2.1c-5.9,0.5-11.8,0.9-17.6,1c-3.1,0-3.7-1-3.1-5.2
			c6.8,0,13.8-0.1,20.7,0.1C497.9,149.3,498.6,150.6,499.4,151.3L499.4,151.3z M451.5,178.3c-0.4,1-1.3,1.7-2.4,1.8
			c-1.9-0.1-4.5-0.2-5.3-1.4c-1.8-2.6,0.8-9.6,3.9-12.1C450.8,169.6,452.2,174,451.5,178.3L451.5,178.3z M488.3,187.5
			c-2-0.1-4.1-0.2-6.1-0.2c-4.9,0-7.4,3.4-9.9,7.6c-2.8-8.7,1.8-15.8,10-15.6c4.5,0.1,8.9,1.2,13.4,1.9
			C493.8,187.1,493.2,187.6,488.3,187.5L488.3,187.5z M511,197.8c-3.9,6.2-8.9,10.9-17.1,12.8c0.6-1.7,0.8-2.8,1.3-3.7
			c2.7-5.9,3.4-11.7,0.5-17.8c-0.4-0.8,0-2.2,0.4-3.3c0.6-1.7,1.5-3.2,2.5-5.3c-6.9-2.1-13.3-4.6-20.3-2.7
			c-7.6,2.1-10.9,9.6-8.2,18.5c1.3,4.2,3.1,8.3,5,13.2c-6.4-1.2-11.3-3.8-15.2-7.9c-5.2-5.6-7.2-12.6-6.8-20
			c0.3-5.3,0.6-10.3-3.5-15.7h65.8C516.2,176.9,517.3,187.8,511,197.8L511,197.8z M523.3,175.7c-0.2,2-1.4,3-3.1,2.3
			c-1-0.4-1.7-1.8-2.2-2.9c-0.2-0.9-0.2-1.9-0.1-2.8h-0.1c0-0.4-0.1-0.7-0.1-1.1c0-2.3-0.7-5.5,2.7-5.6c3.1-0.1,3.2,3.1,3.4,5.4
			C523.7,172.6,523.6,174.2,523.3,175.7L523.3,175.7z M550.4,162.7c-20.9,0.5-41.9,0.9-62.8,1.3l0,0.4c-20.7,0-41.4,0-62.1-0.1
			c-2,0-5.4-0.7-5.6-1.7c-0.7-3.2-0.3-6.6-0.1-9.9c0-0.4,1.6-1,2.4-1c16-0.7,32-1.4,48-2.1c2.2-0.1,3.7,0.3,4,2.8s2.3,3.6,4.7,3.6
			c6.4-0.2,12.8-0.4,19.1-0.9c1.2-0.1,3.3-1.9,3.3-2.9c0.1-3.3,1.9-3.3,4.3-3.3c11.3,0,22.6-0.1,34-0.1c3.6,0,7.2-0.2,10.8-0.2
			c4.5-0.1,6.2,1.5,6.3,5.9c0,0.6,0,1.2,0,1.8C556.5,162.2,556.2,162.6,550.4,162.7L550.4,162.7z"/>
		<path id="Trazado_8289" class="st3" d="M486.5,236c1.3-0.8,2.5-1.7,2.1-4.1c-0.9-5.9-1.4-11.8-1.7-17.7c-0.1-2.4-1.5-2.2-3.1-2.3
			c-1.6,0-2.9,0.2-2.7,2.3c0.2,1.6,0.3,3.3,0.3,5c-0.3,4.4-0.8,8.9-1.2,13.8c-0.8,2.2,1.1,3.2,2.9,4c0.1,0,0.2,0,0.3,0.1
			c0.1,0,0.2,0,0.3,0c0.1,0,0.1,0,0.2,0c0.6,0,1.2-0.2,1.7-0.5c0.1-0.1,0.2-0.1,0.2-0.2C485.9,236.2,486.2,236.1,486.5,236z
			 M482.7,213.5h3.5c-0.9,1.3-1.5,2.1-2.1,2.8l-2-2.2L482.7,213.5z M483,235.2c-0.9-0.6-1.3-2-2-3l0.5-0.3c0.3-4.1,0.6-8.2,1-12.4
			c0.1-0.6,0.9-1.2,1.4-1.7c0.5,0.6,1.3,1.1,1.4,1.8c0.6,3.9,1,7.9,1.7,11.8c0.3,1.5,0.3,2.8-1.2,3.4
			C485,235.2,483.6,235.6,483,235.2L483,235.2z"/>
		<path id="Trazado_8290" class="st3" d="M462.8,82c21.5-1,43.6-2.1,65.6-3.2c3-0.1,6-0.1,9,0c4.8,0.1,6.5,1.7,6.7,6.5
			c0.2,7.2,0.4,14.4,0.5,21.7c0.2,9,0.5,18.1,0.7,27.1c0.1,5.8-1.3,7.3-7,7.9c-3,0.3-6,0.2-9,0.3c-28.3,0.9-56.6,1.8-84.9,2.8
			c-11.1,0.4-11.8-0.2-12.3-11.3c-0.5-14.2-1.1-28.4-1.6-42.6c-0.3-8,0.8-9.1,9-9.1C447.1,82,454.7,82,462.8,82z M434.2,131.9
			c7.7-2.9,15-5.7,22.3-8.4c7.4-2.8,5.4-2.8,10.1,2.5c1.7,1.9,3.1,2.5,5.6,1.4c8.5-3.7,17.2-7,25.5-11c4.2-2,6.8-1.5,9.6,1.8
			c0.7,0.9,2.6,1.7,3.5,1.3c10-3.8,19.9-7.8,29.8-11.9c1.2-0.7,1.9-1.9,2.1-3.2c0.1-6.4-0.2-12.8-0.4-19.1c-0.1-3.2-1.8-4.9-5-4.8
			c-3.8,0.1-7.7,0-11.5,0.2c-13.5,0.7-26.9,1.8-40.3,2.3c-16,0.6-32,0.8-48,1.2c-4.2,0.1-4.8,0.7-4.7,4.9
			c0.3,11.2,0.6,22.4,0.9,33.6C433.5,125.5,433.9,128.5,434.2,131.9L434.2,131.9z M538,139.9c4.3,0.2,5.4-1.9,5.3-5.1
			c-0.1-6.1-0.3-12.3-0.5-18.4c0-2.2,0-4.5,0-6.7c-4.4,0.4-4.6,0.6-4.6,4c-0.1,6.3-0.2,12.5-0.2,18.8C538,134.9,538,137.4,538,139.9
			L538,139.9z M529.6,140.1v-25.6c-5.2,0.9-5.2,0.9-5.1,5.4c0,5.4,0,10.8,0.1,16.2C524.5,140.7,524.7,140.9,529.6,140.1L529.6,140.1
			z M522.7,117.5l-1.2-0.8c-1.6,1.4-4.5,2.6-4.6,4.1c-0.5,5.9-0.6,11.7-0.4,17.6c0,0.7,1.5,1.9,2.4,2c1.4,0.2,3.8,0.8,3.8-1.9
			C522.7,131.6,522.6,124.5,522.7,117.5L522.7,117.5z M536,112.2l-1-0.8c-1.1,1.2-3.2,2.4-3.2,3.7c-0.3,7.7-0.1,15.4,0.1,23.1
			c0,0.8,1.3,1.5,2.1,2.2c0.7-0.8,2-1.5,2-2.3C536.1,129.4,536,120.8,536,112.2L536,112.2z M501.5,117.7c-4.2,0.6-4.6,0.9-4.7,4
			c-0.2,5.3-0.3,10.5-0.3,15.8c0,1.7-0.4,3.7,2.5,3.6c2.9-0.1,2.4-2.1,2.5-3.8c0-2.9,0-5.8,0-8.6
			C501.5,125.1,501.5,121.4,501.5,117.7L501.5,117.7z M483.1,142.2c2.5-1,5.7-1.6,5.8-2.4c0.2-5.5-0.2-11.1-0.4-16.6l-1.3-0.6
			c-1.4,1.2-3.8,2.3-3.9,3.6C482.8,131,483.1,136,483.1,142.2L483.1,142.2z M461.7,124.7l-1.5-0.9c-1.4,1.1-4,2.2-4.1,3.5
			c-0.4,4.4-0.3,8.9,0.1,13.3c0,0.7,1.8,1.8,2.7,1.8c1,0,2.7-1.1,2.7-1.8C461.8,135.3,461.7,130,461.7,124.7L461.7,124.7z
			 M514.4,119.5c-2,1.6-4.2,2.5-4.3,3.6c-0.5,5.2-0.7,10.5-0.6,15.8c0,0.7,1.5,1.8,2.3,1.8s2.4-1.1,2.4-1.7
			C514.5,132.9,514.4,126.8,514.4,119.5L514.4,119.5z M454.3,126.5c-3.1,1.5-6.6,0.6-6.6,4.5c0,3.4,0.4,6.7,1,10
			c0.1,0.7,1.8,1.7,2.8,1.7c1,0,2.7-1.1,2.8-1.8C454.4,136.3,454.3,131.8,454.3,126.5L454.3,126.5z M503.4,118.1
			c0,7.1-0.1,13.6,0.1,20c0,1,1.3,1.9,2.1,2.9c0.7-1,1.8-2.1,1.9-3.1c0.3-4.3,0.1-8.6,0.4-12.9C508.1,121.8,506.8,119.9,503.4,118.1
			L503.4,118.1z M494.4,119.4c-1.7,1.4-3.9,2.4-3.9,3.3c-0.1,5.7,0.3,11.3,0.7,17c0.3,0.7,0.9,1.2,1.6,1.3c0.6,0,1.5-0.9,1.6-1.4
			C494.4,133.3,494.4,126.9,494.4,119.4L494.4,119.4z M480.9,126.5l-1.1-0.7c-1.3,1-3.6,1.9-3.7,3c-0.3,3.7-0.3,7.4,0,11.1
			c0,0.6,1.4,1.7,2.1,1.6c0.9,0,2.5-0.9,2.6-1.5C481,135.5,480.9,131,480.9,126.5L480.9,126.5z M445.5,130.4l-1.1-0.7
			c-1.3,1.1-3.5,2-3.8,3.3c-0.4,2.8-0.3,5.7,0.3,8.6c0.1,0.7,1.9,1.6,2.9,1.5c0.9-0.1,2.5-1.3,2.5-2
			C446.3,137.5,445.8,133.9,445.5,130.4L445.5,130.4z M463.6,126.4c0,4.8-0.1,9.1,0.1,13.3c0,0.8,1.4,1.6,2.2,2.4
			c0.7-0.9,1.8-1.7,1.9-2.6c0.2-2.1-0.3-4.3-0.1-6.5C467.9,129.9,466.4,128.1,463.6,126.4L463.6,126.4z M474.1,129.4l-1.6-0.6
			c-0.9,1.1-2.4,2-2.6,3.2c-0.2,2.7-0.2,5.5,0.2,8.2c0.1,0.6,1.3,1.6,1.8,1.5c0.8-0.2,2.1-1,2.1-1.7
			C474.2,136.5,474.1,133,474.1,129.4L474.1,129.4z M438.9,143.2c-0.2-3.5-0.3-6.8-0.5-10.2c-2.7,0.4-4.8,0.7-4.3,3.6
			C434.6,139.2,433.7,142.8,438.9,143.2z"/>
	</g>
</g>
</svg>
