<?xml version="1.0" encoding="utf-8"?>
<!-- Generator: Adobe Illustrator 27.4.0, SVG Export Plug-In . SVG Version: 6.00 Build 0)  -->
<svg version="1.1" id="Capa_1" xmlns="http://www.w3.org/2000/svg" xmlns:xlink="http://www.w3.org/1999/xlink" x="0px" y="0px"
	 viewBox="0 0 258 157" style="enable-background:new 0 0 258 157;" xml:space="preserve">
<style type="text/css">
	.st0{fill:#FFFFFF;}
	.st1{opacity:0.669;fill:#B9B9B9;enable-background:new    ;}
	.st2{fill:#5C5C5C;}
	.st3{fill:#D0D0D0;}
	.st4{fill:#248F8D;}
	.st5{fill:#999999;}
	.st6{fill:#B7B7B7;}
</style>
<g id="Grupo_4441" transform="translate(-345 -1556)">
	<rect id="Rectángulo_995" x="345" y="1556" class="st0" width="258" height="157"/>
	<g id="Grupo_4434">
		<g id="Grupo_4433">
			<path id="Trazado_8188" class="st1" d="M476.3,1602c0.2,0.1,0.4,0.2,0.7,0.4c1.3,0.6,2.2,1.9,2.2,3.4c0,1.2,0.1,2.4,0,3.6
				c0,0.8,0.1,1.3,0.9,1.4c0.2,0,0.3,0.1,0.5,0.2c1.7,0.7,1.7,0.7,3-0.6c0.6-0.6,1.2-1.3,1.9-1.9c1.5-1.5,3.9-1.6,5.4-0.1
				c0,0,0.1,0.1,0.1,0.1c0.9,0.8,1.8,1.7,2.6,2.6c1.5,1.5,1.5,3.8,0.1,5.3c0,0-0.1,0.1-0.1,0.1c-0.9,0.9-1.8,1.9-2.8,2.8
				c-0.3,0.2-0.4,0.7-0.2,1c0,0,0,0,0,0c0.2,0.3,0.3,0.6,0.5,1c0.6,1.5,0.6,1.5,2.1,1.5c1,0,2,0,2.9,0c2.1-0.1,3.8,1.5,3.9,3.6
				c0,0,0,0.1,0,0.1c0.1,1.4,0.1,2.9,0,4.3c-0.1,1.8-1.5,3.2-3.3,3.3c-2,0.1-4,0.1-6,0c-1,0-1.9-0.8-1.9-1.8c0,0,0-0.1,0-0.1
				c0.1-1.1,1-1.9,2.1-1.8c0,0,0,0,0.1,0c1.8,0,3.5,0,5.4,0v-3.7c-1.4,0-2.7,0-4.1,0c-3.2,0-3.2,0-4.2-3c-0.4-1-0.9-2.1-1.4-3
				c-0.6-0.9-0.4-2.1,0.4-2.7c1.3-1.4,2.7-2.7,4.1-4l-2.7-2.6c-1.2,1.2-2.5,2.5-3.8,3.8c-1.2,1.2-1.8,1.2-3.3,0.5
				c-1.2-0.6-2.5-1.1-3.8-1.6c-1.4-0.5-1.8-0.9-1.9-2.4c0-1.5,0-3.1,0-4.6v-1h-3.7c0,0.9,0,1.8,0,2.6c0,1,0,2.1,0,3.1
				c0.1,1.1-0.7,2-1.7,2.2c-1.4,0.5-2.8,1.1-4.2,1.8c-0.9,0.6-2.1,0.5-2.8-0.4c-1.3-1.3-2.7-2.7-4-4l-2.6,2.7
				c1.2,1.2,2.5,2.5,3.8,3.9c0.9,0.7,1.1,2,0.4,2.9c-0.6,1.3-1.2,2.7-1.7,4.1c-0.5,1.4-1,1.8-2.5,1.8c-1.8,0-3.6,0-5.5,0v3.8
				c1.9,0,3.7,0,5.5,0c1-0.1,1.9,0.6,2,1.6c0,0.3,0,0.6-0.1,0.9c-0.3,0.6-0.8,1-1.4,1.2c-2.3,0.1-4.6,0.1-6.9,0
				c-1.6-0.2-2.7-1.5-2.9-3.1c-0.1-1.5-0.1-3-0.1-4.5c0-2.1,1.7-3.7,3.8-3.7c0,0,0.1,0,0.1,0c1.3,0,2.6,0,3.9,0
				c0.3-0.1,0.6-0.3,0.8-0.6c0.2-0.2,0.2-0.6,0.3-0.8c0.9-1.2,0.6-2.1-0.6-3c-0.7-0.6-1.4-1.3-2-2c-1.4-1.4-1.4-3.7-0.1-5.1
				c0.9-1,1.8-1.9,2.7-2.8c1.5-1.5,3.9-1.5,5.4-0.1c0,0,0.1,0.1,0.1,0.1c0.8,0.8,1.7,1.6,2.4,2.4c0.5,0.6,1,0.9,1.7,0.3
				c0.2-0.1,0.5-0.3,0.7-0.3c1.4-0.6,1.4-0.6,1.4-2.1c0-0.9,0-1.9,0-2.8c-0.1-1.7,0.9-3.3,2.6-3.8c0.1-0.1,0.2-0.1,0.3-0.2
				L476.3,1602z"/>
			<path id="Trazado_8190" class="st2" d="M455.4,1641.7c2.7,0,5.4,0,8.2,0c0.5,0.1,0.9-0.2,1.1-0.6c1.2-2.5,4.1-3.8,6.8-2.9
				c2.6,0.8,4.2,3.4,3.9,6.1c-0.3,2.8-2.7,5-5.6,5c-2.1,0.1-4.1-1.1-5-3c-0.2-0.6-0.8-0.9-1.4-0.8c-5.1,0-10.3,0-15.4,0
				c-0.3,0-0.6,0-0.9,0c-1.1,0-1.9-0.8-1.9-1.9c0,0,0-0.1,0-0.1c0.1-1,1-1.8,2-1.8c0,0,0,0,0,0
				C449.9,1641.7,452.6,1641.7,455.4,1641.7z M469.7,1645.5c1,0,1.8-0.8,1.8-1.9c0-1-0.8-1.8-1.9-1.9c-1,0.1-1.8,0.9-1.9,1.9
				C467.8,1644.6,468.7,1645.5,469.7,1645.5L469.7,1645.5z"/>
			<path id="Trazado_8191" class="st2" d="M490.5,1641.7c3.1,0,6.2,0,9.3,0c0.9-0.1,1.8,0.5,2,1.4c0.2,0.8-0.2,1.6-0.9,2
				c-0.2,0.1-0.5,0.2-0.7,0.2c-6.4,0-12.9,0-19.3,0c-0.5-0.1-1-0.3-1.3-0.7c-0.5-0.5-0.6-1.3-0.2-1.9c0.3-0.7,1.1-1.1,1.9-1.1
				C484.3,1641.7,487.4,1641.7,490.5,1641.7z"/>
			<path id="Trazado_8192" class="st3" d="M473.4,1620.9c4.1,0,7.4,3.3,7.6,7.3c0.1,1-0.6,1.9-1.6,2.1c-1,0.1-1.9-0.5-2.1-1.5
				c-0.1-0.2-0.1-0.5-0.1-0.7c-0.2-1.9-1.8-3.4-3.7-3.5c-1.9,0-3.5,1.5-3.8,3.4c-0.1,0.7-0.4,1.3-0.8,1.8c-0.5,0.5-1.3,0.6-2,0.2
				c-0.7-0.3-1.1-1.1-1.1-1.9C466,1624.2,469.4,1620.9,473.4,1620.9z"/>
			<g id="Grupo_4429">
				<g id="Grupo_3388">
					<path id="Trazado_8187" class="st4" d="M451.3,1602c0.5,0.4,0.9,0.9,1.2,1.5c0.3,0.9-0.2,1.9-1.1,2.2c-0.1,0-0.1,0-0.2,0.1
						c-0.5,0.1-1,0.1-1.5,0.1c-4.3,0-8.6,0-12.9,0.1c-2.6,0.2-4.7,2.3-4.9,4.9c-0.1,0.6-0.1,1.2-0.1,1.9c0,17,0,34,0,51
						c-0.1,1.4,0.3,2.8,1,4c1.2,1.6,3.1,2.5,5.1,2.4c14.4,0,28.7,0,43.1,0c9.3,0,18.6,0,27.8,0c3.1,0,5.2-1.6,6-4.3
						c0.1-0.4,0.1-0.8,0.2-1.1c0-2.4,0-4.8,0-7.3c0-0.2,0-0.3-0.1-0.5c-0.3,0-0.5-0.1-0.8-0.1c-16.4,0-32.7,0-49.1,0
						c-8.3,0-16.6,0-24.9,0c-0.2,0-0.4,0-0.6,0c-1.1,0-2-0.8-2-1.9c0-1.1,0.9-1.9,2-1.9c0,0,0.1,0,0.1,0c4.3,0,8.6,0,12.9,0h63.7
						c2.1,0,2.7,0.6,2.7,2.7c0,2.7-0.1,5.5,0,8.2c0.1,5.4-4.1,9.8-9.5,9.9c-0.1,0-0.3,0-0.4,0c-14.1-0.1-28.1,0-42.2,0h-4.6
						c0,0.4,0,0.7,0,1c0,2.7,0,5.3,0,8c0.1,0.9-0.4,1.8-1.2,2.3c-1.3,0.9-2.7,1.7-4,2.7c-0.3,0.2-0.4,0.6-0.7,1.1h34.5
						c-0.3-0.5-0.5-0.9-0.8-1.1c-1.3-1-2.7-1.9-4.1-2.8c-0.7-0.4-1.1-1.1-1-1.9c0-1.1,0-2.2,0-3.4c-0.1-1,0.6-1.9,1.7-2.1
						c0,0,0,0,0.1,0c1-0.1,1.9,0.6,2,1.6c0,0.1,0,0.1,0,0.2c0.1,0.7,0,1.4,0.1,2.1c0,0.4,0.2,0.7,0.5,1c1.3,0.9,2.6,1.8,4,2.7
						c0.7,0.4,1.2,1.2,1.1,2.1c0,0.7,0,1.4-0.1,2c-0.2,1.9-1.8,3.4-3.7,3.4c-11.4,0-22.8,0-34.1,0c-2,0-3.6-1.5-3.7-3.4
						c0-0.1,0-0.3,0-0.4c-0.4-1.7,0.4-3.5,2.1-4.2c1.1-0.6,2.1-1.3,3.1-2c0.3-0.2,0.4-0.4,0.5-0.8c0-2.5,0-5.1,0-7.6
						c0-0.1-0.1-0.2-0.1-0.4h-1c-6.4,0-12.8,0-19.2,0c-4.6,0-8.1-2.4-9.5-6.5c-0.2-0.5-0.3-1.1-0.5-1.6v-55.7
						c0.1-0.2,0.1-0.3,0.2-0.5c0.4-2.2,1.6-4.1,3.3-5.5c1.4-1.1,3-1.8,4.7-2.1L451.3,1602z"/>
					<path id="Trazado_8189" class="st4" d="M510.7,1602c1.8,0.3,3.4,1.1,4.8,2.3c2.1,1.7,3.3,4.3,3.3,7c0,11.3,0,22.6,0,34
						c0.1,1-0.5,1.9-1.5,2.2c-0.9,0.2-1.8-0.2-2.1-1c-0.2-0.5-0.2-1.1-0.2-1.7c0-10.8,0-21.7,0-32.5c0.1-2-0.7-4-2.3-5.2
						c-1.1-0.8-2.5-1.2-3.9-1.1c-4,0-8.1,0-12.1,0c-1.4,0-2.1-0.5-2.3-1.5c-0.2-1.1,0.4-1.7,1.3-2.2L510.7,1602z"/>
				</g>
				<g id="Grupo_4428">
					<g id="Grupo_4427">
						<path id="Trazado_8253" class="st5" d="M385.8,1648.3c-0.9-2.4-1.7-4.4-2.5-6.4c-1.4-3.8-1-7.3,2.4-9.8c2.9-2.2,9-2,11.6,0.1
							c3.1,2.6,4.6,7.4,3.3,10.6c-2.9,7.3-2.9,7.2,5,7.3c9.8,0.1,8.6-1.5,9.3,8.9c0.5,8.2,1,16.3,1.6,25.5
							c-6.4,0.2-12.5,0.5-18.6,0.4c-0.7,0-2.1-1.8-2-2.6c0.2-1.9,0.8-3.7,1.7-5.4c1.6-2.9,2.4-5.5-0.8-7.7c-2.8-1.9-7.6-1.2-8.9,1.8
							c-1,2.5-1.1,5.2-0.2,7.8c2,5.3,1.8,6.1-3.9,6.2h-0.4c-11-0.1-11-0.1-11.6-11c0-0.9-0.3-1.7-0.5-3.2c-2,0.7-3.7,1.2-5.4,1.8
							c-3.8,1.4-7.3,1.2-9.7-2.5c-2.2-3.3-1.4-6.5,1.2-9.2c2.9-2.9,6.2-3.7,9.8-1.1c1.2,0.6,2.4,1.2,3.7,1.6c0-3.5,0-6.2,0-8.9
							c0-2.3,0.9-3.4,3.4-3.5C378.1,1648.9,381.7,1648.6,385.8,1648.3z M386.5,1682.4c-2.5-5-3.8-9.9,0.6-14
							c2.9-2.8,7.2-3.3,10.7-1.3c7.4,4.4,1.4,10,0.6,15.5c4.5,0,8.6,0,12.6,0c2.5,0,3.4-1.1,3.2-3.5c-0.5-6-0.7-12-1.2-18
							c-0.8-8.7-0.9-8.7-9.7-8.9c-8.7-0.1-9.3-1.2-5.3-9.1c1.8-3.6,0.8-6.7-1.9-9.1c-2.8-2.4-6.2-1.8-9,0c-3.4,2.2-2.2,5.3-1,8.2
							c1,2.5,1.9,5,3.1,8.5c-2.9,0-4.6,0-6.3,0c-9.1,0.1-9.2,0.1-9.4,9.3c-0.1,3.9-2.1,4.1-4.8,3.3c-1.1-0.4-2.1-1-3-1.8
							c-1.6-1.5-4.1-1.5-5.6,0.1c-0.2,0.2-0.4,0.5-0.6,0.7c-1.1,1.7-1.8,4.5-1.1,6.2c0.6,1.3,3.5,1.9,5.4,2.2c1.3,0.1,2.7-1,4.1-1.5
							c4.4-1.6,6.3-0.3,6.4,4.4c-0.1,1.9-0.1,3.8,0.1,5.7c0.2,1.1,1.4,2.8,2.3,2.9C379.9,1682.5,383.2,1682.5,386.5,1682.4
							L386.5,1682.4z"/>
						<path id="Trazado_8256" class="st6" d="M553.7,1590c2.3-2.5,4.4-5.2,6.9-7.5c3.6-3.2,7.5-8.5,11.3-8.6
							c3.8-0.1,7.8,5.1,11.6,8.1c2.5,1.9,4.9,3.9,7.4,5.9l-1.3,2c-4.8-3.2-9.5-6.4-15.2-10.2c-0.4,9-0.8,17.2-1.3,25.4
							c-0.9,13.7-0.9,13.6-14.5,14.4c-3.9,0.2-7.7,0.5-12.4,0.9c-0.4,13.8-0.8,27.4-1.2,41l-2.3,0.1c-0.3-1.6-0.6-3.2-0.6-4.8
							c0.2-11.6,0.6-23.3,0.7-34.9c0-3.8,1.6-5,5.1-5c5.7,0,11.4-0.4,17.1-1c1.7-0.2,4.4-2.2,4.5-3.5c0.8-10.7,1.1-21.5,1.6-32.3
							l-1.5-0.8l-14.3,12.2L553.7,1590z"/>
					</g>
				</g>
			</g>
		</g>
	</g>
</g>
</svg>
